999
DXF created by Inkscape
  0
SECTION
  2
HEADER
  9
$ACADVER
  1
AC1014
  9
$HANDSEED
  5
FFFF
  9
$MEASUREMENT
 70
     1
  0
ENDSEC
  0
SECTION
  2
TABLES
  0
TABLE
  2
VPORT
  5
8
330
0
100
AcDbSymbolTable
 70
     4
  0
VPORT
  5
2E
330
8
100
AcDbSymbolTableRecord
100
AcDbViewportTableRecord
  2
*ACTIVE
 70
     0
 10
0.0
 20
0.0
 11
1.0
 21
1.0
 12
210.0
 22
148.5
 13
0.0
 23
0.0
 14
10.0
 24
10.0
 15
10.0
 25
10.0
 16
0.0
 26
0.0
 36
1.0
 17
0.0
 27
0.0
 37
0.0
 40
341.0
 41
1.24
 42
50.0
 43
0.0
 44
0.0
 50
0.0
 51
0.0
 71
     0
 72
   100
 73
     1
 74
     3
 75
     0
 76
     0
 77
     0
 78
     0
  0
ENDTAB
  0
TABLE
  2
LTYPE
  5
5
330
0
100
AcDbSymbolTable
 70
     1
  0
LTYPE
  5
14
330
5
100
AcDbSymbolTableRecord
100
AcDbLinetypeTableRecord
  2
BYBLOCK
 70
     0
  3

 72
    65
 73
     0
 40
0.0
  0
LTYPE
  5
15
330
5
100
AcDbSymbolTableRecord
100
AcDbLinetypeTableRecord
  2
BYLAYER
 70
     0
  3

 72
    65
 73
     0
 40
0.0
  0
LTYPE
  5
16
330
5
100
AcDbSymbolTableRecord
100
AcDbLinetypeTableRecord
  2
CONTINUOUS
 70
     0
  3
Solid line
 72
    65
 73
     0
 40
0.0
  0
ENDTAB
  0
TABLE
  2
LAYER
  5
2
100
AcDbSymbolTable
 70
2
  0
LAYER
  5
50
100
AcDbSymbolTableRecord
100
AcDbLayerTableRecord
  2
0
 70
0
  6
CONTINUOUS
  0
LAYER
  5
51
100
AcDbSymbolTableRecord
100
AcDbLayerTableRecord
  2
Outline
 70
0
  6
CONTINUOUS
  0
ENDTAB
  0
TABLE
  2
STYLE
  5
3
330
0
100
AcDbSymbolTable
 70
     1
  0
STYLE
  5
11
330
3
100
AcDbSymbolTableRecord
100
AcDbTextStyleTableRecord
  2
STANDARD
 70
     0
 40
0.0
 41
1.0
 50
0.0
 71
     0
 42
2.5
  3
txt
  4

  0
ENDTAB
  0
TABLE
  2
VIEW
  5
6
330
0
100
AcDbSymbolTable
 70
     0
  0
ENDTAB
  0
TABLE
  2
UCS
  5
7
330
0
100
AcDbSymbolTable
 70
     0
  0
ENDTAB
  0
TABLE
  2
APPID
  5
9
330
0
100
AcDbSymbolTable
 70
     2
  0
APPID
  5
12
330
9
100
AcDbSymbolTableRecord
100
AcDbRegAppTableRecord
  2
ACAD
 70
     0
  0
ENDTAB
  0
TABLE
  2
DIMSTYLE
  5
A
330
0
100
AcDbSymbolTable
 70
     1
  0
DIMSTYLE
105
27
330
A
100
AcDbSymbolTableRecord
100
AcDbDimStyleTableRecord
  2
ISO-25
 70
     0
  3

  4

  5

  6

  7

 40
1.0
 41
2.5
 42
0.625
 43
3.75
 44
1.25
 45
0.0
 46
0.0
 47
0.0
 48
0.0
140
2.5
141
2.5
142
0.0
143
0.03937007874016
144
1.0
145
0.0
146
1.0
147
0.625
 71
     0
 72
     0
 73
     0
 74
     0
 75
     0
 76
     0
 77
     1
 78
     8
170
     0
171
     3
172
     1
173
     0
174
     0
175
     0
176
     0
177
     0
178
     0
270
     2
271
     2
272
     2
273
     2
274
     3
340
11
275
     0
280
     0
281
     0
282
     0
283
     0
284
     8
285
     0
286
     0
287
     3
288
     0
  0
ENDTAB
  0
TABLE
  2
BLOCK_RECORD
  5
1
330
0
100
AcDbSymbolTable
 70
     1
  0
BLOCK_RECORD
  5
1F
330
1
100
AcDbSymbolTableRecord
100
AcDbBlockTableRecord
  2
*MODEL_SPACE
  0
BLOCK_RECORD
  5
1B
330
1
100
AcDbSymbolTableRecord
100
AcDbBlockTableRecord
  2
*PAPER_SPACE
  0
ENDTAB
  0
ENDSEC
  0
SECTION
  2
BLOCKS
  0
BLOCK
  5
20
330
1F
100
AcDbEntity
  8
0
100
AcDbBlockBegin
  2
*MODEL_SPACE
 70
     0
 10
0.0
 20
0.0
 30
0.0
  3
*MODEL_SPACE
  1

  0
ENDBLK
  5
21
330
1F
100
AcDbEntity
  8
0
100
AcDbBlockEnd
  0
BLOCK
  5
1C
330
1B
100
AcDbEntity
 67
     1
  8
0
100
AcDbBlockBegin
  2
*PAPER_SPACE
  1

  0
ENDBLK
  5
1D
330
1B
100
AcDbEntity
 67
     1
  8
0
100
AcDbBlockEnd
  0
ENDSEC
  0
SECTION
  2
ENTITIES
  0
LWPOLYLINE
  5
100
100
AcDbEntity
  8
Outline
 62
7
100
AcDbPolyline
 90
145
 70
0
 10
42.186098
 20
0.000000
 30
0.0
 10
43.907422
 20
0.052352
 30
0.0
 10
45.630386
 20
0.075494
 30
0.0
 10
47.354357
 20
0.080574
 30
0.0
 10
49.078704
 20
0.077752
 30
0.0
 10
50.802791
 20
0.080574
 30
0.0
 10
52.525989
 20
0.098637
 30
0.0
 10
54.247666
 20
0.143454
 30
0.0
 10
55.967187
 20
0.226173
 30
0.0
 10
57.055622
 20
0.199644
 30
0.0
 10
58.137374
 20
0.218553
 30
0.0
 10
59.214058
 20
0.272655
 30
0.0
 10
60.287295
 20
0.351197
 30
0.0
 10
61.358707
 20
0.443597
 30
0.0
 10
62.429912
 20
0.539214
 30
0.0
 10
63.502532
 20
0.627408
 30
0.0
 10
64.578188
 20
0.697540
 30
0.0
 10
65.835135
 20
0.747663
 30
0.0
 10
67.080963
 20
0.869781
 30
0.0
 10
68.318149
 20
1.048089
 30
0.0
 10
69.549174
 20
1.266839
 30
0.0
 10
70.776513
 20
1.510256
 30
0.0
 10
72.002647
 20
1.762591
 30
0.0
 10
73.230054
 20
2.008011
 30
0.0
 10
74.461215
 20
2.230797
 30
0.0
 10
75.287341
 20
2.556341
 30
0.0
 10
76.108642
 20
2.883154
 30
0.0
 10
76.920242
 20
3.222724
 30
0.0
 10
77.717280
 20
3.586480
 30
0.0
 10
78.494890
 20
3.985796
 30
0.0
 10
79.248200
 20
4.432159
 30
0.0
 10
79.972349
 20
4.936970
 30
0.0
 10
80.662464
 20
5.511659
 30
0.0
 10
82.017816
 20
6.947408
 30
0.0
 10
83.037499
 20
8.569254
 30
0.0
 10
83.766056
 20
10.338477
 30
0.0
 10
84.248015
 20
12.216328
 30
0.0
 10
84.527923
 20
14.164056
 30
0.0
 10
84.650306
 20
16.142973
 30
0.0
 10
84.659704
 20
18.114298
 30
0.0
 10
84.600661
 20
20.039305
 30
0.0
 10
84.469368
 20
21.723737
 30
0.0
 10
84.168697
 20
23.409808
 30
0.0
 10
83.689433
 20
25.057504
 30
0.0
 10
83.022361
 20
26.626803
 30
0.0
 10
82.158270
 20
28.077685
 30
0.0
 10
81.087948
 20
29.370133
 30
0.0
 10
79.802183
 20
30.464125
 30
0.0
 10
78.291761
 20
31.319648
 30
0.0
 10
76.616272
 20
32.082192
 30
0.0
 10
74.889518
 20
32.707890
 30
0.0
 10
73.121128
 20
33.214457
 30
0.0
 10
71.320733
 20
33.619609
 30
0.0
 10
69.497964
 20
33.941060
 30
0.0
 10
67.662453
 20
34.196531
 30
0.0
 10
65.823829
 20
34.403738
 30
0.0
 10
63.991727
 20
34.580395
 30
0.0
 10
62.169579
 20
34.702202
 30
0.0
 10
60.311609
 20
34.813539
 30
0.0
 10
58.429550
 20
34.912582
 30
0.0
 10
56.535142
 20
34.997506
 30
0.0
 10
54.640116
 20
35.066489
 30
0.0
 10
52.756212
 20
35.117704
 30
0.0
 10
50.895157
 20
35.149327
 30
0.0
 10
49.068694
 20
35.159544
 30
0.0
 10
48.380145
 20
34.400679
 30
0.0
 10
47.648642
 20
33.897573
 30
0.0
 10
46.876236
 20
33.599529
 30
0.0
 10
46.064977
 20
33.455847
 30
0.0
 10
45.216916
 20
33.415822
 30
0.0
 10
44.334105
 20
33.428748
 30
0.0
 10
43.418596
 20
33.443932
 30
0.0
 10
42.472435
 20
33.410683
 30
0.0
 10
41.539682
 20
33.427391
 30
0.0
 10
40.646375
 20
33.407437
 30
0.0
 10
39.789185
 20
33.395866
 30
0.0
 10
38.964785
 20
33.437714
 30
0.0
 10
38.169842
 20
33.578013
 30
0.0
 10
37.401029
 20
33.861804
 30
0.0
 10
36.655014
 20
34.334123
 30
0.0
 10
35.928467
 20
35.040008
 30
0.0
 10
35.748516
 20
35.041419
 30
0.0
 10
35.252358
 20
35.043959
 30
0.0
 10
34.505536
 20
35.046217
 30
0.0
 10
33.573590
 20
35.046104
 30
0.0
 10
32.522067
 20
35.041871
 30
0.0
 10
31.416509
 20
35.031711
 30
0.0
 10
30.322458
 20
35.013790
 30
0.0
 10
29.305456
 20
34.986273
 30
0.0
 10
26.682006
 20
34.894170
 30
0.0
 10
24.050866
 20
34.779805
 30
0.0
 10
21.419781
 20
34.618224
 30
0.0
 10
18.796497
 20
34.384463
 30
0.0
 10
16.188759
 20
34.053563
 30
0.0
 10
13.604313
 20
33.600568
 30
0.0
 10
11.050904
 20
33.000513
 30
0.0
 10
8.536277
 20
32.228443
 30
0.0
 10
7.058727
 20
31.615634
 30
0.0
 10
5.669923
 20
30.826987
 30
0.0
 10
4.392694
 20
29.875635
 30
0.0
 10
3.249872
 20
28.774720
 30
0.0
 10
2.264287
 20
27.537373
 30
0.0
 10
1.458769
 20
26.176729
 30
0.0
 10
0.856149
 20
24.705928
 30
0.0
 10
0.479259
 20
23.138099
 30
0.0
 10
0.235932
 20
21.193602
 30
0.0
 10
0.066770
 20
19.215862
 30
0.0
 10
0.000128
 20
17.223698
 30
0.0
 10
0.064363
 20
15.235936
 30
0.0
 10
0.287830
 20
13.271387
 30
0.0
 10
0.698884
 20
11.348889
 30
0.0
 10
1.325881
 20
9.487295
 30
0.0
 10
2.197176
 20
7.705372
 30
0.0
 10
3.124151
 20
6.438561
 30
0.0
 10
4.224779
 20
5.359118
 30
0.0
 10
5.468507
 20
4.447850
 30
0.0
 10
6.824778
 20
3.685540
 30
0.0
 10
8.263039
 20
3.052995
 30
0.0
 10
9.752734
 20
2.530969
 30
0.0
 10
11.263308
 20
2.100241
 30
0.0
 10
12.764206
 20
1.741650
 30
0.0
 10
13.997747
 20
1.503934
 30
0.0
 10
15.238558
 20
1.296190
 30
0.0
 10
16.485333
 20
1.114524
 30
0.0
 10
17.736764
 20
0.955125
 30
0.0
 10
18.991546
 20
0.814126
 30
0.0
 10
20.248371
 20
0.687663
 30
0.0
 10
21.505934
 20
0.571895
 30
0.0
 10
22.762927
 20
0.462957
 30
0.0
 10
24.419068
 20
0.373154
 30
0.0
 10
26.087077
 20
0.310529
 30
0.0
 10
27.761270
 20
0.266644
 30
0.0
 10
29.435961
 20
0.233059
 30
0.0
 10
31.105469
 20
0.201253
 30
0.0
 10
32.764106
 20
0.162842
 30
0.0
 10
34.406188
 20
0.109333
 30
0.0
 10
36.026034
 20
0.032286
 30
0.0
 10
36.778630
 20
0.043857
 30
0.0
 10
37.541875
 20
0.057686
 30
0.0
 10
38.312931
 20
0.070386
 30
0.0
 10
39.088960
 20
0.078571
 30
0.0
 10
39.867126
 20
0.078571
 30
0.0
 10
40.644595
 20
0.067846
 30
0.0
 10
41.418530
 20
0.042446
 30
0.0
 10
42.186098
 20
0.000000
 30
0.0
  0
ENDSEC
  0
SECTION
  2
OBJECTS
  0
DICTIONARY
  5
C
330
0
100
AcDbDictionary
  3
ACAD_GROUP
350
D
  3
ACAD_MLINESTYLE
350
17
  0
DICTIONARY
  5
D
330
C
100
AcDbDictionary
  0
DICTIONARY
  5
1A
330
C
100
AcDbDictionary
  0
DICTIONARY
  5
17
330
C
100
AcDbDictionary
  3
STANDARD
350
18
  0
DICTIONARY
  5
19
330
C
100
AcDbDictionary
  0
ENDSEC
  0
EOF
