999
DXF created by Inkscape
  0
SECTION
  2
HEADER
  9
$ACADVER
  1
AC1014
  9
$HANDSEED
  5
FFFF
  9
$MEASUREMENT
 70
     1
  0
ENDSEC
  0
SECTION
  2
TABLES
  0
TABLE
  2
VPORT
  5
8
330
0
100
AcDbSymbolTable
 70
     4
  0
VPORT
  5
2E
330
8
100
AcDbSymbolTableRecord
100
AcDbViewportTableRecord
  2
*ACTIVE
 70
     0
 10
0.0
 20
0.0
 11
1.0
 21
1.0
 12
210.0
 22
148.5
 13
0.0
 23
0.0
 14
10.0
 24
10.0
 15
10.0
 25
10.0
 16
0.0
 26
0.0
 36
1.0
 17
0.0
 27
0.0
 37
0.0
 40
341.0
 41
1.24
 42
50.0
 43
0.0
 44
0.0
 50
0.0
 51
0.0
 71
     0
 72
   100
 73
     1
 74
     3
 75
     0
 76
     0
 77
     0
 78
     0
  0
ENDTAB
  0
TABLE
  2
LTYPE
  5
5
330
0
100
AcDbSymbolTable
 70
     1
  0
LTYPE
  5
14
330
5
100
AcDbSymbolTableRecord
100
AcDbLinetypeTableRecord
  2
BYBLOCK
 70
     0
  3

 72
    65
 73
     0
 40
0.0
  0
LTYPE
  5
15
330
5
100
AcDbSymbolTableRecord
100
AcDbLinetypeTableRecord
  2
BYLAYER
 70
     0
  3

 72
    65
 73
     0
 40
0.0
  0
LTYPE
  5
16
330
5
100
AcDbSymbolTableRecord
100
AcDbLinetypeTableRecord
  2
CONTINUOUS
 70
     0
  3
Solid line
 72
    65
 73
     0
 40
0.0
  0
ENDTAB
  0
TABLE
  2
LAYER
  5
2
100
AcDbSymbolTable
 70
3
  0
LAYER
  5
50
100
AcDbSymbolTableRecord
100
AcDbLayerTableRecord
  2
0
 70
0
  6
CONTINUOUS
  0
LAYER
  5
51
100
AcDbSymbolTableRecord
100
AcDbLayerTableRecord
  2
Text
 70
0
  6
CONTINUOUS
  0
LAYER
  5
52
100
AcDbSymbolTableRecord
100
AcDbLayerTableRecord
  2
Cutouts
 70
0
  6
CONTINUOUS
  0
ENDTAB
  0
TABLE
  2
STYLE
  5
3
330
0
100
AcDbSymbolTable
 70
     1
  0
STYLE
  5
11
330
3
100
AcDbSymbolTableRecord
100
AcDbTextStyleTableRecord
  2
STANDARD
 70
     0
 40
0.0
 41
1.0
 50
0.0
 71
     0
 42
2.5
  3
txt
  4

  0
ENDTAB
  0
TABLE
  2
VIEW
  5
6
330
0
100
AcDbSymbolTable
 70
     0
  0
ENDTAB
  0
TABLE
  2
UCS
  5
7
330
0
100
AcDbSymbolTable
 70
     0
  0
ENDTAB
  0
TABLE
  2
APPID
  5
9
330
0
100
AcDbSymbolTable
 70
     2
  0
APPID
  5
12
330
9
100
AcDbSymbolTableRecord
100
AcDbRegAppTableRecord
  2
ACAD
 70
     0
  0
ENDTAB
  0
TABLE
  2
DIMSTYLE
  5
A
330
0
100
AcDbSymbolTable
 70
     1
  0
DIMSTYLE
105
27
330
A
100
AcDbSymbolTableRecord
100
AcDbDimStyleTableRecord
  2
ISO-25
 70
     0
  3

  4

  5

  6

  7

 40
1.0
 41
2.5
 42
0.625
 43
3.75
 44
1.25
 45
0.0
 46
0.0
 47
0.0
 48
0.0
140
2.5
141
2.5
142
0.0
143
0.03937007874016
144
1.0
145
0.0
146
1.0
147
0.625
 71
     0
 72
     0
 73
     0
 74
     0
 75
     0
 76
     0
 77
     1
 78
     8
170
     0
171
     3
172
     1
173
     0
174
     0
175
     0
176
     0
177
     0
178
     0
270
     2
271
     2
272
     2
273
     2
274
     3
340
11
275
     0
280
     0
281
     0
282
     0
283
     0
284
     8
285
     0
286
     0
287
     3
288
     0
  0
ENDTAB
  0
TABLE
  2
BLOCK_RECORD
  5
1
330
0
100
AcDbSymbolTable
 70
     1
  0
BLOCK_RECORD
  5
1F
330
1
100
AcDbSymbolTableRecord
100
AcDbBlockTableRecord
  2
*MODEL_SPACE
  0
BLOCK_RECORD
  5
1B
330
1
100
AcDbSymbolTableRecord
100
AcDbBlockTableRecord
  2
*PAPER_SPACE
  0
ENDTAB
  0
ENDSEC
  0
SECTION
  2
BLOCKS
  0
BLOCK
  5
20
330
1F
100
AcDbEntity
  8
0
100
AcDbBlockBegin
  2
*MODEL_SPACE
 70
     0
 10
0.0
 20
0.0
 30
0.0
  3
*MODEL_SPACE
  1

  0
ENDBLK
  5
21
330
1F
100
AcDbEntity
  8
0
100
AcDbBlockEnd
  0
BLOCK
  5
1C
330
1B
100
AcDbEntity
 67
     1
  8
0
100
AcDbBlockBegin
  2
*PAPER_SPACE
  1

  0
ENDBLK
  5
1D
330
1B
100
AcDbEntity
 67
     1
  8
0
100
AcDbBlockEnd
  0
ENDSEC
  0
SECTION
  2
ENTITIES
  0
LWPOLYLINE
  5
100
100
AcDbEntity
  8
Text
 62
7
100
AcDbPolyline
 90
45
 70
0
 10
-0.000000
 20
14.545671
 30
0.0
 10
-0.000000
 20
28.170691
 30
0.0
 10
-0.000000
 20
41.795711
 30
0.0
 10
-0.000000
 20
55.420734
 30
0.0
 10
-0.000000
 20
69.045754
 30
0.0
 10
5.100179
 20
69.045754
 30
0.0
 10
10.200359
 20
69.045754
 30
0.0
 10
15.300539
 20
69.045754
 30
0.0
 10
20.400719
 20
69.045754
 30
0.0
 10
27.666611
 20
68.201077
 30
0.0
 10
32.856543
 20
65.667080
 30
0.0
 10
35.970512
 20
61.443794
 30
0.0
 10
37.008525
 20
55.531204
 30
0.0
 10
36.832433
 20
53.065099
 30
0.0
 10
36.304226
 20
50.711783
 30
0.0
 10
35.423898
 20
48.471255
 30
0.0
 10
34.191456
 20
46.343514
 30
0.0
 10
32.650577
 20
44.392949
 30
0.0
 10
30.845023
 20
42.684062
 30
0.0
 10
28.774802
 20
41.216848
 30
0.0
 10
26.439921
 20
39.991301
 30
0.0
 10
30.895674
 20
33.629823
 30
0.0
 10
35.351426
 20
27.268345
 30
0.0
 10
39.807179
 20
20.906867
 30
0.0
 10
44.262932
 20
14.545389
 30
0.0
 10
40.810643
 20
14.545474
 30
0.0
 10
37.358357
 20
14.545530
 30
0.0
 10
33.906068
 20
14.545587
 30
0.0
 10
30.453782
 20
14.545671
 30
0.0
 10
27.075142
 20
20.115355
 30
0.0
 10
23.696503
 20
25.685039
 30
0.0
 10
20.317864
 20
31.254723
 30
0.0
 10
16.939225
 20
36.824406
 30
0.0
 10
15.374188
 20
36.824406
 30
0.0
 10
13.809151
 20
36.824406
 30
0.0
 10
12.244113
 20
36.824406
 30
0.0
 10
10.679076
 20
36.824406
 30
0.0
 10
10.679076
 20
31.254723
 30
0.0
 10
10.679076
 20
25.685039
 30
0.0
 10
10.679076
 20
20.115355
 30
0.0
 10
10.679076
 20
14.545671
 30
0.0
 10
8.009307
 20
14.545671
 30
0.0
 10
5.339538
 20
14.545671
 30
0.0
 10
2.669769
 20
14.545671
 30
0.0
 10
-0.000000
 20
14.545671
 30
0.0
  0
LWPOLYLINE
  5
101
100
AcDbEntity
  8
Text
 62
7
100
AcDbPolyline
 90
21
 70
0
 10
10.679076
 20
44.299759
 30
0.0
 10
11.332710
 20
44.299759
 30
0.0
 10
11.986343
 20
44.299759
 30
0.0
 10
12.639976
 20
44.299759
 30
0.0
 10
13.293610
 20
44.299759
 30
0.0
 10
18.690669
 20
44.923462
 30
0.0
 10
22.545717
 20
46.794589
 30
0.0
 10
24.858755
 20
49.913159
 30
0.0
 10
25.629784
 20
54.279173
 30
0.0
 10
24.941610
 20
57.469064
 30
0.0
 10
22.877137
 20
59.747565
 30
0.0
 10
19.436363
 20
61.114689
 30
0.0
 10
14.619288
 20
61.570407
 30
0.0
 10
13.634235
 20
61.570407
 30
0.0
 10
12.649182
 20
61.570407
 30
0.0
 10
11.664129
 20
61.570407
 30
0.0
 10
10.679076
 20
61.570407
 30
0.0
 10
10.679076
 20
57.252746
 30
0.0
 10
10.679076
 20
52.935082
 30
0.0
 10
10.679076
 20
48.617420
 30
0.0
 10
10.679076
 20
44.299759
 30
0.0
  0
LWPOLYLINE
  5
102
100
AcDbEntity
  8
Text
 62
7
100
AcDbPolyline
 90
45
 70
0
 10
84.917068
 20
15.908155
 30
0.0
 10
81.082710
 20
14.909289
 30
0.0
 10
77.349629
 20
14.195829
 30
0.0
 10
73.717830
 20
13.767726
 30
0.0
 10
70.187306
 20
13.625034
 30
0.0
 10
65.390920
 20
13.984077
 30
0.0
 10
61.128495
 20
15.061190
 30
0.0
 10
57.400029
 20
16.856383
 30
0.0
 10
54.205519
 20
19.369659
 30
0.0
 10
51.643932
 20
22.504332
 30
0.0
 10
49.814218
 20
26.163747
 30
0.0
 10
48.716384
 20
30.347912
 30
0.0
 10
48.350438
 20
35.056834
 30
0.0
 10
48.685309
 20
39.522928
 30
0.0
 10
49.689924
 20
43.531031
 30
0.0
 10
51.364286
 20
47.081138
 30
0.0
 10
53.708390
 20
50.173255
 30
0.0
 10
56.602540
 20
52.678451
 30
0.0
 10
59.927092
 20
54.467876
 30
0.0
 10
63.682039
 20
55.541539
 30
0.0
 10
67.867375
 20
55.899445
 30
0.0
 10
72.005500
 20
55.549591
 30
0.0
 10
75.545242
 20
54.500089
 30
0.0
 10
78.486595
 20
52.750937
 30
0.0
 10
80.829565
 20
50.302135
 30
0.0
 10
82.617829
 20
47.096093
 30
0.0
 10
83.895167
 20
43.075327
 30
0.0
 10
84.661581
 20
38.239830
 30
0.0
 10
84.917068
 20
32.589600
 30
0.0
 10
78.647713
 20
32.589600
 30
0.0
 10
72.378361
 20
32.589600
 30
0.0
 10
66.109006
 20
32.589600
 30
0.0
 10
59.839654
 20
32.589600
 30
0.0
 10
61.047946
 20
27.530840
 30
0.0
 10
63.568112
 20
23.917447
 30
0.0
 10
67.400153
 20
21.749425
 30
0.0
 10
72.544071
 20
21.026772
 30
0.0
 10
75.374929
 20
21.185550
 30
0.0
 10
78.380714
 20
21.661950
 30
0.0
 10
81.561426
 20
22.455973
 30
0.0
 10
84.917068
 20
23.567619
 30
0.0
 10
84.917068
 20
21.652752
 30
0.0
 10
84.917068
 20
19.737888
 30
0.0
 10
84.917068
 20
17.823022
 30
0.0
 10
84.917068
 20
15.908155
 30
0.0
  0
LWPOLYLINE
  5
103
100
AcDbEntity
  8
Text
 62
7
100
AcDbPolyline
 90
13
 70
0
 10
59.692357
 20
38.739276
 30
0.0
 10
63.319558
 20
38.739276
 30
0.0
 10
66.946763
 20
38.739276
 30
0.0
 10
70.573965
 20
38.739276
 30
0.0
 10
74.201170
 20
38.739276
 30
0.0
 10
73.784579
 20
43.266357
 30
0.0
 10
72.534845
 20
46.499992
 30
0.0
 10
70.451969
 20
48.440185
 30
0.0
 10
67.535953
 20
49.086934
 30
0.0
 10
64.504835
 20
48.440185
 30
0.0
 10
62.187198
 20
46.499992
 30
0.0
 10
60.583039
 20
43.266357
 30
0.0
 10
59.692357
 20
38.739276
 30
0.0
  0
LWPOLYLINE
  5
104
100
AcDbEntity
  8
Text
 62
7
100
AcDbPolyline
 90
45
 70
0
 10
96.185341
 20
-0.000006
 30
0.0
 10
96.185341
 20
13.744696
 30
0.0
 10
96.185341
 20
27.489415
 30
0.0
 10
96.185341
 20
41.234126
 30
0.0
 10
96.185341
 20
54.978836
 30
0.0
 10
98.910346
 20
54.978836
 30
0.0
 10
101.635354
 20
54.978836
 30
0.0
 10
104.360359
 20
54.978836
 30
0.0
 10
107.085364
 20
54.978836
 30
0.0
 10
107.085364
 20
53.073173
 30
0.0
 10
107.085364
 20
51.167510
 30
0.0
 10
107.085364
 20
49.261847
 30
0.0
 10
107.085364
 20
47.356183
 30
0.0
 10
109.485842
 20
51.093838
 30
0.0
 10
112.489327
 20
53.763599
 30
0.0
 10
116.095822
 20
55.365469
 30
0.0
 10
120.305328
 20
55.899445
 30
0.0
 10
123.756443
 20
55.565700
 30
0.0
 10
126.818613
 20
54.564531
 30
0.0
 10
129.491839
 20
52.895935
 30
0.0
 10
131.776123
 20
50.559908
 30
0.0
 10
133.604660
 20
47.639255
 30
0.0
 10
134.910768
 20
44.216884
 30
0.0
 10
135.694448
 20
40.292790
 30
0.0
 10
135.955696
 20
35.866973
 30
0.0
 10
135.661075
 20
31.042971
 30
0.0
 10
134.777280
 20
26.734522
 30
0.0
 10
133.304311
 20
22.941619
 30
0.0
 10
131.242173
 20
19.664251
 30
0.0
 10
128.685157
 20
17.022123
 30
0.0
 10
125.727691
 20
15.134926
 30
0.0
 10
122.369772
 20
14.002619
 30
0.0
 10
118.611402
 20
13.625203
 30
0.0
 10
115.018710
 20
13.625203
 30
0.0
 10
111.255717
 20
13.625203
 30
0.0
 10
108.289059
 20
13.625203
 30
0.0
 10
107.085364
 20
13.625203
 30
0.0
 10
107.085364
 20
10.218894
 30
0.0
 10
107.085364
 20
6.812585
 30
0.0
 10
107.085364
 20
3.406304
 30
0.0
 10
107.085364
 20
-0.000006
 30
0.0
 10
104.360359
 20
-0.000006
 30
0.0
 10
101.635354
 20
-0.000006
 30
0.0
 10
98.910346
 20
-0.000006
 30
0.0
 10
96.185341
 20
-0.000006
 30
0.0
  0
LWPOLYLINE
  5
105
100
AcDbEntity
  8
Text
 62
7
100
AcDbPolyline
 90
25
 70
0
 10
107.085364
 20
20.695491
 30
0.0
 10
107.990143
 20
20.707993
 30
0.0
 10
110.199314
 20
20.706582
 30
0.0
 10
112.968913
 20
20.699640
 30
0.0
 10
115.554972
 20
20.695463
 30
0.0
 10
117.460621
 20
20.938250
 30
0.0
 10
119.163744
 20
21.666623
 30
0.0
 10
120.664343
 20
22.880616
 30
0.0
 10
121.962424
 20
24.580252
 30
0.0
 10
123.009595
 20
26.684994
 30
0.0
 10
123.757583
 20
29.114256
 30
0.0
 10
124.206387
 20
31.868037
 30
0.0
 10
124.356007
 20
34.946336
 30
0.0
 10
123.856555
 20
40.375614
 30
0.0
 10
122.358254
 20
44.253678
 30
0.0
 10
119.861110
 20
46.580527
 30
0.0
 10
116.365113
 20
47.356155
 30
0.0
 10
113.976116
 20
46.967182
 30
0.0
 10
111.633161
 20
45.800304
 30
0.0
 10
109.336242
 20
43.855521
 30
0.0
 10
107.085364
 20
41.132833
 30
0.0
 10
107.085364
 20
36.023491
 30
0.0
 10
107.085364
 20
30.914148
 30
0.0
 10
107.085364
 20
25.804805
 30
0.0
 10
107.085364
 20
20.695491
 30
0.0
  0
LWPOLYLINE
  5
106
100
AcDbEntity
  8
Text
 62
7
100
AcDbPolyline
 90
45
 70
0
 10
146.119229
 20
14.545671
 30
0.0
 10
146.119229
 20
28.170691
 30
0.0
 10
146.119229
 20
41.795711
 30
0.0
 10
146.119229
 20
55.420734
 30
0.0
 10
146.119229
 20
69.045754
 30
0.0
 10
151.219408
 20
69.045754
 30
0.0
 10
156.319587
 20
69.045754
 30
0.0
 10
161.419766
 20
69.045754
 30
0.0
 10
166.519945
 20
69.045754
 30
0.0
 10
173.785840
 20
68.201077
 30
0.0
 10
178.975772
 20
65.667080
 30
0.0
 10
182.089744
 20
61.443794
 30
0.0
 10
183.127754
 20
55.531204
 30
0.0
 10
182.951665
 20
53.065099
 30
0.0
 10
182.423455
 20
50.711783
 30
0.0
 10
181.543130
 20
48.471255
 30
0.0
 10
180.310691
 20
46.343514
 30
0.0
 10
178.769795
 20
44.392957
 30
0.0
 10
176.964238
 20
42.684068
 30
0.0
 10
174.894026
 20
41.216851
 30
0.0
 10
172.559147
 20
39.991301
 30
0.0
 10
177.014900
 20
33.629894
 30
0.0
 10
181.470653
 20
27.268486
 30
0.0
 10
185.926405
 20
20.907079
 30
0.0
 10
190.382158
 20
14.545671
 30
0.0
 10
186.929872
 20
14.545671
 30
0.0
 10
183.477586
 20
14.545671
 30
0.0
 10
180.025297
 20
14.545671
 30
0.0
 10
176.573011
 20
14.545671
 30
0.0
 10
173.194373
 20
20.115355
 30
0.0
 10
169.815733
 20
25.685039
 30
0.0
 10
166.437096
 20
31.254723
 30
0.0
 10
163.058455
 20
36.824406
 30
0.0
 10
161.493417
 20
36.824406
 30
0.0
 10
159.928379
 20
36.824406
 30
0.0
 10
158.363339
 20
36.824406
 30
0.0
 10
156.798301
 20
36.824406
 30
0.0
 10
156.798301
 20
31.254723
 30
0.0
 10
156.798301
 20
25.685039
 30
0.0
 10
156.798301
 20
20.115355
 30
0.0
 10
156.798301
 20
14.545671
 30
0.0
 10
154.128532
 20
14.545671
 30
0.0
 10
151.458766
 20
14.545671
 30
0.0
 10
148.788998
 20
14.545671
 30
0.0
 10
146.119229
 20
14.545671
 30
0.0
  0
LWPOLYLINE
  5
107
100
AcDbEntity
  8
Text
 62
7
100
AcDbPolyline
 90
21
 70
0
 10
156.798301
 20
44.299759
 30
0.0
 10
157.451936
 20
44.299759
 30
0.0
 10
158.105568
 20
44.299759
 30
0.0
 10
158.759203
 20
44.299759
 30
0.0
 10
159.412836
 20
44.299759
 30
0.0
 10
164.809895
 20
44.923462
 30
0.0
 10
168.664946
 20
46.794589
 30
0.0
 10
170.977983
 20
49.913159
 30
0.0
 10
171.749014
 20
54.279173
 30
0.0
 10
171.060841
 20
57.469064
 30
0.0
 10
168.996366
 20
59.747565
 30
0.0
 10
165.555591
 20
61.114689
 30
0.0
 10
160.738515
 20
61.570407
 30
0.0
 10
159.753461
 20
61.570407
 30
0.0
 10
158.768409
 20
61.570407
 30
0.0
 10
157.783355
 20
61.570407
 30
0.0
 10
156.798301
 20
61.570407
 30
0.0
 10
156.798301
 20
57.252746
 30
0.0
 10
156.798301
 20
52.935082
 30
0.0
 10
156.798301
 20
48.617420
 30
0.0
 10
156.798301
 20
44.299759
 30
0.0
  0
LWPOLYLINE
  5
108
100
AcDbEntity
  8
Text
 62
7
100
AcDbPolyline
 90
77
 70
0
 10
217.926813
 20
18.890914
 30
0.0
 10
215.153463
 20
16.587083
 30
0.0
 10
212.283461
 20
14.941496
 30
0.0
 10
209.316800
 20
13.954162
 30
0.0
 10
206.253481
 20
13.625034
 30
0.0
 10
203.726398
 20
13.827557
 30
0.0
 10
201.447888
 20
14.435153
 30
0.0
 10
199.417946
 20
15.447814
 30
0.0
 10
197.636573
 20
16.865546
 30
0.0
 10
196.186611
 20
18.605511
 30
0.0
 10
195.150923
 20
20.584837
 30
0.0
 10
194.529510
 20
22.803519
 30
0.0
 10
194.322370
 20
25.261545
 30
0.0
 10
194.657241
 20
28.420379
 30
0.0
 10
195.661859
 20
31.194863
 30
0.0
 10
197.336218
 20
33.585000
 30
0.0
 10
199.680322
 20
35.590790
 30
0.0
 10
202.648123
 20
37.177689
 30
0.0
 10
206.193621
 20
38.311184
 30
0.0
 10
210.316812
 20
38.991289
 30
0.0
 10
215.017689
 20
39.217995
 30
0.0
 10
215.744970
 20
39.217995
 30
0.0
 10
216.472251
 20
39.217995
 30
0.0
 10
217.199532
 20
39.217995
 30
0.0
 10
217.926813
 20
39.217995
 30
0.0
 10
217.926813
 20
40.138604
 30
0.0
 10
217.926813
 20
41.059213
 30
0.0
 10
217.926813
 20
41.979825
 30
0.0
 10
217.926813
 20
42.900433
 30
0.0
 10
217.478006
 20
45.655340
 30
0.0
 10
216.131606
 20
47.623137
 30
0.0
 10
213.887626
 20
48.803825
 30
0.0
 10
210.746058
 20
49.197404
 30
0.0
 10
207.551531
 20
48.971838
 30
0.0
 10
204.338600
 20
48.295182
 30
0.0
 10
201.107263
 20
47.167442
 30
0.0
 10
197.857514
 20
45.588611
 30
0.0
 10
197.857514
 20
47.466656
 30
0.0
 10
197.857514
 20
49.344701
 30
0.0
 10
197.857514
 20
51.222746
 30
0.0
 10
197.857514
 20
53.100791
 30
0.0
 10
201.549152
 20
54.325181
 30
0.0
 10
205.222385
 20
55.199751
 30
0.0
 10
208.877208
 20
55.724507
 30
0.0
 10
212.513630
 20
55.899445
 30
0.0
 10
219.457310
 20
55.109999
 30
0.0
 10
224.417088
 20
52.741723
 30
0.0
 10
227.392972
 20
48.794616
 30
0.0
 10
228.384941
 20
43.268674
 30
0.0
 10
228.384941
 20
38.794507
 30
0.0
 10
228.384941
 20
34.320339
 30
0.0
 10
228.384941
 20
29.846171
 30
0.0
 10
228.384941
 20
25.372004
 30
0.0
 10
228.575946
 20
23.293722
 30
0.0
 10
229.149021
 20
21.809233
 30
0.0
 10
230.104163
 20
20.918540
 30
0.0
 10
231.441371
 20
20.621642
 30
0.0
 10
231.738243
 20
20.630871
 30
0.0
 10
232.076560
 20
20.658528
 30
0.0
 10
232.456318
 20
20.704573
 30
0.0
 10
232.877521
 20
20.768965
 30
0.0
 10
232.941963
 20
19.240757
 30
0.0
 10
233.006406
 20
17.712552
 30
0.0
 10
233.070849
 20
16.184344
 30
0.0
 10
233.135291
 20
14.656133
 30
0.0
 10
231.455158
 20
14.205029
 30
0.0
 10
229.876305
 20
13.882816
 30
0.0
 10
228.398733
 20
13.689465
 30
0.0
 10
227.022440
 20
13.625034
 30
0.0
 10
223.970602
 20
13.954162
 30
0.0
 10
221.517170
 20
14.941499
 30
0.0
 10
219.662149
 20
16.587086
 30
0.0
 10
218.405532
 20
18.890917
 30
0.0
 10
218.285853
 20
18.890917
 30
0.0
 10
218.166171
 20
18.890917
 30
0.0
 10
218.046492
 20
18.890917
 30
0.0
 10
217.926813
 20
18.890914
 30
0.0
  0
LWPOLYLINE
  5
109
100
AcDbEntity
  8
Text
 62
7
100
AcDbPolyline
 90
25
 70
0
 10
217.926813
 20
24.745992
 30
0.0
 10
217.926813
 20
26.798956
 30
0.0
 10
217.926813
 20
28.851916
 30
0.0
 10
217.926813
 20
30.904877
 30
0.0
 10
217.926813
 20
32.957841
 30
0.0
 10
217.282387
 20
32.957841
 30
0.0
 10
216.637960
 20
32.957841
 30
0.0
 10
215.993534
 20
32.957841
 30
0.0
 10
215.349108
 20
32.957841
 30
0.0
 10
210.725334
 20
32.543561
 30
0.0
 10
207.422643
 20
31.300733
 30
0.0
 10
205.441034
 20
29.229372
 30
0.0
 10
204.780501
 20
26.329473
 30
0.0
 10
204.876013
 20
25.251198
 30
0.0
 10
205.162551
 20
24.262681
 30
0.0
 10
205.640116
 20
23.363933
 30
0.0
 10
206.308714
 20
22.554960
 30
0.0
 10
207.117690
 20
21.886359
 30
0.0
 10
208.016433
 20
21.408791
 30
0.0
 10
209.004941
 20
21.122259
 30
0.0
 10
210.083217
 20
21.026772
 30
0.0
 10
212.009581
 20
21.259199
 30
0.0
 10
213.958969
 20
21.956547
 30
0.0
 10
215.931377
 20
23.118815
 30
0.0
 10
217.926813
 20
24.745992
 30
0.0
  0
LWPOLYLINE
  5
10a
100
AcDbEntity
  8
Text
 62
7
100
AcDbPolyline
 90
45
 70
0
 10
242.451867
 20
-0.000006
 30
0.0
 10
242.451867
 20
13.744696
 30
0.0
 10
242.451867
 20
27.489415
 30
0.0
 10
242.451867
 20
41.234126
 30
0.0
 10
242.451867
 20
54.978836
 30
0.0
 10
245.176873
 20
54.978836
 30
0.0
 10
247.901878
 20
54.978836
 30
0.0
 10
250.626886
 20
54.978836
 30
0.0
 10
253.351891
 20
54.978836
 30
0.0
 10
253.351891
 20
53.073173
 30
0.0
 10
253.351891
 20
51.167510
 30
0.0
 10
253.351891
 20
49.261847
 30
0.0
 10
253.351891
 20
47.356183
 30
0.0
 10
255.752369
 20
51.093838
 30
0.0
 10
258.755854
 20
53.763599
 30
0.0
 10
262.362346
 20
55.365469
 30
0.0
 10
266.571851
 20
55.899445
 30
0.0
 10
270.022966
 20
55.565700
 30
0.0
 10
273.085137
 20
54.564531
 30
0.0
 10
275.758365
 20
52.895935
 30
0.0
 10
278.042652
 20
50.559908
 30
0.0
 10
279.871190
 20
47.639255
 30
0.0
 10
281.177294
 20
44.216884
 30
0.0
 10
281.960972
 20
40.292790
 30
0.0
 10
282.222222
 20
35.866973
 30
0.0
 10
281.927599
 20
31.042971
 30
0.0
 10
281.043806
 20
26.734522
 30
0.0
 10
279.570838
 20
22.941619
 30
0.0
 10
277.508696
 20
19.664251
 30
0.0
 10
274.951681
 20
17.022123
 30
0.0
 10
271.994215
 20
15.134926
 30
0.0
 10
268.636298
 20
14.002619
 30
0.0
 10
264.877925
 20
13.625203
 30
0.0
 10
261.284974
 20
13.620688
 30
0.0
 10
257.521549
 20
13.613068
 30
0.0
 10
254.554804
 20
13.610246
 30
0.0
 10
253.351891
 20
13.623792
 30
0.0
 10
253.351891
 20
10.217483
 30
0.0
 10
253.351891
 20
6.811174
 30
0.0
 10
253.351891
 20
3.404893
 30
0.0
 10
253.351891
 20
-0.001417
 30
0.0
 10
250.626886
 20
-0.001417
 30
0.0
 10
247.901881
 20
-0.001417
 30
0.0
 10
245.176873
 20
-0.001417
 30
0.0
 10
242.451867
 20
-0.000006
 30
0.0
  0
LWPOLYLINE
  5
10b
100
AcDbEntity
  8
Text
 62
7
100
AcDbPolyline
 90
25
 70
0
 10
253.351891
 20
20.695491
 30
0.0
 10
254.254085
 20
20.695491
 30
0.0
 10
256.463543
 20
20.695491
 30
0.0
 10
259.234579
 20
20.695491
 30
0.0
 10
261.821501
 20
20.695491
 30
0.0
 10
263.727147
 20
20.938278
 30
0.0
 10
265.430268
 20
21.666652
 30
0.0
 10
266.930869
 20
22.880645
 30
0.0
 10
268.228947
 20
24.580280
 30
0.0
 10
269.276122
 20
26.685023
 30
0.0
 10
270.024112
 20
29.114284
 30
0.0
 10
270.472913
 20
31.868065
 30
0.0
 10
270.622530
 20
34.946364
 30
0.0
 10
270.123082
 20
40.375642
 30
0.0
 10
268.624787
 20
44.253706
 30
0.0
 10
266.127639
 20
46.580555
 30
0.0
 10
262.631640
 20
47.356183
 30
0.0
 10
260.242643
 20
46.967211
 30
0.0
 10
257.899687
 20
45.800332
 30
0.0
 10
255.602768
 20
43.855550
 30
0.0
 10
253.351891
 20
41.132862
 30
0.0
 10
253.351891
 20
36.023519
 30
0.0
 10
253.351891
 20
30.914176
 30
0.0
 10
253.351891
 20
25.804834
 30
0.0
 10
253.351891
 20
20.695491
 30
0.0
  0
LWPOLYLINE
  5
10c
100
AcDbEntity
  8
Cutouts
 62
7
100
AcDbPolyline
 90
29
 70
0
 10
9.551458
 20
62.138187
 30
0.0
 10
9.551458
 20
57.391122
 30
0.0
 10
9.551458
 20
52.644057
 30
0.0
 10
9.551458
 20
47.896989
 30
0.0
 10
9.551458
 20
43.149924
 30
0.0
 10
12.241950
 20
43.226434
 30
0.0
 10
14.948725
 20
43.353214
 30
0.0
 10
17.619478
 20
43.687932
 30
0.0
 10
20.201903
 20
44.388264
 30
0.0
 10
22.168702
 20
45.378127
 30
0.0
 10
23.801691
 20
46.818338
 30
0.0
 10
25.101422
 20
48.587443
 30
0.0
 10
26.068448
 20
50.564003
 30
0.0
 10
26.451747
 20
52.156611
 30
0.0
 10
26.649726
 20
53.777174
 30
0.0
 10
26.585565
 20
55.399669
 30
0.0
 10
26.182444
 20
56.998083
 30
0.0
 10
24.667694
 20
59.370318
 30
0.0
 10
22.455005
 20
61.079817
 30
0.0
 10
19.811248
 20
62.114690
 30
0.0
 10
17.003297
 20
62.463048
 30
0.0
 10
15.144982
 20
62.622407
 30
0.0
 10
13.281813
 20
62.678855
 30
0.0
 10
11.416425
 20
62.689494
 30
0.0
 10
9.551458
 20
62.711451
 30
0.0
 10
9.551458
 20
62.568136
 30
0.0
 10
9.551458
 20
62.424821
 30
0.0
 10
9.551458
 20
62.281503
 30
0.0
 10
9.551458
 20
62.138187
 30
0.0
  0
LWPOLYLINE
  5
10d
100
AcDbEntity
  8
Cutouts
 62
7
100
AcDbPolyline
 90
21
 70
0
 10
67.301181
 20
50.187840
 30
0.0
 10
65.355399
 20
49.765641
 30
0.0
 10
63.555541
 20
48.947155
 30
0.0
 10
62.005134
 20
47.738688
 30
0.0
 10
60.807702
 20
46.146548
 30
0.0
 10
59.802406
 20
44.168105
 30
0.0
 10
59.152728
 20
42.042266
 30
0.0
 10
58.801960
 20
39.834761
 30
0.0
 10
58.693403
 20
37.611312
 30
0.0
 10
62.878228
 20
37.611312
 30
0.0
 10
67.063056
 20
37.611312
 30
0.0
 10
71.247883
 20
37.611312
 30
0.0
 10
75.432708
 20
37.611312
 30
0.0
 10
75.245225
 20
40.011898
 30
0.0
 10
74.915516
 20
42.402568
 30
0.0
 10
74.346407
 20
44.730941
 30
0.0
 10
73.440736
 20
46.944624
 30
0.0
 10
72.268167
 20
48.324759
 30
0.0
 10
70.775446
 20
49.292191
 30
0.0
 10
69.080482
 20
49.896643
 30
0.0
 10
67.301181
 20
50.187840
 30
0.0
  0
LWPOLYLINE
  5
10e
100
AcDbEntity
  8
Cutouts
 62
7
100
AcDbPolyline
 90
33
 70
0
 10
116.072708
 20
48.441590
 30
0.0
 10
114.171976
 20
47.681978
 30
0.0
 10
112.210760
 20
47.011663
 30
0.0
 10
110.395055
 20
46.123947
 30
0.0
 10
108.930858
 20
44.712122
 30
0.0
 10
107.923638
 20
43.620278
 30
0.0
 10
106.826640
 20
42.563271
 30
0.0
 10
106.038241
 20
41.383162
 30
0.0
 10
105.956806
 20
39.922007
 30
0.0
 10
105.956806
 20
34.830983
 30
0.0
 10
105.956806
 20
29.739960
 30
0.0
 10
105.956806
 20
24.648933
 30
0.0
 10
105.956806
 20
19.557910
 30
0.0
 10
109.060669
 20
19.536941
 30
0.0
 10
112.182456
 20
19.562990
 30
0.0
 10
115.282630
 20
19.729808
 30
0.0
 10
118.321667
 20
20.131159
 30
0.0
 10
119.645963
 20
21.402438
 30
0.0
 10
120.998406
 20
22.658801
 30
0.0
 10
122.326578
 20
23.927957
 30
0.0
 10
123.578056
 20
25.237618
 30
0.0
 10
124.261451
 20
27.917981
 30
0.0
 10
124.936837
 20
30.599338
 30
0.0
 10
125.378216
 20
33.309608
 30
0.0
 10
125.359589
 20
36.076715
 30
0.0
 10
125.121306
 20
38.752667
 30
0.0
 10
124.626531
 20
41.419224
 30
0.0
 10
123.660930
 20
43.900192
 30
0.0
 10
122.010170
 20
46.019379
 30
0.0
 10
120.771570
 20
47.080901
 30
0.0
 10
119.293092
 20
47.816338
 30
0.0
 10
117.688789
 20
48.258846
 30
0.0
 10
116.072708
 20
48.441590
 30
0.0
  0
LWPOLYLINE
  5
10f
100
AcDbEntity
  8
Cutouts
 62
7
100
AcDbPolyline
 90
29
 70
0
 10
155.672014
 20
62.138187
 30
0.0
 10
155.672014
 20
57.391122
 30
0.0
 10
155.672014
 20
52.644057
 30
0.0
 10
155.672014
 20
47.896989
 30
0.0
 10
155.672014
 20
43.149924
 30
0.0
 10
158.362506
 20
43.226434
 30
0.0
 10
161.069280
 20
43.353214
 30
0.0
 10
163.740033
 20
43.687932
 30
0.0
 10
166.322460
 20
44.388264
 30
0.0
 10
168.287742
 20
45.377461
 30
0.0
 10
169.917313
 20
46.818858
 30
0.0
 10
171.215530
 20
48.588064
 30
0.0
 10
172.186752
 20
50.560698
 30
0.0
 10
172.571901
 20
52.153620
 30
0.0
 10
172.770354
 20
53.775136
 30
0.0
 10
172.706067
 20
55.398780
 30
0.0
 10
172.303000
 20
56.998083
 30
0.0
 10
170.788251
 20
59.370318
 30
0.0
 10
168.575561
 20
61.079817
 30
0.0
 10
165.931805
 20
62.114690
 30
0.0
 10
163.123852
 20
62.463048
 30
0.0
 10
161.265537
 20
62.622407
 30
0.0
 10
159.402368
 20
62.678855
 30
0.0
 10
157.536981
 20
62.689494
 30
0.0
 10
155.672014
 20
62.711451
 30
0.0
 10
155.672014
 20
62.568136
 30
0.0
 10
155.672014
 20
62.424821
 30
0.0
 10
155.672014
 20
62.281503
 30
0.0
 10
155.672014
 20
62.138187
 30
0.0
  0
LWPOLYLINE
  5
110
100
AcDbEntity
  8
Cutouts
 62
7
100
AcDbPolyline
 90
33
 70
0
 10
218.484097
 20
34.083535
 30
0.0
 10
215.525237
 20
34.021008
 30
0.0
 10
212.534379
 20
33.882959
 30
0.0
 10
209.643653
 20
33.346040
 30
0.0
 10
206.985179
 20
32.086900
 30
0.0
 10
205.543573
 20
30.908608
 30
0.0
 10
204.510346
 20
29.409334
 30
0.0
 10
203.895449
 20
27.685266
 30
0.0
 10
203.708821
 20
25.832596
 30
0.0
 10
204.282043
 20
24.577511
 30
0.0
 10
205.005886
 20
23.356192
 30
0.0
 10
205.778611
 20
22.146156
 30
0.0
 10
206.498472
 20
20.924924
 30
0.0
 10
208.375069
 20
20.652763
 30
0.0
 10
210.260410
 20
20.293333
 30
0.0
 10
212.108469
 20
20.243377
 30
0.0
 10
213.873218
 20
20.899636
 30
0.0
 10
215.306173
 20
21.484305
 30
0.0
 10
216.599031
 20
22.314225
 30
0.0
 10
217.825015
 20
23.261173
 30
0.0
 10
219.057361
 20
24.196935
 30
0.0
 10
219.057361
 20
26.670787
 30
0.0
 10
219.057361
 20
29.144643
 30
0.0
 10
219.057361
 20
31.618496
 30
0.0
 10
219.057361
 20
34.092351
 30
0.0
 10
218.914046
 20
34.090094
 30
0.0
 10
218.770728
 20
34.087836
 30
0.0
 10
218.627412
 20
34.085578
 30
0.0
 10
218.484097
 20
34.083320
 30
0.0
 10
218.484097
 20
34.083317
 30
0.0
 10
218.484097
 20
34.083315
 30
0.0
 10
218.484097
 20
34.083312
 30
0.0
 10
218.484097
 20
34.083535
 30
0.0
  0
LWPOLYLINE
  5
111
100
AcDbEntity
  8
Cutouts
 62
7
100
AcDbPolyline
 90
33
 70
0
 10
262.343194
 20
48.441590
 30
0.0
 10
260.442462
 20
47.681978
 30
0.0
 10
258.481246
 20
47.011663
 30
0.0
 10
256.665541
 20
46.123947
 30
0.0
 10
255.201344
 20
44.712122
 30
0.0
 10
254.194124
 20
43.620278
 30
0.0
 10
253.097126
 20
42.563271
 30
0.0
 10
252.308727
 20
41.383162
 30
0.0
 10
252.227292
 20
39.922007
 30
0.0
 10
252.227292
 20
34.833187
 30
0.0
 10
252.227292
 20
29.744368
 30
0.0
 10
252.227292
 20
24.655549
 30
0.0
 10
252.227292
 20
19.566729
 30
0.0
 10
255.331143
 20
19.541414
 30
0.0
 10
258.452922
 20
19.564104
 30
0.0
 10
261.553099
 20
19.729227
 30
0.0
 10
264.592153
 20
20.131165
 30
0.0
 10
265.949608
 20
21.460378
 30
0.0
 10
267.384256
 20
22.745835
 30
0.0
 10
268.751998
 20
24.068984
 30
0.0
 10
269.908737
 20
25.511277
 30
0.0
 10
270.557117
 20
28.055003
 30
0.0
 10
271.208985
 20
30.598308
 30
0.0
 10
271.641062
 20
33.168900
 30
0.0
 10
271.630084
 20
35.794498
 30
0.0
 10
271.448818
 20
38.189487
 30
0.0
 10
271.095066
 20
40.596179
 30
0.0
 10
270.400467
 20
42.891797
 30
0.0
 10
269.196656
 20
44.953569
 30
0.0
 10
267.862030
 20
46.449923
 30
0.0
 10
266.197252
 20
47.528836
 30
0.0
 10
264.318818
 20
48.192117
 30
0.0
 10
262.343194
 20
48.441590
 30
0.0
  0
ENDSEC
  0
SECTION
  2
OBJECTS
  0
DICTIONARY
  5
C
330
0
100
AcDbDictionary
  3
ACAD_GROUP
350
D
  3
ACAD_MLINESTYLE
350
17
  0
DICTIONARY
  5
D
330
C
100
AcDbDictionary
  0
DICTIONARY
  5
1A
330
C
100
AcDbDictionary
  0
DICTIONARY
  5
17
330
C
100
AcDbDictionary
  3
STANDARD
350
18
  0
DICTIONARY
  5
19
330
C
100
AcDbDictionary
  0
ENDSEC
  0
EOF
