<?xml version="1.0" encoding="UTF-8" standalone="no"?>
<!-- Created with Inkscape (http://www.inkscape.org/) -->

<svg
   xmlns:dc="http://purl.org/dc/elements/1.1/"
   xmlns:cc="http://creativecommons.org/ns#"
   xmlns:rdf="http://www.w3.org/1999/02/22-rdf-syntax-ns#"
   xmlns:svg="http://www.w3.org/2000/svg"
   xmlns="http://www.w3.org/2000/svg"
   xmlns:sodipodi="http://sodipodi.sourceforge.net/DTD/sodipodi-0.dtd"
   xmlns:inkscape="http://www.inkscape.org/namespaces/inkscape"
   width="744.09448"
   height="1052.3622"
   id="svg2"
   version="1.1"
   inkscape:version="0.48.1 r9760"
   sodipodi:docname="RepRap.svg">
  <defs
     id="defs4" />
  <sodipodi:namedview
     id="base"
     pagecolor="#ffffff"
     bordercolor="#666666"
     borderopacity="1.0"
     inkscape:pageopacity="0.0"
     inkscape:pageshadow="2"
     inkscape:zoom="4.8705134"
     inkscape:cx="65.754582"
     inkscape:cy="19.131283"
     inkscape:document-units="px"
     inkscape:current-layer="g3011"
     showgrid="true"
     inkscape:window-width="1280"
     inkscape:window-height="723"
     inkscape:window-x="0"
     inkscape:window-y="0"
     inkscape:window-maximized="1"
     units="mm" />
  <metadata
     id="metadata7">
    <rdf:RDF>
      <cc:Work
         rdf:about="">
        <dc:format>image/svg+xml</dc:format>
        <dc:type
           rdf:resource="http://purl.org/dc/dcmitype/StillImage" />
        <dc:title></dc:title>
      </cc:Work>
    </rdf:RDF>
  </metadata>
  <g
     inkscape:label="Text"
     inkscape:groupmode="layer"
     id="layer1"
     style="display:inline"
     sodipodi:insensitive="true">
    <g
       style="font-size:40px;font-style:normal;font-variant:normal;font-weight:bold;font-stretch:normal;line-height:125%;letter-spacing:0px;word-spacing:0px;fill:#000000;fill-opacity:1;stroke:none;font-family:BiauKai;-inkscape-font-specification:Sans Bold"
       id="text3939">
      <g
         style="line-height:125%;fill:#000000;font-family:BiauKai;-inkscape-font-specification:Sans Bold"
         id="text4121">
        <path
           d="m 7.4785156,1035.1766 1.4184484,-0.1538 0.946786,-0.4614 0.543447,-0.8134 0.181162,-1.21 -0.181162,-1.1963 -0.543447,-0.7998 -0.946786,-0.4512 -1.4184484,-0.1504 -1.1074219,0 -1.1074218,0 0,2.6182 0,2.6181 1.1074218,0 1.1074219,0 m -2.2148437,3.6368 0,3.8623 0,3.8623 -2.6318359,0 -2.631836,0 0,-10.206 0,-10.2061 4.0195312,0 4.0195313,0 3.4931535,0.3384 2.413097,1.0151 1.415025,1.7466 0.471693,2.5327 -0.246107,1.8423 -0.738268,1.4799 -1.220227,1.1279 -1.719226,0.7862 1.021961,0.4034 0.905774,0.7177 0.864733,1.0869 0.871595,1.5381 1.42871,2.8984 1.428711,2.8985 -2.802734,0 -2.802734,0 -1.244141,-2.5361 -1.24414,-2.5362 -0.7587986,-1.2886 -0.7724519,-0.8032 -0.8955157,-0.4204 -1.1552656,-0.1401 -0.7451172,0 -0.7451171,0"
           style="font-size:28px;text-align:start;line-height:125%;writing-mode:lr-tb;text-anchor:start;font-family:Sans;-inkscape-font-specification:Sans Bold"
           id="path4126"
           inkscape:connector-curvature="0"
           sodipodi:nodetypes="cccccccccccccccccccccccccccccccccccccccccccccccc" />
        <path
           d="m 36.613281,1038.8407 0,0.6973 0,0.6972 -5.72168,0 -5.721679,0 0.399897,1.5074 0.844243,1.0766 1.278316,0.646 1.702153,0.2153 1.562003,-0.1127 1.5962,-0.3384 1.64745,-0.5811 1.688488,-0.8135 0,1.8868 0,1.8867 -1.73634,0.5742 -1.736316,0.4102 -1.736337,0.2563 -1.73632,0.085 -3.694829,-0.5263 -2.771968,-1.5791 -1.722657,-2.543 -0.574218,-3.3906 0.563965,-3.3462 1.691895,-2.5464 2.693355,-1.6099 3.54102,-0.5366 3.247061,0.5435 2.52247,1.6304 1.630358,2.5395 0.54347,3.271 m -5.03125,-1.627 -0.205087,-1.2577 -0.615225,-0.9844 -0.933114,-0.646 -1.186027,-0.2154 -1.28858,0.2017 -1.021967,0.605 -0.721196,0.9707 -0.386226,1.3261 3.178711,0 3.178711,0"
           style="font-size:28px;text-align:start;line-height:125%;writing-mode:lr-tb;text-anchor:start;font-family:Sans;-inkscape-font-specification:Sans Bold"
           id="path4128"
           inkscape:connector-curvature="0"
           sodipodi:nodetypes="cccccccccccccccccccccccccccccccccccccccccc" />
        <path
           d="m 45.199219,1044.3231 0,4.0196 0,4.0195 -2.447266,0 -2.447266,0 0,-10.5683 0,-10.5684 2.447266,0 2.447266,0 0,1.1211 0,1.1211 1.0664,-1.1622 1.175787,-0.8066 1.322746,-0.4819 1.507332,-0.1607 2.577138,0.564 2.0713,1.6919 1.363755,2.5669 0.454604,3.2163 -0.454604,3.2198 -1.363755,2.5771 -2.0713,1.6816 -2.577138,0.5605 -1.507332,-0.1572 -1.322746,-0.4717 -1.175787,-0.8168 -1.0664,-1.1656 m 3.253906,-9.9121 -1.39112,0.2905 -1.028802,0.8716 -0.625493,1.4048 -0.208491,1.9175 0.208496,1.9209 0.625488,1.415 1.028802,0.8614 1.39112,0.2871 1.384269,-0.2871 1.008309,-0.8614 0.625478,-1.4082 0.208506,-1.9277 -0.208506,-1.9277 -0.625478,-1.4083 -1.008309,-0.8613 -1.384269,-0.2871"
           style="font-size:28px;text-align:start;line-height:125%;writing-mode:lr-tb;text-anchor:start;font-family:Sans;-inkscape-font-specification:Sans Bold"
           id="path4130"
           inkscape:connector-curvature="0"
           sodipodi:nodetypes="cccccccccccccccccccccccccccccccccccccccccccc" />
        <path
           d="m 68.072266,1035.1766 1.418448,-0.1538 0.946786,-0.4614 0.543447,-0.8134 0.181162,-1.21 -0.181162,-1.1963 -0.543447,-0.7998 -0.946786,-0.4512 -1.418448,-0.1504 -1.107422,0 -1.107422,0 0,2.6182 0,2.6181 1.107422,0 1.107422,0 m -2.214844,3.6368 0,3.8623 0,3.8623 -2.631836,0 -2.631836,0 0,-10.206 0,-10.2061 4.019531,0 4.019531,0 3.493154,0.3384 2.413096,1.0151 1.415026,1.7466 0.471693,2.5327 -0.246107,1.8423 -0.738268,1.4799 -1.220227,1.1279 -1.719226,0.7862 1.021961,0.4034 0.905773,0.7177 0.864734,1.0869 0.871595,1.5381 1.428711,2.8984 1.42871,2.8985 -2.802734,0 -2.802734,0 -1.244141,-2.5361 -1.244141,-2.5362 -0.758798,-1.2886 -0.772452,-0.8032 -0.895515,-0.4204 -1.155266,-0.1401 -0.745117,0 -0.745117,0"
           style="font-size:28px;text-align:start;line-height:125%;writing-mode:lr-tb;text-anchor:start;font-family:Sans;-inkscape-font-specification:Sans Bold"
           id="path4132"
           inkscape:connector-curvature="0"
           sodipodi:nodetypes="cccccccccccccccccccccccccccccccccccccccccccccccc" />
        <path
           d="m 88.785156,1039.6473 -1.343267,0.1299 -0.96728,0.3897 -0.574223,0.6425 -0.191402,0.8887 0.153804,0.8306 0.461431,0.6323 0.748529,0.3897 0.987799,0.1298 1.271477,-0.2461 1.052742,-0.7382 0.70751,-1.1211 0.235849,-1.3672 0,-0.2803 0,-0.2803 -1.271485,0 -1.271484,0 m 7.478516,-1.8457 0,4.3682 0,4.3682 -2.467774,0 -2.467773,0 0,-1.1348 0,-1.1348 -1.045907,1.2066 -1.168937,0.8305 -1.363776,0.4717 -1.630364,0.1572 -2.156742,-0.3452 -1.712399,-1.0356 -1.107423,-1.5996 -0.36914,-2.0098 0.461426,-2.3345 1.384278,-1.6167 2.385738,-0.9433 3.43848,-0.3145 1.442383,0 1.442383,0 0,-0.1914 0,-0.1914 -0.229013,-1.0049 -0.687003,-0.6904 -1.17237,-0.4102 -1.685052,-0.1367 -1.517583,0.079 -1.408198,0.2359 -1.305666,0.3931 -1.209959,0.5502 0,-1.8662 0,-1.8662 1.575681,-0.335 1.582522,-0.2392 1.585932,-0.1538 1.585943,-0.051 3.564932,0.4102 2.409678,1.2304 1.384265,2.1397 0.461438,3.165"
           style="font-size:28px;text-align:start;line-height:125%;writing-mode:lr-tb;text-anchor:start;font-family:Sans;-inkscape-font-specification:Sans Bold"
           id="path4134"
           inkscape:connector-curvature="0"
           sodipodi:nodetypes="cccccccccccccccccccccccccccccccccccccccccccccccccccccccccc" />
        <path
           d="m 105.73828,1044.3231 0,4.0196 0,4.0195 -2.44726,0 -2.44727,0 0,-10.5683 0,-10.5684 2.44727,0 2.44726,0 0,1.1211 0,1.1211 1.0664,-1.1622 1.17579,-0.8066 1.32274,-0.4819 1.50734,-0.1607 2.57713,0.564 2.0713,1.6919 1.36376,2.5669 0.4546,3.2163 -0.4546,3.2198 -1.36376,2.5771 -2.0713,1.6816 -2.57713,0.5605 -1.50734,-0.1572 -1.32274,-0.4717 -1.17579,-0.8168 -1.0664,-1.1656 m 3.25391,-9.9121 -1.39112,0.2905 -1.0288,0.8716 -0.6255,1.4048 -0.20849,1.9175 0.20849,1.9209 0.6255,1.415 1.0288,0.8614 1.39112,0.2871 1.38427,-0.2871 1.00831,-0.8614 0.62547,-1.4082 0.20851,-1.9277 -0.20851,-1.9277 -0.62547,-1.4083 -1.00831,-0.8613 -1.38427,-0.2871"
           style="font-size:28px;text-align:start;line-height:125%;writing-mode:lr-tb;text-anchor:start;font-family:Sans;-inkscape-font-specification:Sans Bold"
           id="path4136"
           inkscape:connector-curvature="0"
           sodipodi:nodetypes="cccccccccccccccccccccccccccccccccccccccccccc" />
      </g>
    </g>
  </g>
  <g
     style="display:inline"
     id="g3007"
     inkscape:groupmode="layer"
     inkscape:label="Cutout">
    <g
       id="g3009"
       style="font-size:40px;font-style:normal;font-variant:normal;font-weight:bold;font-stretch:normal;line-height:125%;letter-spacing:0px;word-spacing:0px;fill:#000000;fill-opacity:1;stroke:none;font-family:BiauKai;-inkscape-font-specification:Sans Bold">
      <g
         id="g3011"
         style="line-height:125%;fill:#000000;font-family:BiauKai;-inkscape-font-specification:Sans Bold">
        <path
           style="font-size:28px;text-align:start;line-height:125%;writing-mode:lr-tb;text-anchor:start;font-family:Sans;-inkscape-font-specification:Sans Bold"
           d="m 3.25,1029.9375 -0.3047886,3.6488 0.8746287,2.5573 2.1443962,1.212 3.5045137,-0.3868 2.760518,-2.417 0.0067,-3.4278 -2.150334,-2.7633 -3.710658,-0.4232 -1.3629096,-0.011 -1.1877673,-0.034 -0.6936788,0.4889 z"
           id="path3013"
           inkscape:connector-curvature="0"
           sodipodi:nodetypes="ccccccccccccc" />
        <path
           style="font-size:28px;text-align:start;line-height:125%;writing-mode:lr-tb;text-anchor:start;font-family:Sans;-inkscape-font-specification:Sans Bold"
           d="m 28.375,1032.1562 -2.734471,0.7807 -2.09448,2.5536 -0.640942,2.6521 1.626143,1.0762 3.483728,0.039 3.572159,0.036 2.177027,-1.0798 -0.701664,-3.3082 -0.792915,-1.2398 -1.104176,-0.9075 -1.327505,-0.5213 z"
           id="path3015"
           inkscape:connector-curvature="0"
           sodipodi:nodetypes="ccccccccccccc" />
        <path
           style="font-size:28px;text-align:start;line-height:125%;writing-mode:lr-tb;text-anchor:start;font-family:Sans;-inkscape-font-specification:Sans Bold"
           d="m 48.03125,1032.4375 -4.177269,2.8688 -0.430631,5.2473 2.654569,4.2283 5.078331,-0.1881 2.203753,-3.2199 0.19031,-4.1965 -1.787971,-3.5274 z"
           id="path3017"
           inkscape:connector-curvature="0"
           sodipodi:nodetypes="ccccccccc" />
        <path
           style="font-size:28px;text-align:start;line-height:125%;writing-mode:lr-tb;text-anchor:start;font-family:Sans;-inkscape-font-specification:Sans Bold"
           d="m 63.84375,1029.9375 -0.304788,3.6488 0.874628,2.5573 2.144396,1.212 3.504514,-0.3868 2.760518,-2.417 0.0067,-3.4278 -2.150334,-2.7633 -3.710658,-0.4232 -1.362909,-0.011 -1.187768,-0.034 -0.693679,0.4889 z"
           id="path3019"
           inkscape:connector-curvature="0"
           sodipodi:nodetypes="ccccccccccccc" />
        <path
           style="font-size:28px;text-align:start;line-height:125%;writing-mode:lr-tb;text-anchor:start;font-family:Sans;-inkscape-font-specification:Sans Bold"
           d="m 87.25,1037.7812 -3.017411,1.8563 -0.141712,3.2036 2.055037,2.5799 3.572836,-0.015 2.438263,-1.7677 1.202927,-3.0313 -0.531731,-2.5693 -2.765709,-0.3817 -0.705528,-0.012 -0.703342,0.018 -0.702033,0.046 z"
           id="path3021"
           inkscape:connector-curvature="0"
           sodipodi:nodetypes="ccccccccccccc" />
        <path
           style="font-size:28px;text-align:start;line-height:125%;writing-mode:lr-tb;text-anchor:start;font-family:Sans;-inkscape-font-specification:Sans Bold"
           d="m 108.59375,1032.4375 -4.19058,2.8424 -0.44714,5.2561 2.64516,4.246 5.08631,-0.1882 2.20109,-3.2114 0.19609,-4.1902 -1.77594,-3.5284 z"
           id="path3023"
           inkscape:connector-curvature="0"
           sodipodi:nodetypes="ccccccccc" />
      </g>
    </g>
  </g>
</svg>
