999
DXF created by Inkscape
  0
SECTION
  2
HEADER
  9
$ACADVER
  1
AC1014
  9
$HANDSEED
  5
FFFF
  9
$MEASUREMENT
 70
     1
  0
ENDSEC
  0
SECTION
  2
TABLES
  0
TABLE
  2
VPORT
  5
8
330
0
100
AcDbSymbolTable
 70
     4
  0
VPORT
  5
2E
330
8
100
AcDbSymbolTableRecord
100
AcDbViewportTableRecord
  2
*ACTIVE
 70
     0
 10
0.0
 20
0.0
 11
1.0
 21
1.0
 12
210.0
 22
148.5
 13
0.0
 23
0.0
 14
10.0
 24
10.0
 15
10.0
 25
10.0
 16
0.0
 26
0.0
 36
1.0
 17
0.0
 27
0.0
 37
0.0
 40
341.0
 41
1.24
 42
50.0
 43
0.0
 44
0.0
 50
0.0
 51
0.0
 71
     0
 72
   100
 73
     1
 74
     3
 75
     0
 76
     0
 77
     0
 78
     0
  0
ENDTAB
  0
TABLE
  2
LTYPE
  5
5
330
0
100
AcDbSymbolTable
 70
     1
  0
LTYPE
  5
14
330
5
100
AcDbSymbolTableRecord
100
AcDbLinetypeTableRecord
  2
BYBLOCK
 70
     0
  3

 72
    65
 73
     0
 40
0.0
  0
LTYPE
  5
15
330
5
100
AcDbSymbolTableRecord
100
AcDbLinetypeTableRecord
  2
BYLAYER
 70
     0
  3

 72
    65
 73
     0
 40
0.0
  0
LTYPE
  5
16
330
5
100
AcDbSymbolTableRecord
100
AcDbLinetypeTableRecord
  2
CONTINUOUS
 70
     0
  3
Solid line
 72
    65
 73
     0
 40
0.0
  0
ENDTAB
  0
TABLE
  2
LAYER
  5
2
100
AcDbSymbolTable
 70
3
  0
LAYER
  5
50
100
AcDbSymbolTableRecord
100
AcDbLayerTableRecord
  2
0
 70
0
  6
CONTINUOUS
  0
LAYER
  5
51
100
AcDbSymbolTableRecord
100
AcDbLayerTableRecord
  2
Text
 70
0
  6
CONTINUOUS
  0
LAYER
  5
52
100
AcDbSymbolTableRecord
100
AcDbLayerTableRecord
  2
Cutout
 70
0
  6
CONTINUOUS
  0
ENDTAB
  0
TABLE
  2
STYLE
  5
3
330
0
100
AcDbSymbolTable
 70
     1
  0
STYLE
  5
11
330
3
100
AcDbSymbolTableRecord
100
AcDbTextStyleTableRecord
  2
STANDARD
 70
     0
 40
0.0
 41
1.0
 50
0.0
 71
     0
 42
2.5
  3
txt
  4

  0
ENDTAB
  0
TABLE
  2
VIEW
  5
6
330
0
100
AcDbSymbolTable
 70
     0
  0
ENDTAB
  0
TABLE
  2
UCS
  5
7
330
0
100
AcDbSymbolTable
 70
     0
  0
ENDTAB
  0
TABLE
  2
APPID
  5
9
330
0
100
AcDbSymbolTable
 70
     2
  0
APPID
  5
12
330
9
100
AcDbSymbolTableRecord
100
AcDbRegAppTableRecord
  2
ACAD
 70
     0
  0
ENDTAB
  0
TABLE
  2
DIMSTYLE
  5
A
330
0
100
AcDbSymbolTable
 70
     1
  0
DIMSTYLE
105
27
330
A
100
AcDbSymbolTableRecord
100
AcDbDimStyleTableRecord
  2
ISO-25
 70
     0
  3

  4

  5

  6

  7

 40
1.0
 41
2.5
 42
0.625
 43
3.75
 44
1.25
 45
0.0
 46
0.0
 47
0.0
 48
0.0
140
2.5
141
2.5
142
0.0
143
0.03937007874016
144
1.0
145
0.0
146
1.0
147
0.625
 71
     0
 72
     0
 73
     0
 74
     0
 75
     0
 76
     0
 77
     1
 78
     8
170
     0
171
     3
172
     1
173
     0
174
     0
175
     0
176
     0
177
     0
178
     0
270
     2
271
     2
272
     2
273
     2
274
     3
340
11
275
     0
280
     0
281
     0
282
     0
283
     0
284
     8
285
     0
286
     0
287
     3
288
     0
  0
ENDTAB
  0
TABLE
  2
BLOCK_RECORD
  5
1
330
0
100
AcDbSymbolTable
 70
     1
  0
BLOCK_RECORD
  5
1F
330
1
100
AcDbSymbolTableRecord
100
AcDbBlockTableRecord
  2
*MODEL_SPACE
  0
BLOCK_RECORD
  5
1B
330
1
100
AcDbSymbolTableRecord
100
AcDbBlockTableRecord
  2
*PAPER_SPACE
  0
ENDTAB
  0
ENDSEC
  0
SECTION
  2
BLOCKS
  0
BLOCK
  5
20
330
1F
100
AcDbEntity
  8
0
100
AcDbBlockBegin
  2
*MODEL_SPACE
 70
     0
 10
0.0
 20
0.0
 30
0.0
  3
*MODEL_SPACE
  1

  0
ENDBLK
  5
21
330
1F
100
AcDbEntity
  8
0
100
AcDbBlockEnd
  0
BLOCK
  5
1C
330
1B
100
AcDbEntity
 67
     1
  8
0
100
AcDbBlockBegin
  2
*PAPER_SPACE
  1

  0
ENDBLK
  5
1D
330
1B
100
AcDbEntity
 67
     1
  8
0
100
AcDbBlockEnd
  0
ENDSEC
  0
SECTION
  2
ENTITIES
  0
LWPOLYLINE
  5
100
100
AcDbEntity
  8
Text
 62
7
100
AcDbPolyline
 90
15
 70
0
 10
2.110603
 20
4.850158
 30
0.0
 10
2.510921
 20
4.893564
 30
0.0
 10
2.778125
 20
5.023781
 30
0.0
 10
2.931498
 20
5.253341
 30
0.0
 10
2.982626
 20
5.594830
 30
0.0
 10
2.931498
 20
5.932452
 30
0.0
 10
2.778125
 20
6.158174
 30
0.0
 10
2.510921
 20
6.285512
 30
0.0
 10
2.110603
 20
6.327958
 30
0.0
 10
1.798064
 20
6.327958
 30
0.0
 10
1.485525
 20
6.327958
 30
0.0
 10
1.485525
 20
5.589044
 30
0.0
 10
1.485525
 20
4.850158
 30
0.0
 10
1.798064
 20
4.850158
 30
0.0
 10
2.110603
 20
4.850158
 30
0.0
  0
LWPOLYLINE
  5
101
100
AcDbEntity
  8
Text
 62
7
100
AcDbPolyline
 90
33
 70
0
 10
1.485525
 20
3.823772
 30
0.0
 10
1.485525
 20
2.733746
 30
0.0
 10
1.485525
 20
1.643719
 30
0.0
 10
0.742763
 20
1.643719
 30
0.0
 10
0.000000
 20
1.643719
 30
0.0
 10
0.000000
 20
4.524079
 30
0.0
 10
0.000000
 20
7.404467
 30
0.0
 10
1.134401
 20
7.404467
 30
0.0
 10
2.268802
 20
7.404467
 30
0.0
 10
3.254648
 20
7.308963
 30
0.0
 10
3.935677
 20
7.022479
 30
0.0
 10
4.335029
 20
6.529550
 30
0.0
 10
4.468151
 20
5.814766
 30
0.0
 10
4.398694
 20
5.294828
 30
0.0
 10
4.190338
 20
4.877167
 30
0.0
 10
3.845963
 20
4.558848
 30
0.0
 10
3.360760
 20
4.336965
 30
0.0
 10
3.649180
 20
4.223117
 30
0.0
 10
3.904809
 20
4.020566
 30
0.0
 10
4.148856
 20
3.713819
 30
0.0
 10
4.394840
 20
3.279733
 30
0.0
 10
4.798053
 20
2.461740
 30
0.0
 10
5.201267
 20
1.643719
 30
0.0
 10
4.410273
 20
1.643719
 30
0.0
 10
3.619280
 20
1.643719
 30
0.0
 10
3.268155
 20
2.359462
 30
0.0
 10
2.917031
 20
3.075234
 30
0.0
 10
2.702882
 20
3.438906
 30
0.0
 10
2.484878
 20
3.665587
 30
0.0
 10
2.232144
 20
3.784233
 30
0.0
 10
1.906102
 20
3.823772
 30
0.0
 10
1.695814
 20
3.823772
 30
0.0
 10
1.485525
 20
3.823772
 30
0.0
  0
LWPOLYLINE
  5
102
100
AcDbEntity
  8
Text
 62
7
100
AcDbPolyline
 90
31
 70
0
 10
10.333082
 20
3.816068
 30
0.0
 10
10.333082
 20
3.619274
 30
0.0
 10
10.333082
 20
3.422509
 30
0.0
 10
8.718296
 20
3.422509
 30
0.0
 10
7.103511
 20
3.422509
 30
0.0
 10
7.216371
 20
2.997087
 30
0.0
 10
7.454635
 20
2.693247
 30
0.0
 10
7.815404
 20
2.510931
 30
0.0
 10
8.295790
 20
2.450169
 30
0.0
 10
8.736622
 20
2.481975
 30
0.0
 10
9.187105
 20
2.577479
 30
0.0
 10
9.652052
 20
2.741478
 30
0.0
 10
10.128581
 20
2.971066
 30
0.0
 10
10.128581
 20
2.438569
 30
0.0
 10
10.128581
 20
1.906101
 30
0.0
 10
9.638547
 20
1.744049
 30
0.0
 10
9.148520
 20
1.628281
 30
0.0
 10
8.658487
 20
1.555948
 30
0.0
 10
8.168459
 20
1.531959
 30
0.0
 10
7.125696
 20
1.680492
 30
0.0
 10
6.343385
 20
2.126149
 30
0.0
 10
5.857213
 20
2.843840
 30
0.0
 10
5.695156
 20
3.800743
 30
0.0
 10
5.854320
 20
4.745115
 30
0.0
 10
6.331810
 20
5.463766
 30
0.0
 10
7.091935
 20
5.918115
 30
0.0
 10
8.091289
 20
6.069556
 30
0.0
 10
9.007682
 20
5.916168
 30
0.0
 10
9.719579
 20
5.456033
 30
0.0
 10
10.179702
 20
4.739330
 30
0.0
 10
10.333082
 20
3.816181
 30
0.0
  0
LWPOLYLINE
  5
103
100
AcDbEntity
  8
Text
 62
7
100
AcDbPolyline
 90
11
 70
0
 10
8.913151
 20
4.275356
 30
0.0
 10
8.855271
 20
4.630307
 30
0.0
 10
8.681641
 20
4.908127
 30
0.0
 10
8.418295
 20
5.090442
 30
0.0
 10
8.083572
 20
5.151233
 30
0.0
 10
7.719906
 20
5.094309
 30
0.0
 10
7.431484
 20
4.923564
 30
0.0
 10
7.227947
 20
4.649611
 30
0.0
 10
7.118945
 20
4.275356
 30
0.0
 10
8.016048
 20
4.275356
 30
0.0
 10
8.913151
 20
4.275356
 30
0.0
  0
LWPOLYLINE
  5
104
100
AcDbEntity
  8
Text
 62
7
100
AcDbPolyline
 90
27
 70
0
 10
12.756224
 20
2.268813
 30
0.0
 10
12.756224
 20
1.134392
 30
0.0
 10
12.756224
 20
-0.000000
 30
0.0
 10
12.065551
 20
-0.000000
 30
0.0
 10
11.374878
 20
-0.000000
 30
0.0
 10
11.374878
 20
2.982609
 30
0.0
 10
11.374878
 20
5.965246
 30
0.0
 10
12.065551
 20
5.965246
 30
0.0
 10
12.756224
 20
5.965246
 30
0.0
 10
12.756224
 20
5.648847
 30
0.0
 10
12.756224
 20
5.332448
 30
0.0
 10
13.057186
 20
5.660446
 30
0.0
 10
13.389019
 20
5.888087
 30
0.0
 10
13.762327
 20
6.024090
 30
0.0
 10
14.187730
 20
6.069443
 30
0.0
 10
14.915056
 20
5.910270
 30
0.0
 10
15.499622
 20
5.432778
 30
0.0
 10
15.884504
 20
4.708342
 30
0.0
 10
16.012804
 20
3.800630
 30
0.0
 10
15.884504
 20
2.891931
 30
0.0
 10
15.499622
 20
2.164616
 30
0.0
 10
14.915056
 20
1.690031
 30
0.0
 10
14.187730
 20
1.531846
 30
0.0
 10
13.762327
 20
1.576211
 30
0.0
 10
13.389019
 20
1.709335
 30
0.0
 10
13.057186
 20
1.939854
 30
0.0
 10
12.756224
 20
2.268813
 30
0.0
  0
LWPOLYLINE
  5
105
100
AcDbEntity
  8
Text
 62
7
100
AcDbPolyline
 90
17
 70
0
 10
13.674549
 20
5.066228
 30
0.0
 10
13.281944
 20
4.984242
 30
0.0
 10
12.991593
 20
4.738257
 30
0.0
 10
12.815065
 20
4.341791
 30
0.0
 10
12.756224
 20
3.800630
 30
0.0
 10
12.815066
 20
3.258510
 30
0.0
 10
12.991593
 20
2.859165
 30
0.0
 10
13.281944
 20
2.616059
 30
0.0
 10
13.674549
 20
2.535033
 30
0.0
 10
14.065220
 20
2.616059
 30
0.0
 10
14.349787
 20
2.859165
 30
0.0
 10
14.526311
 20
3.256590
 30
0.0
 10
14.585156
 20
3.800630
 30
0.0
 10
14.526311
 20
4.344670
 30
0.0
 10
14.349787
 20
4.742124
 30
0.0
 10
14.065220
 20
4.985202
 30
0.0
 10
13.674549
 20
5.066228
 30
0.0
  0
LWPOLYLINE
  5
106
100
AcDbEntity
  8
Text
 62
7
100
AcDbPolyline
 90
15
 70
0
 10
19.211506
 20
4.850158
 30
0.0
 10
19.611824
 20
4.893564
 30
0.0
 10
19.879028
 20
5.023781
 30
0.0
 10
20.032401
 20
5.253341
 30
0.0
 10
20.083529
 20
5.594830
 30
0.0
 10
20.032401
 20
5.932452
 30
0.0
 10
19.879028
 20
6.158174
 30
0.0
 10
19.611824
 20
6.285512
 30
0.0
 10
19.211506
 20
6.327958
 30
0.0
 10
18.898967
 20
6.327958
 30
0.0
 10
18.586428
 20
6.327958
 30
0.0
 10
18.586428
 20
5.589044
 30
0.0
 10
18.586428
 20
4.850158
 30
0.0
 10
18.898967
 20
4.850158
 30
0.0
 10
19.211506
 20
4.850158
 30
0.0
  0
LWPOLYLINE
  5
107
100
AcDbEntity
  8
Text
 62
7
100
AcDbPolyline
 90
33
 70
0
 10
18.586428
 20
3.823772
 30
0.0
 10
18.586428
 20
2.733746
 30
0.0
 10
18.586428
 20
1.643719
 30
0.0
 10
17.843665
 20
1.643719
 30
0.0
 10
17.100903
 20
1.643719
 30
0.0
 10
17.100903
 20
4.524079
 30
0.0
 10
17.100903
 20
7.404467
 30
0.0
 10
18.235304
 20
7.404467
 30
0.0
 10
19.369705
 20
7.404467
 30
0.0
 10
20.355550
 20
7.308963
 30
0.0
 10
21.036580
 20
7.022479
 30
0.0
 10
21.435932
 20
6.529550
 30
0.0
 10
21.569054
 20
5.814766
 30
0.0
 10
21.499597
 20
5.294828
 30
0.0
 10
21.291241
 20
4.877167
 30
0.0
 10
20.946866
 20
4.558848
 30
0.0
 10
20.461662
 20
4.336965
 30
0.0
 10
20.750082
 20
4.223117
 30
0.0
 10
21.005712
 20
4.020566
 30
0.0
 10
21.249759
 20
3.713819
 30
0.0
 10
21.495742
 20
3.279733
 30
0.0
 10
21.898956
 20
2.461740
 30
0.0
 10
22.302170
 20
1.643719
 30
0.0
 10
21.511176
 20
1.643719
 30
0.0
 10
20.720182
 20
1.643719
 30
0.0
 10
20.369058
 20
2.359462
 30
0.0
 10
20.017934
 20
3.075234
 30
0.0
 10
19.803784
 20
3.438906
 30
0.0
 10
19.585781
 20
3.665587
 30
0.0
 10
19.333047
 20
3.784233
 30
0.0
 10
19.007005
 20
3.823772
 30
0.0
 10
18.796717
 20
3.823772
 30
0.0
 10
18.586428
 20
3.823772
 30
0.0
  0
LWPOLYLINE
  5
108
100
AcDbEntity
  8
Text
 62
7
100
AcDbPolyline
 90
17
 70
0
 10
25.057144
 20
3.588427
 30
0.0
 10
24.678044
 20
3.551767
 30
0.0
 10
24.405056
 20
3.441785
 30
0.0
 10
24.242998
 20
3.260457
 30
0.0
 10
24.188980
 20
3.009646
 30
0.0
 10
24.232387
 20
2.775232
 30
0.0
 10
24.362613
 20
2.596783
 30
0.0
 10
24.573864
 20
2.486801
 30
0.0
 10
24.852643
 20
2.450169
 30
0.0
 10
25.211482
 20
2.519624
 30
0.0
 10
25.508590
 20
2.727960
 30
0.0
 10
25.708265
 20
3.044359
 30
0.0
 10
25.774826
 20
3.430214
 30
0.0
 10
25.774826
 20
3.509320
 30
0.0
 10
25.774826
 20
3.588427
 30
0.0
 10
25.415985
 20
3.588427
 30
0.0
 10
25.057144
 20
3.588427
 30
0.0
  0
LWPOLYLINE
  5
109
100
AcDbEntity
  8
Text
 62
7
100
AcDbPolyline
 90
41
 70
0
 10
27.167747
 20
4.109325
 30
0.0
 10
27.167747
 20
2.876522
 30
0.0
 10
27.167747
 20
1.643719
 30
0.0
 10
26.471287
 20
1.643719
 30
0.0
 10
25.774826
 20
1.643719
 30
0.0
 10
25.774826
 20
1.963984
 30
0.0
 10
25.774826
 20
2.284250
 30
0.0
 10
25.479648
 20
1.943721
 30
0.0
 10
25.149748
 20
1.709335
 30
0.0
 10
24.764860
 20
1.576211
 30
0.0
 10
24.304735
 20
1.531846
 30
0.0
 10
23.696055
 20
1.629269
 30
0.0
 10
23.212778
 20
1.921538
 30
0.0
 10
22.900238
 20
2.372981
 30
0.0
 10
22.796059
 20
2.940191
 30
0.0
 10
22.926284
 20
3.599039
 30
0.0
 10
23.316958
 20
4.055308
 30
0.0
 10
23.990266
 20
4.321528
 30
0.0
 10
24.960681
 20
4.410287
 30
0.0
 10
25.367754
 20
4.410287
 30
0.0
 10
25.774826
 20
4.410287
 30
0.0
 10
25.774826
 20
4.464304
 30
0.0
 10
25.774826
 20
4.518321
 30
0.0
 10
25.710194
 20
4.801926
 30
0.0
 10
25.516306
 20
4.996773
 30
0.0
 10
25.185437
 20
5.112540
 30
0.0
 10
24.709878
 20
5.151120
 30
0.0
 10
24.281583
 20
5.128824
 30
0.0
 10
23.884158
 20
5.062248
 30
0.0
 10
23.515670
 20
4.951307
 30
0.0
 10
23.174193
 20
4.796028
 30
0.0
 10
23.174193
 20
5.322711
 30
0.0
 10
23.174193
 20
5.849394
 30
0.0
 10
23.618885
 20
5.943939
 30
0.0
 10
24.065508
 20
6.011446
 30
0.0
 10
24.513093
 20
6.054852
 30
0.0
 10
24.960681
 20
6.069245
 30
0.0
 10
25.966784
 20
5.953478
 30
0.0
 10
26.646849
 20
5.606232
 30
0.0
 10
27.037519
 20
5.002361
 30
0.0
 10
27.167747
 20
4.109127
 30
0.0
  0
LWPOLYLINE
  5
10a
100
AcDbEntity
  8
Text
 62
7
100
AcDbPolyline
 90
27
 70
0
 10
29.841692
 20
2.268813
 30
0.0
 10
29.841692
 20
1.134392
 30
0.0
 10
29.841692
 20
-0.000000
 30
0.0
 10
29.151021
 20
-0.000000
 30
0.0
 10
28.460347
 20
-0.000000
 30
0.0
 10
28.460347
 20
2.982609
 30
0.0
 10
28.460347
 20
5.965246
 30
0.0
 10
29.151021
 20
5.965246
 30
0.0
 10
29.841692
 20
5.965246
 30
0.0
 10
29.841692
 20
5.648847
 30
0.0
 10
29.841692
 20
5.332448
 30
0.0
 10
30.142654
 20
5.660446
 30
0.0
 10
30.474488
 20
5.888087
 30
0.0
 10
30.847795
 20
6.024090
 30
0.0
 10
31.273200
 20
6.069443
 30
0.0
 10
32.000523
 20
5.910270
 30
0.0
 10
32.585090
 20
5.432778
 30
0.0
 10
32.969973
 20
4.708342
 30
0.0
 10
33.098272
 20
3.800630
 30
0.0
 10
32.969973
 20
2.891931
 30
0.0
 10
32.585090
 20
2.164616
 30
0.0
 10
32.000523
 20
1.690031
 30
0.0
 10
31.273200
 20
1.531846
 30
0.0
 10
30.847795
 20
1.576211
 30
0.0
 10
30.474488
 20
1.709335
 30
0.0
 10
30.142654
 20
1.939854
 30
0.0
 10
29.841692
 20
2.268813
 30
0.0
  0
LWPOLYLINE
  5
10b
100
AcDbEntity
  8
Text
 62
7
100
AcDbPolyline
 90
17
 70
0
 10
30.760018
 20
5.066228
 30
0.0
 10
30.367413
 20
4.984242
 30
0.0
 10
30.077063
 20
4.738257
 30
0.0
 10
29.900533
 20
4.341791
 30
0.0
 10
29.841692
 20
3.800630
 30
0.0
 10
29.900533
 20
3.258510
 30
0.0
 10
30.077063
 20
2.859165
 30
0.0
 10
30.367413
 20
2.616059
 30
0.0
 10
30.760018
 20
2.535033
 30
0.0
 10
31.150690
 20
2.616059
 30
0.0
 10
31.435257
 20
2.859165
 30
0.0
 10
31.611779
 20
3.256590
 30
0.0
 10
31.670625
 20
3.800630
 30
0.0
 10
31.611779
 20
4.344670
 30
0.0
 10
31.435257
 20
4.742124
 30
0.0
 10
31.150690
 20
4.985202
 30
0.0
 10
30.760018
 20
5.066228
 30
0.0
  0
LWPOLYLINE
  5
10c
100
AcDbEntity
  8
Cutout
 62
7
100
AcDbPolyline
 90
13
 70
0
 10
0.917222
 20
6.328749
 30
0.0
 10
0.831204
 20
5.298976
 30
0.0
 10
1.078044
 20
4.577249
 30
0.0
 10
1.683240
 20
4.235196
 30
0.0
 10
2.672292
 20
4.344360
 30
0.0
 10
3.451371
 20
5.026491
 30
0.0
 10
3.453262
 20
5.993892
 30
0.0
 10
2.846390
 20
6.773757
 30
0.0
 10
1.799160
 20
6.893193
 30
0.0
 10
1.414517
 20
6.896298
 30
0.0
 10
1.079302
 20
6.905893
 30
0.0
 10
0.883531
 20
6.767915
 30
0.0
 10
0.917222
 20
6.328749
 30
0.0
  0
LWPOLYLINE
  5
10d
100
AcDbEntity
  8
Cutout
 62
7
100
AcDbPolyline
 90
13
 70
0
 10
8.008056
 20
5.702582
 30
0.0
 10
7.236327
 20
5.482251
 30
0.0
 10
6.645218
 20
4.761569
 30
0.0
 10
6.464330
 20
4.013087
 30
0.0
 10
6.923264
 20
3.709360
 30
0.0
 10
7.906449
 20
3.698353
 30
0.0
 10
8.914592
 20
3.688193
 30
0.0
 10
9.528997
 20
3.992936
 30
0.0
 10
9.330972
 20
4.926584
 30
0.0
 10
9.107194
 20
5.276483
 30
0.0
 10
8.795571
 20
5.532600
 30
0.0
 10
8.420920
 20
5.679722
 30
0.0
 10
8.008056
 20
5.702582
 30
0.0
  0
LWPOLYLINE
  5
10e
100
AcDbEntity
  8
Cutout
 62
7
100
AcDbPolyline
 90
9
 70
0
 10
13.555486
 20
5.623193
 30
0.0
 10
12.376568
 20
4.813554
 30
0.0
 10
12.255034
 20
3.332649
 30
0.0
 10
13.004213
 20
2.139329
 30
0.0
 10
14.437431
 20
2.192415
 30
0.0
 10
15.059379
 20
3.101142
 30
0.0
 10
15.113088
 20
4.285488
 30
0.0
 10
14.608483
 20
5.280999
 30
0.0
 10
13.555486
 20
5.623193
 30
0.0
  0
LWPOLYLINE
  5
10f
100
AcDbEntity
  8
Cutout
 62
7
100
AcDbPolyline
 90
13
 70
0
 10
18.018125
 20
6.328749
 30
0.0
 10
17.932107
 20
5.298976
 30
0.0
 10
18.178947
 20
4.577249
 30
0.0
 10
18.784143
 20
4.235196
 30
0.0
 10
19.773194
 20
4.344360
 30
0.0
 10
20.552274
 20
5.026491
 30
0.0
 10
20.554165
 20
5.993892
 30
0.0
 10
19.947293
 20
6.773757
 30
0.0
 10
18.900063
 20
6.893193
 30
0.0
 10
18.515419
 20
6.896298
 30
0.0
 10
18.180205
 20
6.905893
 30
0.0
 10
17.984433
 20
6.767915
 30
0.0
 10
18.018125
 20
6.328749
 30
0.0
  0
LWPOLYLINE
  5
110
100
AcDbEntity
  8
Cutout
 62
7
100
AcDbPolyline
 90
13
 70
0
 10
24.623889
 20
4.115082
 30
0.0
 10
23.772308
 20
3.591193
 30
0.0
 10
23.732314
 20
2.687066
 30
0.0
 10
24.312291
 20
1.958961
 30
0.0
 10
25.320625
 20
1.963194
 30
0.0
 10
26.008757
 20
2.462078
 30
0.0
 10
26.348250
 20
3.317579
 30
0.0
 10
26.198183
 20
4.042692
 30
0.0
 10
25.417639
 20
4.150416
 30
0.0
 10
25.218523
 20
4.153803
 30
0.0
 10
25.020024
 20
4.148723
 30
0.0
 10
24.821895
 20
4.135741
 30
0.0
 10
24.623889
 20
4.115082
 30
0.0
  0
LWPOLYLINE
  5
111
100
AcDbEntity
  8
Cutout
 62
7
100
AcDbPolyline
 90
9
 70
0
 10
30.647569
 20
5.623193
 30
0.0
 10
29.464895
 20
4.821005
 30
0.0
 10
29.338702
 20
3.337616
 30
0.0
 10
30.085225
 20
2.139301
 30
0.0
 10
31.520694
 20
2.192415
 30
0.0
 10
32.141891
 20
3.098744
 30
0.0
 10
32.197232
 20
4.281311
 30
0.0
 10
31.696022
 20
5.277104
 30
0.0
 10
30.647569
 20
5.623193
 30
0.0
  0
ENDSEC
  0
SECTION
  2
OBJECTS
  0
DICTIONARY
  5
C
330
0
100
AcDbDictionary
  3
ACAD_GROUP
350
D
  3
ACAD_MLINESTYLE
350
17
  0
DICTIONARY
  5
D
330
C
100
AcDbDictionary
  0
DICTIONARY
  5
1A
330
C
100
AcDbDictionary
  0
DICTIONARY
  5
17
330
C
100
AcDbDictionary
  3
STANDARD
350
18
  0
DICTIONARY
  5
19
330
C
100
AcDbDictionary
  0
ENDSEC
  0
EOF
