<?xml version="1.0" encoding="UTF-8" standalone="no"?>
<!-- Created with Inkscape (http://www.inkscape.org/) -->

<svg
   xmlns:dc="http://purl.org/dc/elements/1.1/"
   xmlns:cc="http://creativecommons.org/ns#"
   xmlns:rdf="http://www.w3.org/1999/02/22-rdf-syntax-ns#"
   xmlns:svg="http://www.w3.org/2000/svg"
   xmlns="http://www.w3.org/2000/svg"
   xmlns:sodipodi="http://sodipodi.sourceforge.net/DTD/sodipodi-0.dtd"
   xmlns:inkscape="http://www.inkscape.org/namespaces/inkscape"
   width="1052.3622"
   height="744.09448"
   id="svg2"
   version="1.1"
   inkscape:version="0.48.1 r9760"
   sodipodi:docname="RepRap.svg">
  <defs
     id="defs4" />
  <sodipodi:namedview
     id="base"
     pagecolor="#ffffff"
     bordercolor="#666666"
     borderopacity="1.0"
     inkscape:pageopacity="0.0"
     inkscape:pageshadow="2"
     inkscape:zoom="0.49497475"
     inkscape:cx="745.5355"
     inkscape:cy="184.34981"
     inkscape:document-units="px"
     inkscape:current-layer="g3018"
     showgrid="true"
     inkscape:window-width="1280"
     inkscape:window-height="723"
     inkscape:window-x="0"
     inkscape:window-y="0"
     inkscape:window-maximized="1" />
  <metadata
     id="metadata7">
    <rdf:RDF>
      <cc:Work
         rdf:about="">
        <dc:format>image/svg+xml</dc:format>
        <dc:type
           rdf:resource="http://purl.org/dc/dcmitype/StillImage" />
        <dc:title></dc:title>
      </cc:Work>
    </rdf:RDF>
  </metadata>
  <g
     inkscape:label="Text"
     inkscape:groupmode="layer"
     id="layer1"
     style="display:inline"
     transform="translate(0,-308.2677)"
     sodipodi:insensitive="true">
    <g
       style="font-size:40px;font-style:normal;font-weight:normal;line-height:125%;letter-spacing:0px;word-spacing:0px;fill:#000000;fill-opacity:1;stroke:none;font-family:Sans"
       id="text2987">
      <path
         d="m -9.5367432e-7,1000.8224 0,-48.27763 0,-48.27763 0,-48.27764 0,-48.27763 18.07150295367432,0 18.071503,0 18.071503,0 18.071503,0 25.745288,2.99295 18.389521,8.97873 11.03375,14.9644 3.678,20.95012 -0.62395,8.73817 -1.8716,8.33852 -3.11927,7.93888 -4.36692,7.53924 -5.45981,6.91145 -6.39763,6.05511 -7.33543,5.19879 -8.273201,4.34249 15.788101,22.54067 15.7881,22.54067 15.7881,22.54067 15.7881,22.54067 -12.23252,-3e-4 -12.23251,-2e-4 -12.23252,-2e-4 -12.23251,-3e-4 L 95.935544,981.0873 83.963988,961.3522 71.992432,941.6171 60.020876,921.882 l -5.545407,0 -5.545408,0 -5.545407,0 -5.545407,0 0,19.7351 0,19.7351 0,19.7351 0,19.7351 -9.459812,0 -9.459812,0 -9.459812,0 z M 37.839247,895.39453 l 2.316023,0 2.316024,0 2.316023,0 2.316024,0 19.12344,-2.20997 13.659619,-6.62998 8.195804,-11.05005 2.731991,-15.47013 -2.438411,-11.30276 -7.315062,-8.07343 -12.191718,-4.84414 -17.068378,-1.61475 -3.490345,0 -3.490345,0 -3.490344,0 -3.490345,0 0,15.2988 0,15.29881 0,15.2988 z"
         style="font-size:144px;font-variant:normal;font-weight:bold;font-stretch:normal;text-align:start;line-height:125%;writing-mode:lr-tb;text-anchor:start;font-family:Lucida Sans;-inkscape-font-specification:Lucida Sans Bold"
         id="path3004"
         inkscape:connector-curvature="0"
         sodipodi:nodetypes="cccccccccccccccccccccccccccccccccccccccccccccscccccccccccccccccccs" />
      <path
         d="m 300.88725,995.9947 -13.58631,3.53929 -13.22745,2.52801 -12.86858,1.5169 -12.50973,0.5056 -16.99507,-1.2722 -15.10308,-3.81654 -13.2111,-6.36092 -11.31913,-8.90531 -9.07649,-11.10711 -6.48324,-12.96643 -3.88996,-14.82578 -1.29666,-16.68516 1.18655,-15.82474 3.55966,-14.20194 5.93278,-12.57912 8.30588,-10.95632 10.25486,-8.87668 11.77991,-6.34048 13.30493,-3.80432 14.82993,-1.26817 14.66265,1.23964 12.54239,3.71871 10.42212,6.19778 8.30186,8.67686 6.33637,11.35999 4.526,14.24681 2.71564,17.13365 0.90527,20.0205 -22.21425,0 -22.21424,0 -22.21425,0 -22.21424,0 4.28135,17.92474 8.92972,12.80336 13.5781,7.68197 18.22648,2.56058 10.0306,-0.5626 10.65042,-1.68803 11.27024,-2.81347 11.89007,-3.9389 0,6.78496 0,6.78495 0,6.78496 z m -89.3789,-80.89767 12.85229,0 12.8523,0 12.85229,0 12.8523,0 -1.47611,-16.04084 -4.42819,-11.45776 -7.38027,-6.8747 -10.33234,-2.29163 -10.74018,2.29163 -8.2121,6.8747 -5.68403,11.45776 z"
         style="font-size:144px;font-variant:normal;font-weight:bold;font-stretch:normal;text-align:start;line-height:125%;writing-mode:lr-tb;text-anchor:start;font-family:Lucida Sans;-inkscape-font-specification:Lucida Sans Bold"
         id="path3006"
         inkscape:connector-curvature="0"
         sodipodi:nodetypes="cccccccccccccccccccccccccccccccccccccccccccccccccccccccccc" />
      <path
         d="m 340.8142,1052.3622 0,-48.7017 0,-48.70176 0,-48.70173 0,-48.70173 9.65553,0 9.65554,0 9.65553,0 9.65553,0 0,6.75235 0,6.75235 0,6.75235 0,6.75235 8.50563,-13.24366 10.64227,-9.45978 12.77892,-5.67592 14.91557,-1.89204 12.22836,1.18256 10.85021,3.54745 9.47206,5.91235 8.09392,8.27726 6.47907,10.34877 4.62794,12.12651 2.77682,13.90427 0.92568,15.68203 -1.04393,17.09292 -3.13156,15.26616 -5.21918,13.43942 -7.30679,11.61272 -9.06029,9.36187 -10.47921,6.68692 -11.89814,4.01211 -13.31706,1.3373 -12.73001,0 -13.33344,0 -10.51178,0 -4.26506,0 0,12.0696 0,12.0696 0,12.0695 0,12.0696 -9.65553,0 -9.65553,0 -9.65554,0 z m 38.62213,-73.3305 3.20591,-0.0443 7.82777,0.005 9.81354,0.0246 9.1632,0.0148 6.7523,-0.86027 6.03469,-2.58085 5.31708,-4.30155 4.5995,-6.02233 3.71045,-7.45775 2.65035,-8.60762 1.59025,-9.75749 0.53015,-10.90736 -1.76971,-19.2376 -5.30894,-13.74117 -8.84815,-8.24474 -12.38739,-2.74829 -8.46495,1.37825 -8.30181,4.13461 -8.13869,6.89096 -7.97555,9.64732 0,18.10397 0,18.10397 0,18.10397 z"
         style="font-size:144px;font-variant:normal;font-weight:bold;font-stretch:normal;text-align:start;line-height:125%;writing-mode:lr-tb;text-anchor:start;font-family:Lucida Sans;-inkscape-font-specification:Lucida Sans Bold"
         id="path3008"
         inkscape:connector-curvature="0"
         sodipodi:nodetypes="cccccccccccccccccccccccccccccccccccccccccccccccccccccccccccccccccccccc" />
      <path
         d="m 517.7453,1000.8224 0,-48.27763 0,-48.27763 0,-48.27764 0,-48.27763 18.0715,0 18.0715,0 18.0715,0 18.0715,0 25.7453,2.99295 18.38952,8.97873 11.03376,14.9644 3.67799,20.95012 -0.62394,8.73817 -1.87161,8.33852 -3.11926,7.93888 -4.36691,7.53924 -5.45987,6.91142 -6.39764,6.05512 -7.3354,5.1988 -8.27319,4.3425 15.7881,22.54042 15.7881,22.54042 15.7881,22.54042 15.7881,22.54042 -12.23251,0 -12.23251,0 -12.23252,0 -12.23251,0 -11.97155,-19.7351 -11.97156,-19.7351 -11.97155,-19.7351 -11.97156,-19.7351 -5.54541,0 -5.54541,0 -5.54542,0 -5.54541,0 0,19.7351 0,19.7351 0,19.7351 0,19.7351 -9.45981,0 -9.4598,0 -9.45981,0 z m 37.83923,-105.42787 2.31603,0 2.31602,0 2.31603,0 2.31602,0 19.12344,-2.20997 13.65963,-6.62998 8.1958,-11.05005 2.732,-15.47013 -2.43841,-11.30276 -7.31507,-8.07343 -12.19172,-4.84414 -17.06838,-1.61475 -3.49035,0 -3.49034,0 -3.49035,0 -3.49035,0 0,15.2988 0,15.29881 0,15.2988 z"
         style="font-size:144px;font-variant:normal;font-weight:bold;font-stretch:normal;text-align:start;line-height:125%;writing-mode:lr-tb;text-anchor:start;font-family:Lucida Sans;-inkscape-font-specification:Lucida Sans Bold"
         id="path3010"
         inkscape:connector-curvature="0"
         sodipodi:nodetypes="cccccccccccccccccccccccccccccccccccccccccccccscccccccccccccccccccs" />
      <path
         d="m 772.18162,985.42587 -9.82683,8.16318 -10.1693,5.83082 -10.51179,3.49843 -10.85428,1.1662 -8.95423,-0.7176 -8.07346,-2.1529 -7.19271,-3.58817 -6.31195,-5.02346 -5.13766,-6.16523 -3.66976,-7.01336 -2.20186,-7.86147 -0.73396,-8.70954 1.18655,-11.19272 3.55967,-9.83085 5.93277,-8.46899 8.30588,-7.10713 10.51583,-5.62287 12.56279,-4.01632 14.60973,-2.40982 16.65665,-0.80329 2.57698,0 2.57698,0 2.57698,0 2.57698,0 0,-3.262 0,-3.262 0,-3.26201 0,-3.262 -1.59026,-9.76148 -4.77071,-6.97251 -7.95111,-4.18354 -11.13154,-1.39457 -11.31919,0.79925 -11.3844,2.3976 -11.44962,3.99593 -11.51486,5.59428 0,-6.65449 0,-6.65449 0,-6.65449 0,-6.65449 13.08061,-4.33839 13.01539,-3.09887 12.95016,-1.85937 12.88496,-0.61986 24.60359,2.79725 17.57402,8.39153 10.54447,13.98581 3.51485,19.58011 0,15.85335 0,15.85335 0,15.85335 0,15.85335 0.67679,7.36399 2.03058,5.26 3.38436,3.156 4.73814,1.052 1.05191,-0.0327 1.19876,-0.098 1.3456,-0.16315 1.49245,-0.22816 0.22834,5.41491 0.22834,5.4149 0.22834,5.41491 0.22834,5.41492 -5.95323,1.5984 -5.59436,1.1417 -5.23549,0.6851 -4.87663,0.2283 -10.8136,-1.1662 -8.69326,-3.49844 -6.57291,-5.83082 -4.45258,-8.16318 -0.42406,0 -0.42407,0 -0.42406,0 z m 0,-20.74634 0,-7.27428 0,-7.27427 0,-7.27427 0,-7.27428 -2.2834,0 -2.2834,0 -2.2834,0 -2.2834,0 -16.38345,1.46792 -11.70245,4.40372 -7.02145,7.33947 -2.34047,10.27523 0.33843,3.82066 1.01529,3.50262 1.69216,3.18454 2.36905,2.86644 2.86645,2.36906 3.18452,1.69217 3.50259,1.01527 3.82066,0.33834 6.8257,-0.82356 6.90728,-2.47092 6.98885,-4.11827 z"
         style="font-size:144px;font-variant:normal;font-weight:bold;font-stretch:normal;text-align:start;line-height:125%;writing-mode:lr-tb;text-anchor:start;font-family:Lucida Sans;-inkscape-font-specification:Lucida Sans Bold"
         id="path3012"
         inkscape:connector-curvature="0"
         sodipodi:nodetypes="cccccccccccccccccccccccccccccccccccccccccccccccccccccccccccccccccccccccccccccccccccccccccccccccccccccc" />
      <path
         d="m 859.08142,1052.3622 0,-48.7017 0,-48.70176 0,-48.70173 0,-48.70173 9.65553,0 9.65553,0 9.65554,0 9.65553,0 0,6.75235 0,6.75235 0,6.75235 0,6.75235 8.50563,-13.24366 10.64227,-9.45978 12.77891,-5.67592 14.91557,-1.89204 12.22836,1.18256 10.85021,3.54745 9.47207,5.91235 8.09393,8.27726 6.47907,10.34877 4.62793,12.12651 2.77681,13.90427 0.92569,15.68203 -1.04394,17.09292 -3.13155,15.26616 -5.21918,13.43942 -7.3068,11.61272 -9.06029,9.36187 -10.47921,6.68692 -11.89813,4.01211 -13.31707,1.3373 -12.73093,0.016 -13.33497,0.027 -10.51209,0.01 -4.26229,-0.048 0,12.0696 0,12.0696 0,12.0695 0,12.0696 -9.65553,0 -9.65553,0 -9.65554,0 z m 38.62213,-73.3305 3.19675,0 7.82879,0 9.81863,0 9.16626,0 6.75229,-0.86027 6.03468,-2.58085 5.31709,-4.30155 4.59949,-6.02233 3.71046,-7.45775 2.65036,-8.60762 1.59024,-9.75749 0.53014,-10.90736 -1.7697,-19.2376 -5.30892,-13.74117 -8.84816,-8.24474 -12.3874,-2.74829 -8.46495,1.37825 -8.30181,4.13461 -8.13869,6.89096 -7.97555,9.64732 0,18.10397 0,18.10397 0,18.10397 z"
         style="font-size:144px;font-variant:normal;font-weight:bold;font-stretch:normal;text-align:start;line-height:125%;writing-mode:lr-tb;text-anchor:start;font-family:Lucida Sans;-inkscape-font-specification:Lucida Sans Bold"
         id="path3014"
         inkscape:connector-curvature="0"
         sodipodi:nodetypes="cccccccccccccccccccccccccccccccccccccccccccccccccccccccccccccccccccccc" />
    </g>
  </g>
  <g
     transform="translate(0,-308.2677)"
     style="display:inline"
     id="g3016"
     inkscape:groupmode="layer"
     inkscape:label="Cutouts"
     sodipodi:insensitive="true">
    <g
       id="g3018"
       style="font-size:40px;font-style:normal;font-weight:normal;line-height:125%;letter-spacing:0px;word-spacing:0px;fill:#000000;fill-opacity:1;stroke:none;font-family:Sans">
      <path
         style="font-size:144px;font-variant:normal;font-weight:bold;font-stretch:normal;text-align:start;line-height:125%;writing-mode:lr-tb;text-anchor:start;font-family:Lucida Sans;-inkscape-font-specification:Lucida Sans Bold"
         d="m 33.84375,832.1875 0,16.82031 0,16.82031 0,16.82032 0,16.82031 9.533238,-0.2711 9.590934,-0.44922 9.463298,-1.18601 9.150326,-2.48149 6.968974,-3.50739 5.78618,-5.10311 4.605345,-6.26848 3.426472,-7.00356 1.358144,-5.6431 0.701501,-5.74215 -0.227342,-5.749 -1.428382,-5.66367 -5.367222,-8.40556 -7.840238,-6.05728 -9.367641,-3.66687 -9.949436,-1.23434 -6.584578,-0.56466 -6.601782,-0.20001 -6.609641,-0.0377 -6.60815,-0.0778 0,0.50781 0,0.50781 0,0.50782 z"
         id="path3020"
         inkscape:connector-curvature="0"
         sodipodi:nodetypes="ccccccccccccccccccccccccccccc" />
      <path
         style="font-size:144px;font-variant:normal;font-weight:bold;font-stretch:normal;text-align:start;line-height:125%;writing-mode:lr-tb;text-anchor:start;font-family:Lucida Sans;-inkscape-font-specification:Lucida Sans Bold"
         d="m 238.46875,874.53125 -6.8945,1.49598 -6.37745,2.90015 -5.49357,4.28197 -4.24287,5.64144 -3.56207,7.01023 -2.30201,7.5325 -1.24288,7.82187 -0.38465,7.87836 14.82812,0 14.82813,0 14.82813,0 14.82812,0 -0.66431,-8.50601 -1.16826,-8.47088 -2.01653,-8.25014 -3.20907,-7.84376 -4.15477,-4.89024 -5.28917,-3.42791 -6.00578,-2.14176 z"
         id="path3022"
         inkscape:connector-curvature="0"
         sodipodi:nodetypes="ccccccccccccccccccccc" />
      <path
         style="font-size:144px;font-variant:normal;font-weight:bold;font-stretch:normal;text-align:start;line-height:125%;writing-mode:lr-tb;text-anchor:start;font-family:Lucida Sans;-inkscape-font-specification:Lucida Sans Bold"
         d="m 411.28125,880.71875 -6.73488,2.69154 -6.94919,2.37513 -6.4336,3.14545 -5.1881,5.00253 -3.56889,3.86874 -3.887,3.7453 -2.79354,4.18149 -0.28855,5.17732 0,18.03906 0,18.03906 0,18.03907 0,18.03906 10.99794,0.0743 11.06145,-0.0923 10.98487,-0.59109 10.76824,-1.42211 4.69239,-4.50453 4.79212,-4.45168 4.70612,-4.49701 4.43437,-4.64053 2.42148,-9.49735 2.3931,-9.50087 1.56394,-9.60332 -0.066,-9.80471 -0.84431,-9.48172 -1.75314,-9.44843 -3.42142,-8.79083 -5.84915,-7.50893 -4.38874,-3.7613 -5.2387,-2.60588 -5.68454,-1.56794 z"
         id="path3024"
         inkscape:connector-curvature="0"
         sodipodi:nodetypes="ccccccccccccccccccccccccccccccccc" />
      <path
         style="font-size:144px;font-variant:normal;font-weight:bold;font-stretch:normal;text-align:start;line-height:125%;writing-mode:lr-tb;text-anchor:start;font-family:Lucida Sans;-inkscape-font-specification:Lucida Sans Bold"
         d="m 551.59375,832.1875 0,16.82031 0,16.82031 0,16.82032 0,16.82031 9.53324,-0.2711 9.59093,-0.44922 9.4633,-1.18601 9.15033,-2.48149 6.9636,-3.50503 5.77407,-5.10731 4.59998,-6.26884 3.44134,-6.98965 1.3647,-5.64421 0.70318,-5.74553 -0.22779,-5.75307 -1.42819,-5.66682 -5.36722,-8.40556 -7.84024,-6.05728 -9.36764,-3.66687 -9.94944,-1.23434 -6.58458,-0.56466 -6.60178,-0.20001 -6.60964,-0.0377 -6.60815,-0.0778 0,0.50781 0,0.50781 0,0.50782 z"
         id="path3026"
         inkscape:connector-curvature="0"
         sodipodi:nodetypes="ccccccccccccccccccccccccccccc" />
      <path
         style="font-size:144px;font-variant:normal;font-weight:bold;font-stretch:normal;text-align:start;line-height:125%;writing-mode:lr-tb;text-anchor:start;font-family:Lucida Sans;-inkscape-font-specification:Lucida Sans Bold"
         d="m 774.15625,931.59375 -10.48415,0.22155 -10.59753,0.48915 -10.24273,1.90247 -9.41979,4.46152 -5.10805,4.17505 -3.66104,5.31239 -2.17877,6.1089 -0.66128,6.56458 2.0311,4.44715 2.5648,4.32751 2.738,4.28753 2.55069,4.3272 6.64936,0.96435 6.68034,1.27357 6.54824,0.17701 6.25305,-2.32533 5.0774,-2.07166 4.58099,-2.94066 4.34404,-3.35533 4.36658,-3.31569 0,-8.76562 0,-8.76563 0,-8.76562 0,-8.76563 -0.50781,0.008 -0.50782,0.008 -0.50781,0.008 -0.50781,0.008 0,10e-6 0,10e-6 0,1e-5 z"
         id="path3028"
         inkscape:connector-curvature="0"
         sodipodi:nodetypes="ccccccccccccccccccccccccccccccccc" />
      <path
         style="font-size:144px;font-variant:normal;font-weight:bold;font-stretch:normal;text-align:start;line-height:125%;writing-mode:lr-tb;text-anchor:start;font-family:Lucida Sans;-inkscape-font-specification:Lucida Sans Bold"
         d="m 929.5625,880.71875 -6.73488,2.69154 -6.94919,2.37513 -6.4336,3.14545 -5.1881,5.00253 -3.56889,3.86874 -3.887,3.7453 -2.79354,4.18149 -0.28855,5.17732 0,18.03125 0,18.03125 0,18.03125 0,18.03125 10.9979,0.0897 11.06142,-0.0804 10.98488,-0.58508 10.7683,-1.42419 4.80988,-4.70981 5.0834,-4.55477 4.84633,-4.68832 4.09868,-5.11049 2.29741,-9.0132 2.30977,-9.01171 1.53098,-9.1084 -0.0389,-9.3033 -0.64228,-8.48618 -1.25345,-8.52765 -2.46118,-8.13408 -4.26547,-7.30549 -4.72899,-5.30204 -5.89882,-3.82292 -6.65587,-2.35021 z"
         id="path3030"
         inkscape:connector-curvature="0"
         sodipodi:nodetypes="ccccccccccccccccccccccccccccccccc" />
    </g>
  </g>
</svg>
