999
DXF created by Inkscape
  0
SECTION
  2
HEADER
  9
$ACADVER
  1
AC1014
  9
$HANDSEED
  5
FFFF
  9
$MEASUREMENT
 70
     1
  0
ENDSEC
  0
SECTION
  2
TABLES
  0
TABLE
  2
VPORT
  5
8
330
0
100
AcDbSymbolTable
 70
     4
  0
VPORT
  5
2E
330
8
100
AcDbSymbolTableRecord
100
AcDbViewportTableRecord
  2
*ACTIVE
 70
     0
 10
0.0
 20
0.0
 11
1.0
 21
1.0
 12
210.0
 22
148.5
 13
0.0
 23
0.0
 14
10.0
 24
10.0
 15
10.0
 25
10.0
 16
0.0
 26
0.0
 36
1.0
 17
0.0
 27
0.0
 37
0.0
 40
341.0
 41
1.24
 42
50.0
 43
0.0
 44
0.0
 50
0.0
 51
0.0
 71
     0
 72
   100
 73
     1
 74
     3
 75
     0
 76
     0
 77
     0
 78
     0
  0
ENDTAB
  0
TABLE
  2
LTYPE
  5
5
330
0
100
AcDbSymbolTable
 70
     1
  0
LTYPE
  5
14
330
5
100
AcDbSymbolTableRecord
100
AcDbLinetypeTableRecord
  2
BYBLOCK
 70
     0
  3

 72
    65
 73
     0
 40
0.0
  0
LTYPE
  5
15
330
5
100
AcDbSymbolTableRecord
100
AcDbLinetypeTableRecord
  2
BYLAYER
 70
     0
  3

 72
    65
 73
     0
 40
0.0
  0
LTYPE
  5
16
330
5
100
AcDbSymbolTableRecord
100
AcDbLinetypeTableRecord
  2
CONTINUOUS
 70
     0
  3
Solid line
 72
    65
 73
     0
 40
0.0
  0
ENDTAB
  0
TABLE
  2
LAYER
  5
2
100
AcDbSymbolTable
 70
4
  0
LAYER
  5
50
100
AcDbSymbolTableRecord
100
AcDbLayerTableRecord
  2
0
 70
0
  6
CONTINUOUS
  0
LAYER
  5
51
100
AcDbSymbolTableRecord
100
AcDbLayerTableRecord
  2
Base
 70
0
  6
CONTINUOUS
  0
LAYER
  5
52
100
AcDbSymbolTableRecord
100
AcDbLayerTableRecord
  2
Outer
 70
0
  6
CONTINUOUS
  0
LAYER
  5
53
100
AcDbSymbolTableRecord
100
AcDbLayerTableRecord
  2
Inner
 70
0
  6
CONTINUOUS
  0
ENDTAB
  0
TABLE
  2
STYLE
  5
3
330
0
100
AcDbSymbolTable
 70
     1
  0
STYLE
  5
11
330
3
100
AcDbSymbolTableRecord
100
AcDbTextStyleTableRecord
  2
STANDARD
 70
     0
 40
0.0
 41
1.0
 50
0.0
 71
     0
 42
2.5
  3
txt
  4

  0
ENDTAB
  0
TABLE
  2
VIEW
  5
6
330
0
100
AcDbSymbolTable
 70
     0
  0
ENDTAB
  0
TABLE
  2
UCS
  5
7
330
0
100
AcDbSymbolTable
 70
     0
  0
ENDTAB
  0
TABLE
  2
APPID
  5
9
330
0
100
AcDbSymbolTable
 70
     2
  0
APPID
  5
12
330
9
100
AcDbSymbolTableRecord
100
AcDbRegAppTableRecord
  2
ACAD
 70
     0
  0
ENDTAB
  0
TABLE
  2
DIMSTYLE
  5
A
330
0
100
AcDbSymbolTable
 70
     1
  0
DIMSTYLE
105
27
330
A
100
AcDbSymbolTableRecord
100
AcDbDimStyleTableRecord
  2
ISO-25
 70
     0
  3

  4

  5

  6

  7

 40
1.0
 41
2.5
 42
0.625
 43
3.75
 44
1.25
 45
0.0
 46
0.0
 47
0.0
 48
0.0
140
2.5
141
2.5
142
0.0
143
0.03937007874016
144
1.0
145
0.0
146
1.0
147
0.625
 71
     0
 72
     0
 73
     0
 74
     0
 75
     0
 76
     0
 77
     1
 78
     8
170
     0
171
     3
172
     1
173
     0
174
     0
175
     0
176
     0
177
     0
178
     0
270
     2
271
     2
272
     2
273
     2
274
     3
340
11
275
     0
280
     0
281
     0
282
     0
283
     0
284
     8
285
     0
286
     0
287
     3
288
     0
  0
ENDTAB
  0
TABLE
  2
BLOCK_RECORD
  5
1
330
0
100
AcDbSymbolTable
 70
     1
  0
BLOCK_RECORD
  5
1F
330
1
100
AcDbSymbolTableRecord
100
AcDbBlockTableRecord
  2
*MODEL_SPACE
  0
BLOCK_RECORD
  5
1B
330
1
100
AcDbSymbolTableRecord
100
AcDbBlockTableRecord
  2
*PAPER_SPACE
  0
ENDTAB
  0
ENDSEC
  0
SECTION
  2
BLOCKS
  0
BLOCK
  5
20
330
1F
100
AcDbEntity
  8
0
100
AcDbBlockBegin
  2
*MODEL_SPACE
 70
     0
 10
0.0
 20
0.0
 30
0.0
  3
*MODEL_SPACE
  1

  0
ENDBLK
  5
21
330
1F
100
AcDbEntity
  8
0
100
AcDbBlockEnd
  0
BLOCK
  5
1C
330
1B
100
AcDbEntity
 67
     1
  8
0
100
AcDbBlockBegin
  2
*PAPER_SPACE
  1

  0
ENDBLK
  5
1D
330
1B
100
AcDbEntity
 67
     1
  8
0
100
AcDbBlockEnd
  0
ENDSEC
  0
SECTION
  2
ENTITIES
  0
LWPOLYLINE
  5
100
100
AcDbEntity
  8
Base
 62
7
100
AcDbPolyline
 90
197
 70
0
 10
46.407917
 20
82.611736
 30
0.0
 10
42.324514
 20
79.586667
 30
0.0
 10
40.199028
 20
82.364792
 30
0.0
 10
37.667847
 20
79.339722
 30
0.0
 10
34.157708
 20
82.117847
 30
0.0
 10
31.458958
 20
78.193194
 30
0.0
 10
29.501042
 20
80.486250
 30
0.0
 10
27.454931
 20
77.055486
 30
0.0
 10
23.618472
 20
78.607708
 30
0.0
 10
22.957014
 20
74.762431
 30
0.0
 10
19.367500
 20
76.076528
 30
0.0
 10
18.952986
 20
72.398819
 30
0.0
 10
15.116528
 20
72.725139
 30
0.0
 10
14.710833
 20
68.879861
 30
0.0
 10
11.280069
 20
69.532500
 30
0.0
 10
11.112500
 20
64.875833
 30
0.0
 10
6.949722
 20
64.796458
 30
0.0
 10
8.166806
 20
60.466111
 30
0.0
 10
4.982986
 20
60.298542
 30
0.0
 10
5.803194
 20
56.215139
 30
0.0
 10
2.857500
 20
55.236181
 30
0.0
 10
4.409722
 20
52.211111
 30
0.0
 10
2.204861
 20
51.558472
 30
0.0
 10
3.836458
 20
48.780347
 30
0.0
 10
0.899583
 20
47.880764
 30
0.0
 10
3.677708
 20
45.023264
 30
0.0
 10
0.000000
 20
42.739028
 30
0.0
 10
3.430764
 20
40.287222
 30
0.0
 10
0.573264
 20
38.488056
 30
0.0
 10
3.510139
 20
36.688889
 30
0.0
 10
1.058333
 20
33.910764
 30
0.0
 10
4.004028
 20
32.358542
 30
0.0
 10
1.631597
 20
29.986111
 30
0.0
 10
5.476875
 20
29.412847
 30
0.0
 10
3.183819
 20
26.229028
 30
0.0
 10
6.861528
 20
25.250069
 30
0.0
 10
5.229931
 20
21.731111
 30
0.0
 10
8.987014
 20
21.325417
 30
0.0
 10
7.681736
 20
17.647708
 30
0.0
 10
11.844514
 20
16.995069
 30
0.0
 10
10.380486
 20
14.058194
 30
0.0
 10
15.284097
 20
13.564306
 30
0.0
 10
15.284097
 20
8.907639
 30
0.0
 10
19.041181
 20
10.380472
 30
0.0
 10
18.952986
 20
6.376472
 30
0.0
 10
24.024167
 20
7.355417
 30
0.0
 10
23.697847
 20
3.598333
 30
0.0
 10
28.275139
 20
4.736028
 30
0.0
 10
30.559375
 20
1.305278
 30
0.0
 10
33.910764
 20
3.104444
 30
0.0
 10
36.521319
 20
0.167584
 30
0.0
 10
40.287222
 20
2.531195
 30
0.0
 10
43.550417
 20
-0.000000
 30
0.0
 10
46.654861
 20
3.272028
 30
0.0
 10
50.006250
 20
0.899583
 30
0.0
 10
52.131736
 20
4.656667
 30
0.0
 10
56.462083
 20
1.957917
 30
0.0
 10
57.934931
 20
5.723805
 30
0.0
 10
61.938958
 20
4.004028
 30
0.0
 10
62.018333
 20
8.828250
 30
0.0
 10
66.348681
 20
7.108472
 30
0.0
 10
67.080694
 20
11.112500
 30
0.0
 10
70.432083
 20
11.112500
 30
0.0
 10
70.432083
 20
15.116528
 30
0.0
 10
73.783472
 20
15.442847
 30
0.0
 10
73.536528
 20
19.773194
 30
0.0
 10
77.708125
 20
20.505208
 30
0.0
 10
76.561597
 20
24.509236
 30
0.0
 10
79.833611
 20
24.756181
 30
0.0
 10
78.034444
 20
28.107569
 30
0.0
 10
81.544583
 20
29.086528
 30
0.0
 10
79.419097
 20
32.190972
 30
0.0
 10
82.364792
 20
33.178750
 30
0.0
 10
79.833611
 20
36.115625
 30
0.0
 10
82.611736
 20
38.241111
 30
0.0
 10
79.833611
 20
40.939861
 30
0.0
 10
82.691111
 20
43.065347
 30
0.0
 10
80.486250
 20
45.182014
 30
0.0
 10
83.423125
 20
47.069375
 30
0.0
 10
79.745417
 20
49.027292
 30
0.0
 10
82.691111
 20
51.805417
 30
0.0
 10
78.528333
 20
53.604583
 30
0.0
 10
81.059514
 20
56.541458
 30
0.0
 10
76.729167
 20
57.687986
 30
0.0
 10
77.787500
 20
60.960000
 30
0.0
 10
74.524306
 20
62.185903
 30
0.0
 10
76.076528
 20
65.696042
 30
0.0
 10
71.252292
 20
65.449097
 30
0.0
 10
71.499236
 20
70.026389
 30
0.0
 10
67.248264
 20
69.453125
 30
0.0
 10
67.407014
 20
73.624722
 30
0.0
 10
63.649931
 20
72.557569
 30
0.0
 10
62.917917
 20
76.729167
 30
0.0
 10
58.834514
 20
75.415069
 30
0.0
 10
58.508194
 20
78.687083
 30
0.0
 10
53.683958
 20
77.461181
 30
0.0
 10
52.211111
 20
81.465208
 30
0.0
 10
47.960139
 20
79.013403
 30
0.0
 10
46.407917
 20
82.611736
 30
0.0
 10
42.324514
 20
79.586667
 30
0.0
 10
40.199028
 20
82.364792
 30
0.0
 10
37.667847
 20
79.339722
 30
0.0
 10
34.157708
 20
82.117847
 30
0.0
 10
31.458958
 20
78.193194
 30
0.0
 10
29.501042
 20
80.486250
 30
0.0
 10
27.454931
 20
77.055486
 30
0.0
 10
23.618472
 20
78.607708
 30
0.0
 10
22.957014
 20
74.762431
 30
0.0
 10
19.367500
 20
76.076528
 30
0.0
 10
18.952986
 20
72.398819
 30
0.0
 10
15.116528
 20
72.725139
 30
0.0
 10
14.710833
 20
68.879861
 30
0.0
 10
11.280069
 20
69.532500
 30
0.0
 10
11.112500
 20
64.875833
 30
0.0
 10
6.949722
 20
64.796458
 30
0.0
 10
8.166806
 20
60.466111
 30
0.0
 10
4.982986
 20
60.298542
 30
0.0
 10
5.803194
 20
56.215139
 30
0.0
 10
2.857500
 20
55.236181
 30
0.0
 10
4.409722
 20
52.211111
 30
0.0
 10
2.204861
 20
51.558472
 30
0.0
 10
3.836458
 20
48.780347
 30
0.0
 10
0.899583
 20
47.880764
 30
0.0
 10
3.677708
 20
45.023264
 30
0.0
 10
0.000000
 20
42.739028
 30
0.0
 10
3.430764
 20
40.287222
 30
0.0
 10
0.573264
 20
38.488056
 30
0.0
 10
3.510139
 20
36.688889
 30
0.0
 10
1.058333
 20
33.910764
 30
0.0
 10
4.004028
 20
32.358542
 30
0.0
 10
1.631597
 20
29.986111
 30
0.0
 10
5.476875
 20
29.412847
 30
0.0
 10
3.183819
 20
26.229028
 30
0.0
 10
6.861528
 20
25.250069
 30
0.0
 10
5.229931
 20
21.731111
 30
0.0
 10
8.987014
 20
21.325417
 30
0.0
 10
7.681736
 20
17.647708
 30
0.0
 10
11.844514
 20
16.995069
 30
0.0
 10
10.380486
 20
14.058194
 30
0.0
 10
15.284097
 20
13.564306
 30
0.0
 10
15.284097
 20
8.907639
 30
0.0
 10
19.041181
 20
10.380472
 30
0.0
 10
18.952986
 20
6.376472
 30
0.0
 10
24.024167
 20
7.355417
 30
0.0
 10
23.697847
 20
3.598333
 30
0.0
 10
28.275139
 20
4.736028
 30
0.0
 10
30.559375
 20
1.305278
 30
0.0
 10
33.910764
 20
3.104444
 30
0.0
 10
36.521319
 20
0.167584
 30
0.0
 10
40.287222
 20
2.531195
 30
0.0
 10
43.550417
 20
-0.000000
 30
0.0
 10
46.654861
 20
3.272028
 30
0.0
 10
50.006250
 20
0.899583
 30
0.0
 10
52.131736
 20
4.656667
 30
0.0
 10
56.462083
 20
1.957917
 30
0.0
 10
57.934931
 20
5.723805
 30
0.0
 10
61.938958
 20
4.004028
 30
0.0
 10
62.018333
 20
8.828250
 30
0.0
 10
66.348681
 20
7.108472
 30
0.0
 10
67.080694
 20
11.112500
 30
0.0
 10
70.432083
 20
11.112500
 30
0.0
 10
70.432083
 20
15.116528
 30
0.0
 10
73.783472
 20
15.442847
 30
0.0
 10
73.536528
 20
19.773194
 30
0.0
 10
77.708125
 20
20.505208
 30
0.0
 10
76.561597
 20
24.509236
 30
0.0
 10
79.833611
 20
24.756181
 30
0.0
 10
78.034444
 20
28.107569
 30
0.0
 10
81.544583
 20
29.086528
 30
0.0
 10
79.419097
 20
32.190972
 30
0.0
 10
82.364792
 20
33.178750
 30
0.0
 10
79.833611
 20
36.115625
 30
0.0
 10
82.611736
 20
38.241111
 30
0.0
 10
79.833611
 20
40.939861
 30
0.0
 10
82.691111
 20
43.065347
 30
0.0
 10
80.486250
 20
45.182014
 30
0.0
 10
83.423125
 20
47.069375
 30
0.0
 10
79.745417
 20
49.027292
 30
0.0
 10
82.691111
 20
51.805417
 30
0.0
 10
78.528333
 20
53.604583
 30
0.0
 10
81.059514
 20
56.541458
 30
0.0
 10
76.729167
 20
57.687986
 30
0.0
 10
77.787500
 20
60.960000
 30
0.0
 10
74.524306
 20
62.185903
 30
0.0
 10
76.076528
 20
65.696042
 30
0.0
 10
71.252292
 20
65.449097
 30
0.0
 10
71.499236
 20
70.026389
 30
0.0
 10
67.248264
 20
69.453125
 30
0.0
 10
67.407014
 20
73.624722
 30
0.0
 10
63.649931
 20
72.557569
 30
0.0
 10
62.917917
 20
76.729167
 30
0.0
 10
58.834514
 20
75.415069
 30
0.0
 10
58.508194
 20
78.687083
 30
0.0
 10
53.683958
 20
77.461181
 30
0.0
 10
52.211111
 20
81.465208
 30
0.0
 10
47.960139
 20
79.013403
 30
0.0
 10
46.407917
 20
82.611736
 30
0.0
  0
LWPOLYLINE
  5
101
100
AcDbEntity
  8
Outer
 62
7
100
AcDbPolyline
 90
65
 70
0
 10
41.627778
 20
78.457778
 30
0.0
 10
45.451144
 20
78.264715
 30
0.0
 10
49.164062
 20
77.698055
 30
0.0
 10
52.747743
 20
76.776597
 30
0.0
 10
56.183383
 20
75.519136
 30
0.0
 10
59.452191
 20
73.944472
 30
0.0
 10
62.535367
 20
72.071394
 30
0.0
 10
65.414116
 20
69.918704
 30
0.0
 10
68.069643
 20
67.505199
 30
0.0
 10
70.483149
 20
64.849671
 30
0.0
 10
72.635838
 20
61.970923
 30
0.0
 10
74.508916
 20
58.887747
 30
0.0
 10
76.083581
 20
55.618939
 30
0.0
 10
77.341041
 20
52.183298
 30
0.0
 10
78.262500
 20
48.599618
 30
0.0
 10
78.829160
 20
44.886699
 30
0.0
 10
79.022222
 20
41.063333
 30
0.0
 10
78.829160
 20
37.239967
 30
0.0
 10
78.262500
 20
33.527049
 30
0.0
 10
77.341041
 20
29.943369
 30
0.0
 10
76.083581
 20
26.507728
 30
0.0
 10
74.508916
 20
23.238920
 30
0.0
 10
72.635838
 20
20.155744
 30
0.0
 10
70.483149
 20
17.276995
 30
0.0
 10
68.069643
 20
14.621482
 30
0.0
 10
65.414116
 20
12.207974
 30
0.0
 10
62.535367
 20
10.055267
 30
0.0
 10
59.452191
 20
8.182187
 30
0.0
 10
56.183383
 20
6.607528
 30
0.0
 10
52.747743
 20
5.350058
 30
0.0
 10
49.164062
 20
4.428603
 30
0.0
 10
45.451144
 20
3.861957
 30
0.0
 10
41.627778
 20
3.668889
 30
0.0
 10
37.804412
 20
3.861957
 30
0.0
 10
34.091493
 20
4.428603
 30
0.0
 10
30.507813
 20
5.350058
 30
0.0
 10
27.072172
 20
6.607528
 30
0.0
 10
23.803365
 20
8.182187
 30
0.0
 10
20.720188
 20
10.055267
 30
0.0
 10
17.841439
 20
12.207974
 30
0.0
 10
15.185912
 20
14.621482
 30
0.0
 10
12.772406
 20
17.276995
 30
0.0
 10
10.619717
 20
20.155744
 30
0.0
 10
8.746641
 20
23.238920
 30
0.0
 10
7.171974
 20
26.507728
 30
0.0
 10
5.914514
 20
29.943369
 30
0.0
 10
4.993056
 20
33.527049
 30
0.0
 10
4.426397
 20
37.239967
 30
0.0
 10
4.233333
 20
41.063333
 30
0.0
 10
4.426397
 20
44.886699
 30
0.0
 10
4.993056
 20
48.599618
 30
0.0
 10
5.914514
 20
52.183298
 30
0.0
 10
7.171974
 20
55.618939
 30
0.0
 10
8.746641
 20
58.887747
 30
0.0
 10
10.619717
 20
61.970923
 30
0.0
 10
12.772406
 20
64.849671
 30
0.0
 10
15.185912
 20
67.505199
 30
0.0
 10
17.841439
 20
69.918704
 30
0.0
 10
20.720188
 20
72.071394
 30
0.0
 10
23.803365
 20
73.944472
 30
0.0
 10
27.072172
 20
75.519136
 30
0.0
 10
30.507813
 20
76.776597
 30
0.0
 10
34.091493
 20
77.698055
 30
0.0
 10
37.804412
 20
78.264715
 30
0.0
 10
41.627778
 20
78.457778
 30
0.0
  0
LWPOLYLINE
  5
102
100
AcDbEntity
  8
Inner
 62
7
100
AcDbPolyline
 90
129
 70
0
 10
41.612323
 20
4.078993
 30
0.0
 10
37.885374
 20
4.276302
 30
0.0
 10
37.841527
 20
4.276302
 30
0.0
 10
34.224190
 20
4.824383
 30
0.0
 10
34.180343
 20
4.835344
 30
0.0
 10
30.683588
 20
5.745158
 30
0.0
 10
30.639742
 20
5.756119
 30
0.0
 10
27.285488
 20
6.994781
 30
0.0
 10
27.241641
 20
7.016703
 30
0.0
 10
24.040850
 20
8.551328
 30
0.0
 10
23.997003
 20
8.573250
 30
0.0
 10
20.982559
 20
10.414802
 30
0.0
 10
20.949673
 20
10.436723
 30
0.0
 10
18.132539
 20
12.552315
 30
0.0
 10
18.099653
 20
12.574237
 30
0.0
 10
15.501750
 20
14.930984
 30
0.0
 10
15.468864
 20
14.963870
 30
0.0
 10
13.101155
 20
17.572734
 30
0.0
 10
13.079234
 20
17.605620
 30
0.0
 10
10.974604
 20
20.422756
 30
0.0
 10
10.952682
 20
20.455638
 30
0.0
 10
9.111131
 20
23.470083
 30
0.0
 10
9.089209
 20
23.513929
 30
0.0
 10
7.543621
 20
26.703759
 30
0.0
 10
7.521700
 20
26.747605
 30
0.0
 10
6.293999
 20
30.101860
 30
0.0
 10
6.283038
 20
30.145706
 30
0.0
 10
5.373224
 20
33.642461
 30
0.0
 10
5.362263
 20
33.686307
 30
0.0
 10
4.803221
 20
37.303643
 30
0.0
 10
4.803221
 20
37.347490
 30
0.0
 10
4.616873
 20
41.074439
 30
0.0
 10
4.616873
 20
41.118282
 30
0.0
 10
4.803221
 20
44.834270
 30
0.0
 10
4.803221
 20
44.878117
 30
0.0
 10
5.362263
 20
48.495451
 30
0.0
 10
5.373224
 20
48.539298
 30
0.0
 10
6.283038
 20
52.036056
 30
0.0
 10
6.293999
 20
52.079895
 30
0.0
 10
7.521700
 20
55.434152
 30
0.0
 10
7.543621
 20
55.477999
 30
0.0
 10
9.089209
 20
58.678794
 30
0.0
 10
9.111131
 20
58.722637
 30
0.0
 10
10.952682
 20
61.737081
 30
0.0
 10
10.974604
 20
61.769960
 30
0.0
 10
13.079234
 20
64.587095
 30
0.0
 10
13.101155
 20
64.619939
 30
0.0
 10
15.468864
 20
67.217844
 30
0.0
 10
15.501750
 20
67.250687
 30
0.0
 10
18.099653
 20
69.618394
 30
0.0
 10
18.132539
 20
69.640337
 30
0.0
 10
20.949673
 20
71.744967
 30
0.0
 10
20.982559
 20
71.766910
 30
0.0
 10
23.997003
 20
73.608459
 30
0.0
 10
24.040850
 20
73.630402
 30
0.0
 10
27.241641
 20
75.175985
 30
0.0
 10
27.285488
 20
75.197928
 30
0.0
 10
30.639742
 20
76.425630
 30
0.0
 10
30.683588
 20
76.436601
 30
0.0
 10
34.180343
 20
77.346415
 30
0.0
 10
34.224190
 20
77.357386
 30
0.0
 10
37.841527
 20
77.916430
 30
0.0
 10
37.885374
 20
77.916430
 30
0.0
 10
41.612323
 20
78.102777
 30
0.0
 10
41.656166
 20
78.102777
 30
0.0
 10
45.383111
 20
77.916430
 30
0.0
 10
45.426958
 20
77.916430
 30
0.0
 10
49.044296
 20
77.357386
 30
0.0
 10
49.088146
 20
77.346415
 30
0.0
 10
52.584897
 20
76.436601
 30
0.0
 10
52.628744
 20
76.425630
 30
0.0
 10
55.993954
 20
75.197928
 30
0.0
 10
56.037801
 20
75.175985
 30
0.0
 10
59.227635
 20
73.630402
 30
0.0
 10
59.271475
 20
73.608459
 30
0.0
 10
62.296887
 20
71.766910
 30
0.0
 10
62.329730
 20
71.744967
 30
0.0
 10
65.146862
 20
69.640337
 30
0.0
 10
65.179741
 20
69.618394
 30
0.0
 10
67.777639
 20
67.250687
 30
0.0
 10
67.810518
 20
67.217844
 30
0.0
 10
70.178224
 20
64.619939
 30
0.0
 10
70.200167
 20
64.587095
 30
0.0
 10
72.304794
 20
61.769960
 30
0.0
 10
72.326736
 20
61.737081
 30
0.0
 10
74.168293
 20
58.722637
 30
0.0
 10
74.190236
 20
58.678794
 30
0.0
 10
75.735826
 20
55.477999
 30
0.0
 10
75.757768
 20
55.434152
 30
0.0
 10
76.996431
 20
52.079895
 30
0.0
 10
77.007402
 20
52.036056
 30
0.0
 10
77.906256
 20
48.539298
 30
0.0
 10
77.917192
 20
48.495451
 30
0.0
 10
78.476320
 20
44.878117
 30
0.0
 10
78.476320
 20
44.834270
 30
0.0
 10
78.662671
 20
41.118282
 30
0.0
 10
78.662671
 20
41.074439
 30
0.0
 10
78.476320
 20
37.347490
 30
0.0
 10
78.476320
 20
37.303643
 30
0.0
 10
77.917276
 20
33.686307
 30
0.0
 10
77.906340
 20
33.642461
 30
0.0
 10
77.007470
 20
30.145706
 30
0.0
 10
76.996498
 20
30.101860
 30
0.0
 10
75.757821
 20
26.747605
 30
0.0
 10
75.735878
 20
26.703759
 30
0.0
 10
74.190288
 20
23.513929
 30
0.0
 10
74.168346
 20
23.470083
 30
0.0
 10
72.326789
 20
20.455638
 30
0.0
 10
72.304846
 20
20.422756
 30
0.0
 10
70.200217
 20
17.605620
 30
0.0
 10
70.178274
 20
17.572734
 30
0.0
 10
67.810567
 20
14.963870
 30
0.0
 10
67.777653
 20
14.930984
 30
0.0
 10
65.179755
 20
12.574237
 30
0.0
 10
65.146876
 20
12.552315
 30
0.0
 10
62.329737
 20
10.436723
 30
0.0
 10
62.296894
 20
10.414802
 30
0.0
 10
59.271482
 20
8.573250
 30
0.0
 10
59.227642
 20
8.551328
 30
0.0
 10
56.037812
 20
7.016703
 30
0.0
 10
55.993965
 20
6.994781
 30
0.0
 10
52.628751
 20
5.756119
 30
0.0
 10
52.584904
 20
5.745158
 30
0.0
 10
49.088153
 20
4.835344
 30
0.0
 10
49.044303
 20
4.824383
 30
0.0
 10
45.426969
 20
4.276302
 30
0.0
 10
45.383122
 20
4.276302
 30
0.0
 10
41.656229
 20
4.078993
 30
0.0
 10
41.612323
 20
4.078993
 30
0.0
  0
LWPOLYLINE
  5
103
100
AcDbEntity
  8
Inner
 62
7
100
AcDbPolyline
 90
354
 70
0
 10
61.474763
 20
13.067518
 30
0.0
 10
62.724386
 20
13.988293
 30
0.0
 10
62.746329
 20
13.999253
 30
0.0
 10
64.302880
 20
15.281763
 30
0.0
 10
64.324823
 20
15.303684
 30
0.0
 10
65.793676
 20
16.684848
 30
0.0
 10
67.207726
 20
18.164666
 30
0.0
 10
67.229669
 20
18.186587
 30
0.0
 10
68.534100
 20
19.732175
 30
0.0
 10
68.545071
 20
19.754097
 30
0.0
 10
69.750848
 20
21.365454
 30
0.0
 10
69.772791
 20
21.387376
 30
0.0
 10
70.890871
 20
23.086426
 30
0.0
 10
70.901842
 20
23.108348
 30
0.0
 10
71.921268
 20
24.873168
 30
0.0
 10
71.932239
 20
24.895090
 30
0.0
 10
72.842056
 20
26.703756
 30
0.0
 10
72.852993
 20
26.736642
 30
0.0
 10
73.664152
 20
28.622040
 30
0.0
 10
73.675124
 20
28.643962
 30
0.0
 10
74.354739
 20
30.584168
 30
0.0
 10
74.365711
 20
30.606089
 30
0.0
 10
74.946683
 20
32.623027
 30
0.0
 10
74.957654
 20
32.623027
 30
0.0
 10
75.407076
 20
34.650926
 30
0.0
 10
75.418047
 20
34.683811
 30
0.0
 10
75.735935
 20
36.755553
 30
0.0
 10
75.735935
 20
36.777496
 30
0.0
 10
75.944204
 20
38.893087
 30
0.0
 10
75.944204
 20
38.925966
 30
0.0
 10
76.009976
 20
41.074442
 30
0.0
 10
76.009976
 20
41.107356
 30
0.0
 10
75.856514
 20
44.395838
 30
0.0
 10
75.385161
 20
47.629516
 30
0.0
 10
75.374225
 20
47.673362
 30
0.0
 10
74.617869
 20
50.753574
 30
0.0
 10
74.606898
 20
50.797418
 30
0.0
 10
73.565544
 20
53.778979
 30
0.0
 10
73.554572
 20
53.811858
 30
0.0
 10
72.261102
 20
56.661876
 30
0.0
 10
72.239159
 20
56.705726
 30
0.0
 10
70.693576
 20
59.402281
 30
0.0
 10
70.671634
 20
59.435160
 30
0.0
 10
68.895849
 20
61.967293
 30
0.0
 10
68.873906
 20
62.000208
 30
0.0
 10
66.846006
 20
64.400797
 30
0.0
 10
64.653682
 20
66.571199
 30
0.0
 10
64.620839
 20
66.604078
 30
0.0
 10
62.231207
 20
68.566203
 30
0.0
 10
62.198328
 20
68.588146
 30
0.0
 10
59.633312
 20
70.342002
 30
0.0
 10
59.600433
 20
70.363944
 30
0.0
 10
56.881952
 20
71.876648
 30
0.0
 10
56.849074
 20
71.898591
 30
0.0
 10
53.933284
 20
73.170140
 30
0.0
 10
50.951726
 20
74.167647
 30
0.0
 10
50.907879
 20
74.178619
 30
0.0
 10
47.805742
 20
74.891124
 30
0.0
 10
47.761899
 20
74.902060
 30
0.0
 10
45.196880
 20
75.230909
 30
0.0
 10
46.402657
 20
71.372423
 30
0.0
 10
46.413628
 20
71.361452
 30
0.0
 10
47.520782
 20
67.218080
 30
0.0
 10
47.520782
 20
67.196137
 30
0.0
 10
48.518293
 20
62.910145
 30
0.0
 10
49.504836
 20
58.328193
 30
0.0
 10
51.017540
 20
58.393961
 30
0.0
 10
51.028512
 20
58.393961
 30
0.0
 10
52.650835
 20
58.448769
 30
0.0
 10
54.262193
 20
58.503573
 30
0.0
 10
56.147589
 20
58.558384
 30
0.0
 10
56.587443
 20
58.165986
 30
0.0
 10
56.268165
 20
57.670495
 30
0.0
 10
50.118698
 20
56.135870
 30
0.0
 10
50.096755
 20
56.124898
 30
0.0
 10
44.341909
 20
55.017783
 30
0.0
 10
44.298062
 20
55.017783
 30
0.0
 10
38.258210
 20
54.425854
 30
0.0
 10
38.214364
 20
54.425854
 30
0.0
 10
31.297601
 20
54.414847
 30
0.0
 10
29.631435
 20
53.822921
 30
0.0
 10
28.129694
 20
53.296764
 30
0.0
 10
28.118733
 20
53.296764
 30
0.0
 10
26.869110
 20
52.869264
 30
0.0
 10
31.823760
 20
52.419832
 30
0.0
 10
31.856642
 20
52.419832
 30
0.0
 10
37.973226
 20
52.310220
 30
0.0
 10
37.984197
 20
52.310220
 30
0.0
 10
44.035006
 20
52.989840
 30
0.0
 10
44.089817
 20
53.000811
 30
0.0
 10
50.842168
 20
54.743710
 30
0.0
 10
50.864110
 20
54.743710
 30
0.0
 10
54.744518
 20
55.883715
 30
0.0
 10
54.777432
 20
55.883715
 30
0.0
 10
58.197454
 20
56.651028
 30
0.0
 10
58.219396
 20
56.661999
 30
0.0
 10
61.595572
 20
57.210082
 30
0.0
 10
61.617514
 20
57.210082
 30
0.0
 10
65.388307
 20
57.692396
 30
0.0
 10
65.443114
 20
57.692396
 30
0.0
 10
67.153130
 20
57.681424
 30
0.0
 10
67.481976
 20
57.549884
 30
0.0
 10
67.909479
 20
57.100452
 30
0.0
 10
67.986212
 20
56.574298
 30
0.0
 10
67.635438
 20
55.916601
 30
0.0
 10
67.536783
 20
55.785064
 30
0.0
 10
66.857164
 20
55.171209
 30
0.0
 10
66.791396
 20
55.127363
 30
0.0
 10
62.976753
 20
52.671962
 30
0.0
 10
62.921981
 20
52.639083
 30
0.0
 10
59.348493
 20
50.994843
 30
0.0
 10
59.304647
 20
50.983871
 30
0.0
 10
55.522887
 20
49.778094
 30
0.0
 10
55.500944
 20
49.767123
 30
0.0
 10
51.510918
 20
48.692887
 30
0.0
 10
52.201501
 20
45.809983
 30
0.0
 10
52.190530
 20
45.535906
 30
0.0
 10
51.346485
 20
43.288772
 30
0.0
 10
51.050522
 20
43.014734
 30
0.0
 10
49.340512
 20
42.499534
 30
0.0
 10
48.880123
 20
42.620117
 30
0.0
 10
47.082417
 20
44.494549
 30
0.0
 10
46.983763
 20
44.669936
 30
0.0
 10
46.720682
 20
45.437249
 30
0.0
 10
46.698740
 20
45.546867
 30
0.0
 10
46.643932
 20
46.281298
 30
0.0
 10
46.643932
 20
46.401870
 30
0.0
 10
46.786433
 20
47.114375
 30
0.0
 10
46.830280
 20
47.234955
 30
0.0
 10
47.170093
 20
47.892652
 30
0.0
 10
47.411245
 20
48.495539
 30
0.0
 10
47.378401
 20
49.032657
 30
0.0
 10
47.148207
 20
49.569779
 30
0.0
 10
47.115363
 20
49.635551
 30
0.0
 10
46.775553
 20
50.183630
 30
0.0
 10
46.764582
 20
50.194602
 30
0.0
 10
46.589192
 20
50.391907
 30
0.0
 10
46.391883
 20
50.523443
 30
0.0
 10
46.194578
 20
50.556322
 30
0.0
 10
45.876690
 20
50.435743
 30
0.0
 10
45.843846
 20
50.424771
 30
0.0
 10
44.254409
 20
49.701305
 30
0.0
 10
44.144794
 20
49.668426
 30
0.0
 10
42.621126
 20
49.416310
 30
0.0
 10
42.456703
 20
49.416310
 30
0.0
 10
41.152272
 20
49.679391
 30
0.0
 10
40.943936
 20
49.789006
 30
0.0
 10
40.001232
 20
50.622091
 30
0.0
 10
39.979290
 20
50.633027
 30
0.0
 10
39.606594
 20
50.994762
 30
0.0
 10
39.365435
 20
51.060530
 30
0.0
 10
39.201016
 20
50.983801
 30
0.0
 10
39.003704
 20
50.523408
 30
0.0
 10
38.894089
 20
49.657444
 30
0.0
 10
38.894089
 20
49.635502
 30
0.0
 10
38.828317
 20
48.769531
 30
0.0
 10
38.828317
 20
48.758560
 30
0.0
 10
38.751570
 20
47.903553
 30
0.0
 10
38.751570
 20
47.859707
 30
0.0
 10
38.576183
 20
47.004704
 30
0.0
 10
38.576183
 20
46.993732
 30
0.0
 10
38.499454
 20
46.566229
 30
0.0
 10
38.510425
 20
46.522379
 30
0.0
 10
38.674851
 20
46.555258
 30
0.0
 10
38.685788
 20
46.566229
 30
0.0
 10
38.926946
 20
46.610072
 30
0.0
 10
38.948889
 20
46.621009
 30
0.0
 10
39.146194
 20
46.664859
 30
0.0
 10
39.168172
 20
46.675901
 30
0.0
 10
39.398363
 20
46.719751
 30
0.0
 10
39.661444
 20
46.774559
 30
0.0
 10
40.176641
 20
46.160708
 30
0.0
 10
40.034139
 20
45.798976
 30
0.0
 10
39.979332
 20
45.470124
 30
0.0
 10
39.979332
 20
45.228969
 30
0.0
 10
40.823374
 20
45.272815
 30
0.0
 10
41.974343
 20
45.327623
 30
0.0
 10
41.985315
 20
45.327623
 30
0.0
 10
43.136287
 20
45.349566
 30
0.0
 10
43.147259
 20
45.349566
 30
0.0
 10
44.407847
 20
45.360537
 30
0.0
 10
44.769578
 20
44.637067
 30
0.0
 10
44.111880
 20
43.793025
 30
0.0
 10
44.002300
 20
43.694385
 30
0.0
 10
43.234984
 20
43.168231
 30
0.0
 10
43.015754
 20
43.091502
 30
0.0
 10
42.303248
 20
43.036691
 30
0.0
 10
41.919588
 20
43.201114
 30
0.0
 10
41.579786
 20
43.617656
 30
0.0
 10
40.933049
 20
43.672467
 30
0.0
 10
40.911106
 20
43.672467
 30
0.0
 10
40.176679
 20
43.716310
 30
0.0
 10
40.154737
 20
43.716310
 30
0.0
 10
39.442231
 20
43.782082
 30
0.0
 10
39.387424
 20
43.793054
 30
0.0
 10
38.916077
 20
43.902669
 30
0.0
 10
38.784537
 20
43.771132
 30
0.0
 10
38.521457
 20
43.519016
 30
0.0
 10
38.280301
 20
43.288821
 30
0.0
 10
38.620111
 20
43.212089
 30
0.0
 10
39.650501
 20
43.179210
 30
0.0
 10
39.683380
 20
43.179210
 30
0.0
 10
40.845310
 20
43.223057
 30
0.0
 10
41.272813
 20
42.576320
 30
0.0
 10
40.976850
 20
41.962472
 30
0.0
 10
40.648005
 20
41.710352
 30
0.0
 10
39.551843
 20
41.534973
 30
0.0
 10
39.442228
 20
41.534973
 30
0.0
 10
38.072021
 20
41.644584
 30
0.0
 10
37.995292
 20
41.655555
 30
0.0
 10
37.315673
 20
41.819985
 30
0.0
 10
37.184136
 20
40.921129
 30
0.0
 10
37.600678
 20
39.824963
 30
0.0
 10
38.609143
 20
39.057654
 30
0.0
 10
40.362999
 20
38.794574
 30
0.0
 10
40.735698
 20
38.443803
 30
0.0
 10
40.911081
 20
37.687455
 30
0.0
 10
41.064543
 20
37.018796
 30
0.0
 10
41.207044
 20
36.350134
 30
0.0
 10
41.360506
 20
35.648593
 30
0.0
 10
41.612626
 20
35.221091
 30
0.0
 10
41.809935
 20
35.166281
 30
0.0
 10
42.029165
 20
35.286858
 30
0.0
 10
42.226477
 20
35.856859
 30
0.0
 10
42.248420
 20
36.383020
 30
0.0
 10
42.270362
 20
36.898213
 30
0.0
 10
42.292305
 20
37.424374
 30
0.0
 10
42.292305
 20
37.435345
 30
0.0
 10
42.336149
 20
38.038236
 30
0.0
 10
42.336149
 20
38.049207
 30
0.0
 10
42.379999
 20
38.542479
 30
0.0
 10
42.390970
 20
38.619211
 30
0.0
 10
42.511550
 20
39.046714
 30
0.0
 10
42.555396
 20
39.145369
 30
0.0
 10
42.741776
 20
39.485231
 30
0.0
 10
42.829466
 20
39.594846
 30
0.0
 10
43.048703
 20
39.792159
 30
0.0
 10
43.059675
 20
39.803130
 30
0.0
 10
43.640636
 20
40.570443
 30
0.0
 10
44.068139
 20
41.622758
 30
0.0
 10
44.068139
 20
41.633729
 30
0.0
 10
44.517568
 20
42.609315
 30
0.0
 10
44.671029
 20
42.795659
 30
0.0
 10
45.317763
 20
43.245087
 30
0.0
 10
45.849452
 20
43.237397
 30
0.0
 10
46.008364
 20
42.729958
 30
0.0
 10
45.493171
 20
41.107639
 30
0.0
 10
45.021818
 20
39.682628
 30
0.0
 10
44.528546
 20
38.213774
 30
0.0
 10
44.035271
 20
36.755878
 30
0.0
 10
45.997403
 20
35.034905
 30
0.0
 10
46.041247
 20
35.002015
 30
0.0
 10
48.003379
 20
32.842577
 30
0.0
 10
48.025322
 20
32.809688
 30
0.0
 10
49.932639
 20
30.343324
 30
0.0
 10
49.943611
 20
30.332364
 30
0.0
 10
51.708435
 20
27.898885
 30
0.0
 10
52.607281
 20
28.731968
 30
0.0
 10
53.703446
 20
29.751398
 30
0.0
 10
54.799607
 20
30.781789
 30
0.0
 10
55.961538
 20
31.866989
 30
0.0
 10
56.290386
 20
34.300468
 30
0.0
 10
56.290386
 20
34.311429
 30
0.0
 10
56.586346
 20
36.547598
 30
0.0
 10
56.871348
 20
38.794729
 30
0.0
 10
57.222122
 20
41.414559
 30
0.0
 10
57.792126
 20
41.798212
 30
0.0
 10
57.824970
 20
41.787240
 30
0.0
 10
57.868820
 20
41.776269
 30
0.0
 10
57.879791
 20
41.776269
 30
0.0
 10
57.890763
 20
41.776269
 30
0.0
 10
57.956602
 20
41.765227
 30
0.0
 10
57.967573
 20
41.765227
 30
0.0
 10
58.033345
 20
41.754256
 30
0.0
 10
58.406037
 20
41.260984
 30
0.0
 10
57.890844
 20
35.999402
 30
0.0
 10
57.561992
 20
32.349187
 30
0.0
 10
57.561992
 20
32.338227
 30
0.0
 10
57.386608
 20
29.959556
 30
0.0
 10
57.386608
 20
29.948596
 30
0.0
 10
57.342761
 20
29.071666
 30
0.0
 10
58.449884
 20
29.323784
 30
0.0
 10
58.460855
 20
29.323784
 30
0.0
 10
59.951638
 20
29.992442
 30
0.0
 10
61.212226
 20
30.924179
 30
0.0
 10
61.234168
 20
30.935140
 30
0.0
 10
62.286483
 20
32.129956
 30
0.0
 10
62.308426
 20
32.151877
 30
0.0
 10
62.845548
 20
32.853421
 30
0.0
 10
62.878391
 20
32.886307
 30
0.0
 10
63.393592
 20
33.445349
 30
0.0
 10
63.448399
 20
33.500157
 30
0.0
 10
64.018403
 20
33.938622
 30
0.0
 10
64.117058
 20
33.993430
 30
0.0
 10
64.643215
 20
34.223624
 30
0.0
 10
65.048797
 20
36.043249
 30
0.0
 10
65.454375
 20
37.764223
 30
0.0
 10
65.454375
 20
37.775194
 30
0.0
 10
65.859953
 20
39.441360
 30
0.0
 10
66.320342
 20
41.359638
 30
0.0
 10
66.934196
 20
41.666566
 30
0.0
 10
67.065730
 20
41.611762
 30
0.0
 10
67.175348
 20
41.567911
 30
0.0
 10
67.197291
 20
41.556940
 30
0.0
 10
67.295949
 20
41.524061
 30
0.0
 10
67.317892
 20
41.513090
 30
0.0
 10
67.449432
 20
41.458282
 30
0.0
 10
67.712512
 20
40.943085
 30
0.0
 10
67.263081
 20
38.991917
 30
0.0
 10
66.868467
 20
37.314791
 30
0.0
 10
66.473846
 20
35.637660
 30
0.0
 10
66.473846
 20
35.626689
 30
0.0
 10
66.057304
 20
33.861873
 30
0.0
 10
66.386156
 20
33.237061
 30
0.0
 10
66.440964
 20
32.963021
 30
0.0
 10
66.353267
 20
32.195708
 30
0.0
 10
66.309427
 20
32.042245
 30
0.0
 10
65.914803
 20
31.285893
 30
0.0
 10
65.870959
 20
31.220124
 30
0.0
 10
65.377684
 20
30.562427
 30
0.0
 10
65.037875
 20
29.806075
 30
0.0
 10
64.950185
 20
29.038763
 30
0.0
 10
64.939213
 20
28.983954
 30
0.0
 10
64.741905
 20
28.227603
 30
0.0
 10
64.610365
 20
28.008370
 30
0.0
 10
63.974592
 20
27.416444
 30
0.0
 10
63.952649
 20
27.394522
 30
0.0
 10
63.700568
 20
27.186177
 30
0.0
 10
63.590953
 20
26.966945
 30
0.0
 10
63.569010
 20
26.670981
 30
0.0
 10
63.634782
 20
26.331171
 30
0.0
 10
63.744397
 20
25.837899
 30
0.0
 10
63.755369
 20
25.695398
 30
0.0
 10
63.711518
 20
25.235010
 30
0.0
 10
63.678675
 20
25.092509
 30
0.0
 10
63.481366
 20
24.654045
 30
0.0
 10
63.437516
 20
24.577313
 30
0.0
 10
63.130592
 20
24.149811
 30
0.0
 10
63.119621
 20
24.127889
 30
0.0
 10
62.878462
 20
23.744233
 30
0.0
 10
62.703082
 20
23.294806
 30
0.0
 10
62.637310
 20
22.801534
 30
0.0
 10
62.681157
 20
22.297299
 30
0.0
 10
62.637310
 20
22.045182
 30
0.0
 10
61.694610
 20
20.203631
 30
0.0
 10
61.453455
 20
19.995360
 30
0.0
 10
58.570534
 20
18.844391
 30
0.0
 10
59.052845
 20
17.298803
 30
0.0
 10
59.765350
 20
15.862831
 30
0.0
 10
59.787293
 20
15.818985
 30
0.0
 10
60.675185
 20
14.393975
 30
0.0
 10
60.686156
 20
14.383014
 30
0.0
 10
61.475391
 20
13.067621
 30
0.0
 10
61.474763
 20
13.067518
 30
0.0
  0
LWPOLYLINE
  5
104
100
AcDbEntity
  8
Inner
 62
7
100
AcDbPolyline
 90
126
 70
0
 10
49.482756
 20
14.733683
 30
0.0
 10
49.658143
 20
14.777529
 30
0.0
 10
50.096607
 20
15.237917
 30
0.0
 10
50.118550
 20
15.259838
 30
0.0
 10
50.436438
 20
15.796957
 30
0.0
 10
50.447409
 20
15.807918
 30
0.0
 10
50.754333
 20
16.334076
 30
0.0
 10
50.765304
 20
16.345037
 30
0.0
 10
51.094153
 20
16.871194
 30
0.0
 10
51.105089
 20
16.893116
 30
0.0
 10
51.521632
 20
17.474081
 30
0.0
 10
51.521632
 20
17.485042
 30
0.0
 10
51.883370
 20
18.000238
 30
0.0
 10
51.894341
 20
18.022160
 30
0.0
 10
52.299923
 20
18.559279
 30
0.0
 10
52.376652
 20
18.646971
 30
0.0
 10
52.935696
 20
19.085436
 30
0.0
 10
53.089157
 20
19.162167
 30
0.0
 10
53.878392
 20
19.392361
 30
0.0
 10
53.944160
 20
19.403322
 30
0.0
 10
55.818599
 20
19.677362
 30
0.0
 10
55.862446
 20
19.688323
 30
0.0
 10
57.528608
 20
20.104864
 30
0.0
 10
57.561487
 20
20.115825
 30
0.0
 10
59.139963
 20
20.641982
 30
0.0
 10
59.150934
 20
20.641982
 30
0.0
 10
60.619788
 20
21.201024
 30
0.0
 10
60.970559
 20
21.409296
 30
0.0
 10
61.124024
 20
21.683335
 30
0.0
 10
61.156868
 20
22.056030
 30
0.0
 10
61.080138
 20
22.615073
 30
0.0
 10
60.904755
 20
23.108346
 30
0.0
 10
60.893784
 20
23.130267
 30
0.0
 10
60.619742
 20
23.601616
 30
0.0
 10
60.312815
 20
24.072966
 30
0.0
 10
60.301844
 20
24.072966
 30
0.0
 10
59.929148
 20
24.642970
 30
0.0
 10
59.874341
 20
24.774509
 30
0.0
 10
59.731839
 20
25.311628
 30
0.0
 10
59.731839
 20
25.530861
 30
0.0
 10
59.841455
 20
26.013172
 30
0.0
 10
59.907223
 20
26.166634
 30
0.0
 10
60.181261
 20
26.572214
 30
0.0
 10
60.268965
 20
26.670869
 30
0.0
 10
60.630696
 20
26.966832
 30
0.0
 10
62.099550
 20
28.139725
 30
0.0
 10
63.151865
 20
29.411272
 30
0.0
 10
63.184708
 20
29.455118
 30
0.0
 10
64.094625
 20
30.891091
 30
0.0
 10
65.037328
 20
32.414755
 30
0.0
 10
65.179829
 20
32.853220
 30
0.0
 10
64.796169
 20
32.831298
 30
0.0
 10
64.456363
 20
32.699759
 30
0.0
 10
63.985013
 20
32.283217
 30
0.0
 10
63.963070
 20
32.261295
 30
0.0
 10
63.941127
 20
32.239374
 30
0.0
 10
63.557475
 20
31.789947
 30
0.0
 10
63.535532
 20
31.768026
 30
0.0
 10
63.140915
 20
31.241868
 30
0.0
 10
63.140915
 20
31.230907
 30
0.0
 10
62.691490
 20
30.628018
 30
0.0
 10
62.669547
 20
30.584172
 30
0.0
 10
62.296855
 20
30.167630
 30
0.0
 10
62.242044
 20
30.123784
 30
0.0
 10
61.803580
 20
29.762051
 30
0.0
 10
61.792608
 20
29.751090
 30
0.0
 10
61.321262
 20
29.389356
 30
0.0
 10
61.310291
 20
29.378396
 30
0.0
 10
60.784133
 20
28.961855
 30
0.0
 10
60.652593
 20
28.885123
 30
0.0
 10
59.402966
 20
28.446659
 30
0.0
 10
58.339690
 20
28.073964
 30
0.0
 10
57.276414
 20
27.701269
 30
0.0
 10
56.048712
 20
27.262805
 30
0.0
 10
55.774654
 20
27.251844
 30
0.0
 10
55.621195
 20
27.295690
 30
0.0
 10
55.369075
 20
27.482038
 30
0.0
 10
55.259460
 20
27.646462
 30
0.0
 10
55.182731
 20
27.832809
 30
0.0
 10
55.149852
 20
28.041080
 30
0.0
 10
55.226589
 20
28.358967
 30
0.0
 10
55.314279
 20
28.490506
 30
0.0
 10
55.555434
 20
28.676854
 30
0.0
 10
55.774664
 20
28.742623
 30
0.0
 10
55.862361
 20
28.753584
 30
0.0
 10
55.961015
 20
28.764545
 30
0.0
 10
55.993894
 20
29.115317
 30
0.0
 10
55.993894
 20
29.126277
 30
0.0
 10
56.048698
 20
29.553781
 30
0.0
 10
56.048698
 20
29.564741
 30
0.0
 10
56.092545
 20
29.992244
 30
0.0
 10
56.092545
 20
30.003205
 30
0.0
 10
56.136395
 20
30.386862
 30
0.0
 10
56.125424
 20
30.386862
 30
0.0
 10
55.336190
 20
29.619549
 30
0.0
 10
55.325218
 20
29.619549
 30
0.0
 10
54.590784
 20
28.907044
 30
0.0
 10
53.845400
 20
28.194538
 30
0.0
 10
53.834429
 20
28.194538
 30
0.0
 10
52.968419
 20
27.372417
 30
0.0
 10
52.957413
 20
27.361456
 30
0.0
 10
52.661453
 20
27.065493
 30
0.0
 10
52.628539
 20
27.032607
 30
0.0
 10
52.420270
 20
26.758567
 30
0.0
 10
52.398327
 20
26.736645
 30
0.0
 10
52.179093
 20
26.418758
 30
0.0
 10
51.894091
 20
26.013179
 30
0.0
 10
51.883120
 20
26.013179
 30
0.0
 10
51.071942
 20
24.906055
 30
0.0
 10
51.071942
 20
24.895094
 30
0.0
 10
50.370398
 20
23.952395
 30
0.0
 10
50.370398
 20
23.941435
 30
0.0
 10
49.668853
 20
22.987774
 30
0.0
 10
49.668853
 20
22.976814
 30
0.0
 10
48.934426
 20
21.979307
 30
0.0
 10
48.868658
 20
20.378911
 30
0.0
 10
48.868658
 20
20.356989
 30
0.0
 10
48.868658
 20
20.346028
 30
0.0
 10
48.912501
 20
18.756594
 30
0.0
 10
48.912501
 20
18.734673
 30
0.0
 10
49.033081
 20
17.112354
 30
0.0
 10
49.033081
 20
17.101393
 30
0.0
 10
49.208464
 20
15.369458
 30
0.0
 10
49.208464
 20
15.358497
 30
0.0
 10
49.372890
 20
14.810416
 30
0.0
 10
49.482756
 20
14.733683
 30
0.0
  0
LWPOLYLINE
  5
105
100
AcDbEntity
  8
Inner
 62
7
100
AcDbPolyline
 90
130
 70
0
 10
11.566532
 20
24.544328
 30
0.0
 10
13.484814
 20
26.627035
 30
0.0
 10
15.534636
 20
28.863205
 30
0.0
 10
17.628305
 20
31.099374
 30
0.0
 10
17.628305
 20
31.110335
 30
0.0
 10
20.105630
 20
33.686314
 30
0.0
 10
20.149476
 20
33.719203
 30
0.0
 10
21.563525
 20
34.859211
 30
0.0
 10
21.640256
 20
34.914019
 30
0.0
 10
22.977573
 20
35.582677
 30
0.0
 10
23.010462
 20
35.593648
 30
0.0
 10
24.194316
 20
36.097884
 30
0.0
 10
25.356248
 20
36.865200
 30
0.0
 10
26.123561
 20
37.588663
 30
0.0
 10
26.759335
 20
38.180589
 30
0.0
 10
26.770295
 20
38.191560
 30
0.0
 10
27.373185
 20
38.717717
 30
0.0
 10
27.384145
 20
38.728689
 30
0.0
 10
28.129535
 20
39.320615
 30
0.0
 10
28.206266
 20
39.375426
 30
0.0
 10
28.940695
 20
39.759082
 30
0.0
 10
29.105119
 20
39.802929
 30
0.0
 10
29.850509
 20
39.868697
 30
0.0
 10
29.993009
 20
39.857726
 30
0.0
 10
30.694553
 20
39.704264
 30
0.0
 10
30.793207
 20
39.671385
 30
0.0
 10
31.363212
 20
39.397344
 30
0.0
 10
32.020909
 20
39.221957
 30
0.0
 10
32.448411
 20
39.386383
 30
0.0
 10
32.755337
 20
39.770039
 30
0.0
 10
32.941684
 20
40.285236
 30
0.0
 10
33.029377
 20
41.370433
 30
0.0
 10
32.886876
 20
42.378905
 30
0.0
 10
32.514181
 20
43.277755
 30
0.0
 10
32.503220
 20
43.310669
 30
0.0
 10
32.294949
 20
43.617593
 30
0.0
 10
30.880901
 20
41.403351
 30
0.0
 10
30.365705
 20
41.206039
 30
0.0
 10
28.535116
 20
41.743193
 30
0.0
 10
28.228190
 20
42.050120
 30
0.0
 10
27.537609
 20
44.352055
 30
0.0
 10
27.592417
 20
44.724754
 30
0.0
 10
29.116081
 20
47.092461
 30
0.0
 10
29.083192
 20
47.388424
 30
0.0
 10
29.039345
 20
47.772084
 30
0.0
 10
29.039345
 20
47.783055
 30
0.0
 10
28.984537
 20
48.166708
 30
0.0
 10
28.984537
 20
48.177679
 30
0.0
 10
28.973576
 20
48.287294
 30
0.0
 10
13.890394
 20
49.756152
 30
0.0
 10
13.506738
 20
50.348081
 30
0.0
 10
14.317897
 20
52.781553
 30
0.0
 10
14.624822
 20
53.077523
 30
0.0
 10
18.768313
 20
54.206567
 30
0.0
 10
18.790234
 20
54.206567
 30
0.0
 10
22.462376
 20
55.028687
 30
0.0
 10
22.473337
 20
55.039659
 30
0.0
 10
26.277017
 20
55.752164
 30
0.0
 10
30.453392
 20
56.530438
 30
0.0
 10
30.431470
 20
61.178165
 30
0.0
 10
30.431470
 20
61.200108
 30
0.0
 10
30.683588
 20
65.584754
 30
0.0
 10
30.683588
 20
65.606697
 30
0.0
 10
31.143975
 20
69.892690
 30
0.0
 10
31.143975
 20
69.914632
 30
0.0
 10
31.713979
 20
73.948505
 30
0.0
 10
29.729927
 20
73.301768
 30
0.0
 10
29.697041
 20
73.290832
 30
0.0
 10
27.164908
 20
72.216596
 30
0.0
 10
27.132022
 20
72.205624
 30
0.0
 10
24.709505
 20
70.956004
 30
0.0
 10
24.676619
 20
70.934061
 30
0.0
 10
22.374680
 20
69.498090
 30
0.0
 10
22.363719
 20
69.487119
 30
0.0
 10
22.341798
 20
69.476147
 30
0.0
 10
20.160436
 20
67.864789
 30
0.0
 10
20.138515
 20
67.842846
 30
0.0
 10
18.088693
 20
66.056104
 30
0.0
 10
16.170410
 20
64.093975
 30
0.0
 10
16.148489
 20
64.072033
 30
0.0
 10
14.405592
 20
62.000282
 30
0.0
 10
14.383670
 20
61.967438
 30
0.0
 10
12.816159
 20
59.764154
 30
0.0
 10
12.805199
 20
59.753182
 30
0.0
 10
12.794238
 20
59.731240
 30
0.0
 10
11.391151
 20
57.396415
 30
0.0
 10
11.380190
 20
57.363572
 30
0.0
 10
10.163451
 20
54.908168
 30
0.0
 10
10.152490
 20
54.875289
 30
0.0
 10
9.144022
 20
52.321234
 30
0.0
 10
9.154983
 20
52.321234
 30
0.0
 10
8.321900
 20
49.602750
 30
0.0
 10
8.310939
 20
49.602750
 30
0.0
 10
7.740935
 20
46.873312
 30
0.0
 10
7.729974
 20
46.829461
 30
0.0
 10
7.368241
 20
44.023291
 30
0.0
 10
7.368241
 20
43.990376
 30
0.0
 10
7.247663
 20
41.096512
 30
0.0
 10
7.247663
 20
41.074569
 30
0.0
 10
7.258624
 20
39.945525
 30
0.0
 10
7.258624
 20
39.923582
 30
0.0
 10
7.324394
 20
38.794535
 30
0.0
 10
7.324394
 20
38.772592
 30
0.0
 10
7.423048
 20
37.654509
 30
0.0
 10
7.423048
 20
37.643537
 30
0.0
 10
7.554588
 20
36.525450
 30
0.0
 10
7.554588
 20
36.514479
 30
0.0
 10
7.729974
 20
35.418317
 30
0.0
 10
7.729974
 20
35.396375
 30
0.0
 10
7.938244
 20
34.289252
 30
0.0
 10
7.927283
 20
34.289252
 30
0.0
 10
8.179400
 20
33.204053
 30
0.0
 10
8.179400
 20
33.193092
 30
0.0
 10
8.453440
 20
32.129815
 30
0.0
 10
8.453440
 20
32.107893
 30
0.0
 10
8.771328
 20
31.055578
 30
0.0
 10
8.760367
 20
31.055578
 30
0.0
 10
9.111138
 20
30.003264
 30
0.0
 10
9.111138
 20
29.992303
 30
0.0
 10
9.483834
 20
28.972873
 30
0.0
 10
9.494794
 20
28.950951
 30
0.0
 10
9.900375
 20
27.953444
 30
0.0
 10
9.900375
 20
27.942483
 30
0.0
 10
10.349801
 20
26.944976
 30
0.0
 10
10.360762
 20
26.934015
 30
0.0
 10
10.832111
 20
25.947470
 30
0.0
 10
10.832111
 20
25.936509
 30
0.0
 10
11.325384
 20
24.982726
 30
0.0
 10
11.336345
 20
24.971765
 30
0.0
 10
11.566532
 20
24.544328
 30
0.0
  0
LWPOLYLINE
  5
106
100
AcDbEntity
  8
Inner
 62
7
100
AcDbPolyline
 90
33
 70
0
 10
59.819561
 20
30.880141
 30
0.0
 10
59.698978
 20
30.902063
 30
0.0
 10
59.523595
 20
30.978794
 30
0.0
 10
59.424944
 20
31.044564
 30
0.0
 10
59.304364
 20
31.165141
 30
0.0
 10
59.238593
 20
31.263796
 30
0.0
 10
59.172824
 20
31.406297
 30
0.0
 10
59.139945
 20
31.537836
 30
0.0
 10
59.139945
 20
31.768030
 30
0.0
 10
59.172824
 20
31.888608
 30
0.0
 10
59.238593
 20
32.020147
 30
0.0
 10
59.304364
 20
32.118802
 30
0.0
 10
59.424944
 20
32.239380
 30
0.0
 10
59.523595
 20
32.305149
 30
0.0
 10
59.698978
 20
32.381880
 30
0.0
 10
59.819561
 20
32.403802
 30
0.0
 10
59.973023
 20
32.403802
 30
0.0
 10
60.104563
 20
32.381880
 30
0.0
 10
60.279954
 20
32.305149
 30
0.0
 10
60.378605
 20
32.239380
 30
0.0
 10
60.499184
 20
32.118802
 30
0.0
 10
60.564956
 20
32.020147
 30
0.0
 10
60.641685
 20
31.844761
 30
0.0
 10
60.663628
 20
31.724184
 30
0.0
 10
60.663628
 20
31.570721
 30
0.0
 10
60.641685
 20
31.439182
 30
0.0
 10
60.564956
 20
31.263796
 30
0.0
 10
60.499184
 20
31.165141
 30
0.0
 10
60.378605
 20
31.044564
 30
0.0
 10
60.279954
 20
30.978794
 30
0.0
 10
60.104563
 20
30.902063
 30
0.0
 10
59.973023
 20
30.880141
 30
0.0
 10
59.819561
 20
30.880141
 30
0.0
  0
LWPOLYLINE
  5
107
100
AcDbEntity
  8
Inner
 62
7
100
AcDbPolyline
 90
33
 70
0
 10
61.343230
 20
32.107843
 30
0.0
 10
61.156878
 20
32.140729
 30
0.0
 10
60.970527
 20
32.217460
 30
0.0
 10
60.828029
 20
32.316114
 30
0.0
 10
60.707450
 20
32.447654
 30
0.0
 10
60.619756
 20
32.590155
 30
0.0
 10
60.553988
 20
32.743617
 30
0.0
 10
60.521109
 20
32.919003
 30
0.0
 10
60.521109
 20
33.094389
 30
0.0
 10
60.553988
 20
33.258813
 30
0.0
 10
60.630721
 20
33.423237
 30
0.0
 10
60.718411
 20
33.554777
 30
0.0
 10
60.849951
 20
33.686316
 30
0.0
 10
60.992452
 20
33.774010
 30
0.0
 10
61.156878
 20
33.839779
 30
0.0
 10
61.343230
 20
33.872668
 30
0.0
 10
61.507649
 20
33.872668
 30
0.0
 10
61.672075
 20
33.839779
 30
0.0
 10
61.836501
 20
33.763047
 30
0.0
 10
61.968038
 20
33.675355
 30
0.0
 10
62.088617
 20
33.554777
 30
0.0
 10
62.176307
 20
33.423237
 30
0.0
 10
62.253040
 20
33.258813
 30
0.0
 10
62.285919
 20
33.094389
 30
0.0
 10
62.285919
 20
32.919003
 30
0.0
 10
62.253040
 20
32.743617
 30
0.0
 10
62.187268
 20
32.590155
 30
0.0
 10
62.099578
 20
32.447654
 30
0.0
 10
61.989963
 20
32.327076
 30
0.0
 10
61.858423
 20
32.228422
 30
0.0
 10
61.672075
 20
32.140729
 30
0.0
 10
61.507649
 20
32.107843
 30
0.0
 10
61.343230
 20
32.107843
 30
0.0
  0
LWPOLYLINE
  5
108
100
AcDbEntity
  8
Inner
 62
7
100
AcDbPolyline
 90
34
 70
0
 10
59.611288
 20
33.182081
 30
0.0
 10
59.589345
 20
33.193041
 30
0.0
 10
59.402991
 20
33.236888
 30
0.0
 10
59.271450
 20
33.291696
 30
0.0
 10
59.107028
 20
33.390351
 30
0.0
 10
58.964530
 20
33.510928
 30
0.0
 10
58.854908
 20
33.664391
 30
0.0
 10
58.778179
 20
33.861700
 30
0.0
 10
58.745335
 20
34.069971
 30
0.0
 10
58.745335
 20
34.223433
 30
0.0
 10
58.778179
 20
34.398819
 30
0.0
 10
58.854908
 20
34.574205
 30
0.0
 10
58.964530
 20
34.727667
 30
0.0
 10
59.107028
 20
34.848245
 30
0.0
 10
59.271468
 20
34.946900
 30
0.0
 10
59.403008
 20
35.001708
 30
0.0
 10
59.589360
 20
35.045554
 30
0.0
 10
59.786672
 20
35.045554
 30
0.0
 10
59.973016
 20
35.001708
 30
0.0
 10
60.137446
 20
34.935939
 30
0.0
 10
60.279929
 20
34.837284
 30
0.0
 10
60.389541
 20
34.727667
 30
0.0
 10
60.499159
 20
34.574205
 30
0.0
 10
60.575889
 20
34.398819
 30
0.0
 10
60.608767
 20
34.223433
 30
0.0
 10
60.608767
 20
34.069971
 30
0.0
 10
60.575889
 20
33.861700
 30
0.0
 10
60.499159
 20
33.664391
 30
0.0
 10
60.389541
 20
33.510928
 30
0.0
 10
60.279929
 20
33.401312
 30
0.0
 10
60.137428
 20
33.302658
 30
0.0
 10
59.972995
 20
33.236888
 30
0.0
 10
59.786651
 20
33.193041
 30
0.0
 10
59.611288
 20
33.182081
 30
0.0
  0
LWPOLYLINE
  5
109
100
AcDbEntity
  8
Inner
 62
7
100
AcDbPolyline
 90
33
 70
0
 10
61.584378
 20
34.048048
 30
0.0
 10
61.419955
 20
34.080934
 30
0.0
 10
61.244568
 20
34.157666
 30
0.0
 10
61.102071
 20
34.256320
 30
0.0
 10
60.992452
 20
34.365936
 30
0.0
 10
60.893798
 20
34.508437
 30
0.0
 10
60.817065
 20
34.683823
 30
0.0
 10
60.784221
 20
34.859209
 30
0.0
 10
60.784221
 20
35.034595
 30
0.0
 10
60.817065
 20
35.199019
 30
0.0
 10
60.904759
 20
35.385368
 30
0.0
 10
61.003413
 20
35.516908
 30
0.0
 10
61.123989
 20
35.626520
 30
0.0
 10
61.266490
 20
35.714210
 30
0.0
 10
61.419955
 20
35.779982
 30
0.0
 10
61.584378
 20
35.812896
 30
0.0
 10
61.759765
 20
35.812896
 30
0.0
 10
61.924191
 20
35.779982
 30
0.0
 10
62.077656
 20
35.714210
 30
0.0
 10
62.220158
 20
35.626520
 30
0.0
 10
62.351694
 20
35.494980
 30
0.0
 10
62.439388
 20
35.363443
 30
0.0
 10
62.516120
 20
35.199019
 30
0.0
 10
62.548999
 20
35.034595
 30
0.0
 10
62.548999
 20
34.859209
 30
0.0
 10
62.516120
 20
34.683823
 30
0.0
 10
62.450349
 20
34.530361
 30
0.0
 10
62.362659
 20
34.387859
 30
0.0
 10
62.242079
 20
34.256320
 30
0.0
 10
62.099578
 20
34.157666
 30
0.0
 10
61.924191
 20
34.080934
 30
0.0
 10
61.759765
 20
34.048048
 30
0.0
 10
61.584378
 20
34.048048
 30
0.0
  0
LWPOLYLINE
  5
10a
100
AcDbEntity
  8
Inner
 62
7
100
AcDbPolyline
 90
34
 70
0
 10
59.962059
 20
35.012671
 30
0.0
 10
59.951087
 20
35.023631
 30
0.0
 10
59.753779
 20
35.067478
 30
0.0
 10
59.589356
 20
35.144209
 30
0.0
 10
59.424930
 20
35.264787
 30
0.0
 10
59.315315
 20
35.374404
 30
0.0
 10
59.194735
 20
35.549787
 30
0.0
 10
59.118003
 20
35.736138
 30
0.0
 10
59.085159
 20
35.955369
 30
0.0
 10
59.085159
 20
36.097870
 30
0.0
 10
59.118003
 20
36.295178
 30
0.0
 10
59.205696
 20
36.481526
 30
0.0
 10
59.326276
 20
36.645952
 30
0.0
 10
59.435894
 20
36.755567
 30
0.0
 10
59.600317
 20
36.865183
 30
0.0
 10
59.753779
 20
36.930954
 30
0.0
 10
59.951087
 20
36.974798
 30
0.0
 10
60.148399
 20
36.974798
 30
0.0
 10
60.356669
 20
36.930954
 30
0.0
 10
60.499152
 20
36.876143
 30
0.0
 10
60.674536
 20
36.766528
 30
0.0
 10
60.795115
 20
36.645952
 30
0.0
 10
60.915695
 20
36.481526
 30
0.0
 10
60.992424
 20
36.339025
 30
0.0
 10
61.047235
 20
36.141716
 30
0.0
 10
61.047235
 20
35.911522
 30
0.0
 10
60.992424
 20
35.692288
 30
0.0
 10
60.926655
 20
35.549787
 30
0.0
 10
60.806076
 20
35.374404
 30
0.0
 10
60.685500
 20
35.253826
 30
0.0
 10
60.510113
 20
35.133248
 30
0.0
 10
60.356651
 20
35.067478
 30
0.0
 10
60.148382
 20
35.023631
 30
0.0
 10
59.962059
 20
35.012671
 30
0.0
  0
LWPOLYLINE
  5
10b
100
AcDbEntity
  8
Inner
 62
7
100
AcDbPolyline
 90
34
 70
0
 10
63.009388
 20
35.462097
 30
0.0
 10
62.844962
 20
35.505944
 30
0.0
 10
62.713425
 20
35.549787
 30
0.0
 10
62.581885
 20
35.626520
 30
0.0
 10
62.450345
 20
35.758057
 30
0.0
 10
62.362655
 20
35.878639
 30
0.0
 10
62.274962
 20
36.064984
 30
0.0
 10
62.253019
 20
36.196524
 30
0.0
 10
62.253019
 20
36.339025
 30
0.0
 10
62.274962
 20
36.492487
 30
0.0
 10
62.362655
 20
36.689799
 30
0.0
 10
62.450345
 20
36.810379
 30
0.0
 10
62.559964
 20
36.919990
 30
0.0
 10
62.691504
 20
37.007684
 30
0.0
 10
62.844962
 20
37.073455
 30
0.0
 10
62.987467
 20
37.106334
 30
0.0
 10
63.184775
 20
37.106334
 30
0.0
 10
63.327280
 20
37.073455
 30
0.0
 10
63.513624
 20
36.985758
 30
0.0
 10
63.623246
 20
36.898068
 30
0.0
 10
63.699976
 20
36.810379
 30
0.0
 10
63.787666
 20
36.689799
 30
0.0
 10
63.864398
 20
36.525373
 30
0.0
 10
63.897312
 20
36.371911
 30
0.0
 10
63.897312
 20
36.163638
 30
0.0
 10
63.864398
 20
36.032098
 30
0.0
 10
63.787666
 20
35.878639
 30
0.0
 10
63.699976
 20
35.758057
 30
0.0
 10
63.601318
 20
35.648445
 30
0.0
 10
63.491706
 20
35.571712
 30
0.0
 10
63.327280
 20
35.505944
 30
0.0
 10
63.184775
 20
35.473065
 30
0.0
 10
63.009388
 20
35.462094
 30
0.0
 10
63.009388
 20
35.462097
 30
0.0
  0
LWPOLYLINE
  5
10c
100
AcDbEntity
  8
Inner
 62
7
100
AcDbPolyline
 90
34
 70
0
 10
61.551495
 20
36.481526
 30
0.0
 10
61.354187
 20
36.514405
 30
0.0
 10
61.178800
 20
36.591134
 30
0.0
 10
61.014374
 20
36.700749
 30
0.0
 10
60.893798
 20
36.810371
 30
0.0
 10
60.795143
 20
36.952872
 30
0.0
 10
60.729372
 20
37.117292
 30
0.0
 10
60.685528
 20
37.303643
 30
0.0
 10
60.685528
 20
37.500948
 30
0.0
 10
60.729372
 20
37.698257
 30
0.0
 10
60.784183
 20
37.829797
 30
0.0
 10
60.882833
 20
37.994223
 30
0.0
 10
61.036299
 20
38.147688
 30
0.0
 10
61.200725
 20
38.246357
 30
0.0
 10
61.354187
 20
38.312125
 30
0.0
 10
61.551495
 20
38.345004
 30
0.0
 10
61.715918
 20
38.345004
 30
0.0
 10
61.891309
 20
38.312125
 30
0.0
 10
62.044767
 20
38.246357
 30
0.0
 10
62.198232
 20
38.147706
 30
0.0
 10
62.340733
 20
37.994223
 30
0.0
 10
62.439388
 20
37.829797
 30
0.0
 10
62.494195
 20
37.698257
 30
0.0
 10
62.538042
 20
37.500948
 30
0.0
 10
62.538042
 20
37.303643
 30
0.0
 10
62.494195
 20
37.117292
 30
0.0
 10
62.428430
 20
36.952872
 30
0.0
 10
62.329769
 20
36.810371
 30
0.0
 10
62.220158
 20
36.700749
 30
0.0
 10
62.066692
 20
36.591134
 30
0.0
 10
61.891309
 20
36.514405
 30
0.0
 10
61.715918
 20
36.481526
 30
0.0
 10
61.551495
 20
36.481526
 30
0.0
 10
61.551495
 20
36.481526
 30
0.0
  0
LWPOLYLINE
  5
10d
100
AcDbEntity
  8
Inner
 62
7
100
AcDbPolyline
 90
34
 70
0
 10
59.150903
 20
36.843257
 30
0.0
 10
58.997434
 20
36.887108
 30
0.0
 10
58.811093
 20
36.974798
 30
0.0
 10
58.701474
 20
37.062491
 30
0.0
 10
58.591859
 20
37.183071
 30
0.0
 10
58.515130
 20
37.314611
 30
0.0
 10
58.471280
 20
37.446151
 30
0.0
 10
58.438401
 20
37.588652
 30
0.0
 10
58.438401
 20
37.785957
 30
0.0
 10
58.471280
 20
37.939423
 30
0.0
 10
58.537052
 20
38.103845
 30
0.0
 10
58.613781
 20
38.213464
 30
0.0
 10
58.723396
 20
38.323076
 30
0.0
 10
58.833015
 20
38.399808
 30
0.0
 10
58.997434
 20
38.465577
 30
0.0
 10
59.139935
 20
38.498491
 30
0.0
 10
59.337247
 20
38.498491
 30
0.0
 10
59.490709
 20
38.465577
 30
0.0
 10
59.655135
 20
38.399808
 30
0.0
 10
59.764754
 20
38.323076
 30
0.0
 10
59.874372
 20
38.213464
 30
0.0
 10
59.951101
 20
38.103845
 30
0.0
 10
60.016873
 20
37.939423
 30
0.0
 10
60.049752
 20
37.785957
 30
0.0
 10
60.049752
 20
37.588652
 30
0.0
 10
60.016873
 20
37.446151
 30
0.0
 10
59.973023
 20
37.314611
 30
0.0
 10
59.896294
 20
37.183071
 30
0.0
 10
59.786679
 20
37.062491
 30
0.0
 10
59.677057
 20
36.974798
 30
0.0
 10
59.490709
 20
36.887108
 30
0.0
 10
59.337247
 20
36.854229
 30
0.0
 10
59.150903
 20
36.843257
 30
0.0
 10
59.150903
 20
36.843257
 30
0.0
  0
LWPOLYLINE
  5
10e
100
AcDbEntity
  8
Inner
 62
7
100
AcDbPolyline
 90
33
 70
0
 10
63.656122
 20
38.816351
 30
0.0
 10
63.502663
 20
38.838293
 30
0.0
 10
63.305351
 20
38.915026
 30
0.0
 10
63.195740
 20
38.991755
 30
0.0
 10
63.075160
 20
39.123295
 30
0.0
 10
62.998428
 20
39.243868
 30
0.0
 10
62.943620
 20
39.386369
 30
0.0
 10
62.910741
 20
39.528870
 30
0.0
 10
62.910741
 20
39.726182
 30
0.0
 10
62.943620
 20
39.879644
 30
0.0
 10
62.998428
 20
40.022145
 30
0.0
 10
63.075160
 20
40.142724
 30
0.0
 10
63.173811
 20
40.252343
 30
0.0
 10
63.283430
 20
40.340033
 30
0.0
 10
63.469778
 20
40.427723
 30
0.0
 10
63.623243
 20
40.460602
 30
0.0
 10
63.820548
 20
40.460602
 30
0.0
 10
63.963053
 20
40.427723
 30
0.0
 10
64.116518
 20
40.361955
 30
0.0
 10
64.248058
 20
40.274265
 30
0.0
 10
64.357670
 20
40.164646
 30
0.0
 10
64.445360
 20
40.044070
 30
0.0
 10
64.522096
 20
39.879644
 30
0.0
 10
64.554940
 20
39.726182
 30
0.0
 10
64.554940
 20
39.528870
 30
0.0
 10
64.522096
 20
39.386369
 30
0.0
 10
64.445360
 20
39.221950
 30
0.0
 10
64.357670
 20
39.101367
 30
0.0
 10
64.226130
 20
38.969827
 30
0.0
 10
64.094589
 20
38.893097
 30
0.0
 10
63.930163
 20
38.838293
 30
0.0
 10
63.787662
 20
38.816351
 30
0.0
 10
63.656122
 20
38.816351
 30
0.0
  0
LWPOLYLINE
  5
10f
100
AcDbEntity
  8
Inner
 62
7
100
AcDbPolyline
 90
34
 70
0
 10
61.693997
 20
38.915008
 30
0.0
 10
61.540531
 20
38.958848
 30
0.0
 10
61.376105
 20
39.035581
 30
0.0
 10
61.255529
 20
39.123278
 30
0.0
 10
61.145914
 20
39.221932
 30
0.0
 10
61.069185
 20
39.331551
 30
0.0
 10
60.992452
 20
39.528852
 30
0.0
 10
60.970509
 20
39.671353
 30
0.0
 10
60.970509
 20
39.802894
 30
0.0
 10
60.992452
 20
39.945395
 30
0.0
 10
61.047260
 20
40.109821
 30
0.0
 10
61.123989
 20
40.241361
 30
0.0
 10
61.277454
 20
40.394827
 30
0.0
 10
61.398030
 20
40.471556
 30
0.0
 10
61.540531
 20
40.526363
 30
0.0
 10
61.683032
 20
40.559242
 30
0.0
 10
61.880348
 20
40.559242
 30
0.0
 10
62.033810
 20
40.526363
 30
0.0
 10
62.176307
 20
40.471556
 30
0.0
 10
62.296890
 20
40.394827
 30
0.0
 10
62.428430
 20
40.263286
 30
0.0
 10
62.516120
 20
40.131746
 30
0.0
 10
62.581889
 20
39.978284
 30
0.0
 10
62.614768
 20
39.835783
 30
0.0
 10
62.614768
 20
39.638471
 30
0.0
 10
62.581889
 20
39.495970
 30
0.0
 10
62.494195
 20
39.309622
 30
0.0
 10
62.406505
 20
39.200010
 30
0.0
 10
62.318808
 20
39.123278
 30
0.0
 10
62.198232
 20
39.035581
 30
0.0
 10
62.033810
 20
38.958848
 30
0.0
 10
61.880348
 20
38.926004
 30
0.0
 10
61.693997
 20
38.915033
 30
0.0
 10
61.693997
 20
38.915008
 30
0.0
  0
LWPOLYLINE
  5
110
100
AcDbEntity
  8
Inner
 62
7
100
AcDbPolyline
 90
33
 70
0
 10
59.622249
 20
39.331551
 30
0.0
 10
59.446866
 20
39.375390
 30
0.0
 10
59.293404
 20
39.441162
 30
0.0
 10
59.183785
 20
39.517891
 30
0.0
 10
59.085134
 20
39.616553
 30
0.0
 10
59.008402
 20
39.715204
 30
0.0
 10
58.920705
 20
39.912512
 30
0.0
 10
58.898762
 20
40.044052
 30
0.0
 10
58.898762
 20
40.197514
 30
0.0
 10
58.920705
 20
40.329055
 30
0.0
 10
59.008402
 20
40.526363
 30
0.0
 10
59.085134
 20
40.625018
 30
0.0
 10
59.216675
 20
40.734633
 30
0.0
 10
59.326286
 20
40.800405
 30
0.0
 10
59.479748
 20
40.866173
 30
0.0
 10
59.611288
 20
40.888116
 30
0.0
 10
59.764754
 20
40.888116
 30
0.0
 10
59.885333
 20
40.866173
 30
0.0
 10
60.060717
 20
40.789440
 30
0.0
 10
60.159374
 20
40.723672
 30
0.0
 10
60.279954
 20
40.603092
 30
0.0
 10
60.345719
 20
40.504438
 30
0.0
 10
60.411491
 20
40.361937
 30
0.0
 10
60.444334
 20
40.230397
 30
0.0
 10
60.444334
 20
40.011167
 30
0.0
 10
60.411491
 20
39.879626
 30
0.0
 10
60.345719
 20
39.737125
 30
0.0
 10
60.279954
 20
39.638471
 30
0.0
 10
60.181292
 20
39.528852
 30
0.0
 10
60.082642
 20
39.452123
 30
0.0
 10
59.929180
 20
39.375390
 30
0.0
 10
59.808600
 20
39.342547
 30
0.0
 10
59.622249
 20
39.331551
 30
0.0
  0
LWPOLYLINE
  5
111
100
AcDbEntity
  8
Inner
 62
7
100
AcDbPolyline
 90
34
 70
0
 10
61.430916
 20
40.745593
 30
0.0
 10
61.211686
 20
40.789440
 30
0.0
 10
61.047260
 20
40.866173
 30
0.0
 10
60.871873
 20
40.986749
 30
0.0
 10
60.751297
 20
41.107328
 30
0.0
 10
60.641682
 20
41.271751
 30
0.0
 10
60.564952
 20
41.436177
 30
0.0
 10
60.521102
 20
41.655407
 30
0.0
 10
60.532073
 20
41.841759
 30
0.0
 10
60.575920
 20
42.050028
 30
0.0
 10
60.641692
 20
42.203490
 30
0.0
 10
60.751307
 20
42.367913
 30
0.0
 10
60.882844
 20
42.499453
 30
0.0
 10
61.058234
 20
42.609072
 30
0.0
 10
61.211696
 20
42.674840
 30
0.0
 10
61.430927
 20
42.718683
 30
0.0
 10
61.617278
 20
42.707712
 30
0.0
 10
61.825547
 20
42.663868
 30
0.0
 10
61.979013
 20
42.598097
 30
0.0
 10
62.143435
 20
42.488481
 30
0.0
 10
62.264015
 20
42.367902
 30
0.0
 10
62.373630
 20
42.203479
 30
0.0
 10
62.439398
 20
42.050018
 30
0.0
 10
62.483245
 20
41.841748
 30
0.0
 10
62.494216
 20
41.655397
 30
0.0
 10
62.450370
 20
41.436167
 30
0.0
 10
62.373641
 20
41.271740
 30
0.0
 10
62.264025
 20
41.107318
 30
0.0
 10
62.154410
 20
40.997699
 30
0.0
 10
61.990019
 20
40.877105
 30
0.0
 10
61.825593
 20
40.800376
 30
0.0
 10
61.617324
 20
40.756530
 30
0.0
 10
61.430976
 20
40.745558
 30
0.0
 10
61.430916
 20
40.745593
 30
0.0
  0
LWPOLYLINE
  5
112
100
AcDbEntity
  8
Inner
 62
7
100
AcDbPolyline
 90
34
 70
0
 10
64.445356
 20
40.800405
 30
0.0
 10
64.434420
 20
40.811376
 30
0.0
 10
64.226147
 20
40.855219
 30
0.0
 10
64.072685
 20
40.920991
 30
0.0
 10
63.908263
 20
41.030610
 30
0.0
 10
63.776722
 20
41.162146
 30
0.0
 10
63.667104
 20
41.337533
 30
0.0
 10
63.601335
 20
41.490999
 30
0.0
 10
63.557492
 20
41.710229
 30
0.0
 10
63.568464
 20
41.896573
 30
0.0
 10
63.612310
 20
42.104846
 30
0.0
 10
63.667114
 20
42.247347
 30
0.0
 10
63.776733
 20
42.422734
 30
0.0
 10
63.897316
 20
42.543314
 30
0.0
 10
64.061735
 20
42.663890
 30
0.0
 10
64.226158
 20
42.740619
 30
0.0
 10
64.434431
 20
42.784466
 30
0.0
 10
64.620779
 20
42.795437
 30
0.0
 10
64.840012
 20
42.751594
 30
0.0
 10
65.004435
 20
42.674861
 30
0.0
 10
65.179825
 20
42.554285
 30
0.0
 10
65.311366
 20
42.422745
 30
0.0
 10
65.420977
 20
42.247358
 30
0.0
 10
65.475788
 20
42.104857
 30
0.0
 10
65.519635
 20
41.896584
 30
0.0
 10
65.530607
 20
41.710240
 30
0.0
 10
65.486760
 20
41.491009
 30
0.0
 10
65.420988
 20
41.337544
 30
0.0
 10
65.311376
 20
41.162157
 30
0.0
 10
65.168893
 20
41.019691
 30
0.0
 10
64.993502
 20
40.910076
 30
0.0
 10
64.840041
 20
40.844304
 30
0.0
 10
64.620810
 20
40.800461
 30
0.0
 10
64.445356
 20
40.800405
 30
0.0
  0
LWPOLYLINE
  5
113
100
AcDbEntity
  8
Inner
 62
7
100
AcDbPolyline
 90
23
 70
0
 10
29.949160
 20
42.773494
 30
0.0
 10
30.157431
 20
42.883109
 30
0.0
 10
30.497241
 20
43.288687
 30
0.0
 10
30.519163
 20
43.321601
 30
0.0
 10
30.738395
 20
43.727183
 30
0.0
 10
30.749356
 20
43.749126
 30
0.0
 10
30.935703
 20
44.275280
 30
0.0
 10
30.946664
 20
44.308194
 30
0.0
 10
31.034356
 20
44.637043
 30
0.0
 10
30.848009
 20
44.768580
 30
0.0
 10
30.837048
 20
44.779551
 30
0.0
 10
30.409545
 20
45.130321
 30
0.0
 10
30.025889
 20
45.437249
 30
0.0
 10
29.982043
 20
45.470128
 30
0.0
 10
29.894349
 20
45.524932
 30
0.0
 10
29.499731
 20
45.042621
 30
0.0
 10
29.214729
 20
44.330116
 30
0.0
 10
29.170883
 20
43.716265
 30
0.0
 10
29.324346
 20
43.179150
 30
0.0
 10
29.521655
 20
42.905108
 30
0.0
 10
29.740887
 20
42.784529
 30
0.0
 10
29.949158
 20
42.773558
 30
0.0
 10
29.949160
 20
42.773494
 30
0.0
  0
LWPOLYLINE
  5
114
100
AcDbEntity
  8
Inner
 62
7
100
AcDbPolyline
 90
26
 70
0
 10
49.131982
 20
44.428696
 30
0.0
 10
49.515642
 20
44.516393
 30
0.0
 10
49.997953
 20
44.932935
 30
0.0
 10
50.261030
 20
45.601590
 30
0.0
 10
50.304876
 20
46.237363
 30
0.0
 10
50.304876
 20
46.259305
 30
0.0
 10
50.304876
 20
46.292184
 30
0.0
 10
50.261030
 20
46.851224
 30
0.0
 10
50.085646
 20
47.355460
 30
0.0
 10
50.074675
 20
47.377403
 30
0.0
 10
50.030828
 20
47.322595
 30
0.0
 10
50.008885
 20
47.289716
 30
0.0
 10
49.581382
 20
46.752598
 30
0.0
 10
49.526571
 20
46.686830
 30
0.0
 10
49.055221
 20
46.292213
 30
0.0
 10
48.879838
 20
46.204519
 30
0.0
 10
48.660604
 20
46.138751
 30
0.0
 10
48.649632
 20
45.952399
 30
0.0
 10
48.649632
 20
45.930457
 30
0.0
 10
48.649632
 20
45.908514
 30
0.0
 10
48.682511
 20
45.437167
 30
0.0
 10
48.682511
 20
45.404289
 30
0.0
 10
48.781162
 20
44.987746
 30
0.0
 10
48.934624
 20
44.560247
 30
0.0
 10
49.131933
 20
44.428703
 30
0.0
 10
49.131982
 20
44.428696
 30
0.0
  0
LWPOLYLINE
  5
115
100
AcDbEntity
  8
Inner
 62
7
100
AcDbPolyline
 90
25
 70
0
 10
34.388614
 20
46.577172
 30
0.0
 10
34.520153
 20
46.588144
 30
0.0
 10
34.640731
 20
46.664880
 30
0.0
 10
34.827079
 20
47.015650
 30
0.0
 10
34.925733
 20
47.574694
 30
0.0
 10
34.892847
 20
48.133755
 30
0.0
 10
34.892847
 20
48.232406
 30
0.0
 10
34.969579
 20
48.769528
 30
0.0
 10
35.134003
 20
49.054530
 30
0.0
 10
35.144964
 20
49.065501
 30
0.0
 10
35.123042
 20
49.087444
 30
0.0
 10
34.805155
 20
49.383403
 30
0.0
 10
34.498230
 20
49.602640
 30
0.0
 10
34.114573
 20
49.712256
 30
0.0
 10
33.292452
 20
49.668409
 30
0.0
 10
32.788218
 20
49.328620
 30
0.0
 10
32.623794
 20
48.846306
 30
0.0
 10
32.897834
 20
47.947453
 30
0.0
 10
32.908795
 20
47.925510
 30
0.0
 10
33.149950
 20
47.498004
 30
0.0
 10
33.380144
 20
47.191080
 30
0.0
 10
33.687069
 20
46.917042
 30
0.0
 10
34.092649
 20
46.686847
 30
0.0
 10
34.125539
 20
46.664905
 30
0.0
 10
34.388614
 20
46.577172
 30
0.0
  0
ENDSEC
  0
SECTION
  2
OBJECTS
  0
DICTIONARY
  5
C
330
0
100
AcDbDictionary
  3
ACAD_GROUP
350
D
  3
ACAD_MLINESTYLE
350
17
  0
DICTIONARY
  5
D
330
C
100
AcDbDictionary
  0
DICTIONARY
  5
1A
330
C
100
AcDbDictionary
  0
DICTIONARY
  5
17
330
C
100
AcDbDictionary
  3
STANDARD
350
18
  0
DICTIONARY
  5
19
330
C
100
AcDbDictionary
  0
ENDSEC
  0
EOF
