999
DXF created by Inkscape
  0
SECTION
  2
HEADER
  9
$ACADVER
  1
AC1014
  9
$HANDSEED
  5
FFFF
  9
$MEASUREMENT
 70
     1
  0
ENDSEC
  0
SECTION
  2
TABLES
  0
TABLE
  2
VPORT
  5
8
330
0
100
AcDbSymbolTable
 70
     4
  0
VPORT
  5
2E
330
8
100
AcDbSymbolTableRecord
100
AcDbViewportTableRecord
  2
*ACTIVE
 70
     0
 10
0.0
 20
0.0
 11
1.0
 21
1.0
 12
210.0
 22
148.5
 13
0.0
 23
0.0
 14
10.0
 24
10.0
 15
10.0
 25
10.0
 16
0.0
 26
0.0
 36
1.0
 17
0.0
 27
0.0
 37
0.0
 40
341.0
 41
1.24
 42
50.0
 43
0.0
 44
0.0
 50
0.0
 51
0.0
 71
     0
 72
   100
 73
     1
 74
     3
 75
     0
 76
     0
 77
     0
 78
     0
  0
ENDTAB
  0
TABLE
  2
LTYPE
  5
5
330
0
100
AcDbSymbolTable
 70
     1
  0
LTYPE
  5
14
330
5
100
AcDbSymbolTableRecord
100
AcDbLinetypeTableRecord
  2
BYBLOCK
 70
     0
  3

 72
    65
 73
     0
 40
0.0
  0
LTYPE
  5
15
330
5
100
AcDbSymbolTableRecord
100
AcDbLinetypeTableRecord
  2
BYLAYER
 70
     0
  3

 72
    65
 73
     0
 40
0.0
  0
LTYPE
  5
16
330
5
100
AcDbSymbolTableRecord
100
AcDbLinetypeTableRecord
  2
CONTINUOUS
 70
     0
  3
Solid line
 72
    65
 73
     0
 40
0.0
  0
ENDTAB
  0
TABLE
  2
LAYER
  5
2
100
AcDbSymbolTable
 70
4
  0
LAYER
  5
50
100
AcDbSymbolTableRecord
100
AcDbLayerTableRecord
  2
0
 70
0
  6
CONTINUOUS
  0
LAYER
  5
51
100
AcDbSymbolTableRecord
100
AcDbLayerTableRecord
  2
Base
 70
0
  6
CONTINUOUS
  0
LAYER
  5
52
100
AcDbSymbolTableRecord
100
AcDbLayerTableRecord
  2
Outer
 70
0
  6
CONTINUOUS
  0
LAYER
  5
53
100
AcDbSymbolTableRecord
100
AcDbLayerTableRecord
  2
Inner
 70
0
  6
CONTINUOUS
  0
ENDTAB
  0
TABLE
  2
STYLE
  5
3
330
0
100
AcDbSymbolTable
 70
     1
  0
STYLE
  5
11
330
3
100
AcDbSymbolTableRecord
100
AcDbTextStyleTableRecord
  2
STANDARD
 70
     0
 40
0.0
 41
1.0
 50
0.0
 71
     0
 42
2.5
  3
txt
  4

  0
ENDTAB
  0
TABLE
  2
VIEW
  5
6
330
0
100
AcDbSymbolTable
 70
     0
  0
ENDTAB
  0
TABLE
  2
UCS
  5
7
330
0
100
AcDbSymbolTable
 70
     0
  0
ENDTAB
  0
TABLE
  2
APPID
  5
9
330
0
100
AcDbSymbolTable
 70
     2
  0
APPID
  5
12
330
9
100
AcDbSymbolTableRecord
100
AcDbRegAppTableRecord
  2
ACAD
 70
     0
  0
ENDTAB
  0
TABLE
  2
DIMSTYLE
  5
A
330
0
100
AcDbSymbolTable
 70
     1
  0
DIMSTYLE
105
27
330
A
100
AcDbSymbolTableRecord
100
AcDbDimStyleTableRecord
  2
ISO-25
 70
     0
  3

  4

  5

  6

  7

 40
1.0
 41
2.5
 42
0.625
 43
3.75
 44
1.25
 45
0.0
 46
0.0
 47
0.0
 48
0.0
140
2.5
141
2.5
142
0.0
143
0.03937007874016
144
1.0
145
0.0
146
1.0
147
0.625
 71
     0
 72
     0
 73
     0
 74
     0
 75
     0
 76
     0
 77
     1
 78
     8
170
     0
171
     3
172
     1
173
     0
174
     0
175
     0
176
     0
177
     0
178
     0
270
     2
271
     2
272
     2
273
     2
274
     3
340
11
275
     0
280
     0
281
     0
282
     0
283
     0
284
     8
285
     0
286
     0
287
     3
288
     0
  0
ENDTAB
  0
TABLE
  2
BLOCK_RECORD
  5
1
330
0
100
AcDbSymbolTable
 70
     1
  0
BLOCK_RECORD
  5
1F
330
1
100
AcDbSymbolTableRecord
100
AcDbBlockTableRecord
  2
*MODEL_SPACE
  0
BLOCK_RECORD
  5
1B
330
1
100
AcDbSymbolTableRecord
100
AcDbBlockTableRecord
  2
*PAPER_SPACE
  0
ENDTAB
  0
ENDSEC
  0
SECTION
  2
BLOCKS
  0
BLOCK
  5
20
330
1F
100
AcDbEntity
  8
0
100
AcDbBlockBegin
  2
*MODEL_SPACE
 70
     0
 10
0.0
 20
0.0
 30
0.0
  3
*MODEL_SPACE
  1

  0
ENDBLK
  5
21
330
1F
100
AcDbEntity
  8
0
100
AcDbBlockEnd
  0
BLOCK
  5
1C
330
1B
100
AcDbEntity
 67
     1
  8
0
100
AcDbBlockBegin
  2
*PAPER_SPACE
  1

  0
ENDBLK
  5
1D
330
1B
100
AcDbEntity
 67
     1
  8
0
100
AcDbBlockEnd
  0
ENDSEC
  0
SECTION
  2
ENTITIES
  0
LWPOLYLINE
  5
100
100
AcDbEntity
  8
Base
 62
7
100
AcDbPolyline
 90
197
 70
0
 10
46.407917
 20
82.611736
 30
0.0
 10
42.324514
 20
79.586667
 30
0.0
 10
40.199028
 20
82.364792
 30
0.0
 10
37.667847
 20
79.339722
 30
0.0
 10
34.157708
 20
82.117847
 30
0.0
 10
31.458958
 20
78.193194
 30
0.0
 10
29.501042
 20
80.486250
 30
0.0
 10
27.454931
 20
77.055486
 30
0.0
 10
23.618472
 20
78.607708
 30
0.0
 10
22.957014
 20
74.762431
 30
0.0
 10
19.367500
 20
76.076528
 30
0.0
 10
18.952986
 20
72.398819
 30
0.0
 10
15.116528
 20
72.725139
 30
0.0
 10
14.710833
 20
68.879861
 30
0.0
 10
11.280069
 20
69.532500
 30
0.0
 10
11.112500
 20
64.875833
 30
0.0
 10
6.949722
 20
64.796458
 30
0.0
 10
8.166806
 20
60.466111
 30
0.0
 10
4.982986
 20
60.298542
 30
0.0
 10
5.803194
 20
56.215139
 30
0.0
 10
2.857500
 20
55.236181
 30
0.0
 10
4.409722
 20
52.211111
 30
0.0
 10
2.204861
 20
51.558472
 30
0.0
 10
3.836458
 20
48.780347
 30
0.0
 10
0.899583
 20
47.880764
 30
0.0
 10
3.677708
 20
45.023264
 30
0.0
 10
0.000000
 20
42.739028
 30
0.0
 10
3.430764
 20
40.287222
 30
0.0
 10
0.573264
 20
38.488056
 30
0.0
 10
3.510139
 20
36.688889
 30
0.0
 10
1.058333
 20
33.910764
 30
0.0
 10
4.004028
 20
32.358542
 30
0.0
 10
1.631597
 20
29.986111
 30
0.0
 10
5.476875
 20
29.412847
 30
0.0
 10
3.183819
 20
26.229028
 30
0.0
 10
6.861528
 20
25.250069
 30
0.0
 10
5.229931
 20
21.731111
 30
0.0
 10
8.987014
 20
21.325417
 30
0.0
 10
7.681736
 20
17.647708
 30
0.0
 10
11.844514
 20
16.995069
 30
0.0
 10
10.380486
 20
14.058194
 30
0.0
 10
15.284097
 20
13.564306
 30
0.0
 10
15.284097
 20
8.907639
 30
0.0
 10
19.041181
 20
10.380472
 30
0.0
 10
18.952986
 20
6.376472
 30
0.0
 10
24.024167
 20
7.355417
 30
0.0
 10
23.697847
 20
3.598333
 30
0.0
 10
28.275139
 20
4.736028
 30
0.0
 10
30.559375
 20
1.305278
 30
0.0
 10
33.910764
 20
3.104444
 30
0.0
 10
36.521319
 20
0.167584
 30
0.0
 10
40.287222
 20
2.531195
 30
0.0
 10
43.550417
 20
-0.000000
 30
0.0
 10
46.654861
 20
3.272028
 30
0.0
 10
50.006250
 20
0.899583
 30
0.0
 10
52.131736
 20
4.656667
 30
0.0
 10
56.462083
 20
1.957917
 30
0.0
 10
57.934931
 20
5.723805
 30
0.0
 10
61.938958
 20
4.004028
 30
0.0
 10
62.018333
 20
8.828250
 30
0.0
 10
66.348681
 20
7.108472
 30
0.0
 10
67.080694
 20
11.112500
 30
0.0
 10
70.432083
 20
11.112500
 30
0.0
 10
70.432083
 20
15.116528
 30
0.0
 10
73.783472
 20
15.442847
 30
0.0
 10
73.536528
 20
19.773194
 30
0.0
 10
77.708125
 20
20.505208
 30
0.0
 10
76.561597
 20
24.509236
 30
0.0
 10
79.833611
 20
24.756181
 30
0.0
 10
78.034444
 20
28.107569
 30
0.0
 10
81.544583
 20
29.086528
 30
0.0
 10
79.419097
 20
32.190972
 30
0.0
 10
82.364792
 20
33.178750
 30
0.0
 10
79.833611
 20
36.115625
 30
0.0
 10
82.611736
 20
38.241111
 30
0.0
 10
79.833611
 20
40.939861
 30
0.0
 10
82.691111
 20
43.065347
 30
0.0
 10
80.486250
 20
45.182014
 30
0.0
 10
83.423125
 20
47.069375
 30
0.0
 10
79.745417
 20
49.027292
 30
0.0
 10
82.691111
 20
51.805417
 30
0.0
 10
78.528333
 20
53.604583
 30
0.0
 10
81.059514
 20
56.541458
 30
0.0
 10
76.729167
 20
57.687986
 30
0.0
 10
77.787500
 20
60.960000
 30
0.0
 10
74.524306
 20
62.185903
 30
0.0
 10
76.076528
 20
65.696042
 30
0.0
 10
71.252292
 20
65.449097
 30
0.0
 10
71.499236
 20
70.026389
 30
0.0
 10
67.248264
 20
69.453125
 30
0.0
 10
67.407014
 20
73.624722
 30
0.0
 10
63.649931
 20
72.557569
 30
0.0
 10
62.917917
 20
76.729167
 30
0.0
 10
58.834514
 20
75.415069
 30
0.0
 10
58.508194
 20
78.687083
 30
0.0
 10
53.683958
 20
77.461181
 30
0.0
 10
52.211111
 20
81.465208
 30
0.0
 10
47.960139
 20
79.013403
 30
0.0
 10
46.407917
 20
82.611736
 30
0.0
 10
42.324514
 20
79.586667
 30
0.0
 10
40.199028
 20
82.364792
 30
0.0
 10
37.667847
 20
79.339722
 30
0.0
 10
34.157708
 20
82.117847
 30
0.0
 10
31.458958
 20
78.193194
 30
0.0
 10
29.501042
 20
80.486250
 30
0.0
 10
27.454931
 20
77.055486
 30
0.0
 10
23.618472
 20
78.607708
 30
0.0
 10
22.957014
 20
74.762431
 30
0.0
 10
19.367500
 20
76.076528
 30
0.0
 10
18.952986
 20
72.398819
 30
0.0
 10
15.116528
 20
72.725139
 30
0.0
 10
14.710833
 20
68.879861
 30
0.0
 10
11.280069
 20
69.532500
 30
0.0
 10
11.112500
 20
64.875833
 30
0.0
 10
6.949722
 20
64.796458
 30
0.0
 10
8.166806
 20
60.466111
 30
0.0
 10
4.982986
 20
60.298542
 30
0.0
 10
5.803194
 20
56.215139
 30
0.0
 10
2.857500
 20
55.236181
 30
0.0
 10
4.409722
 20
52.211111
 30
0.0
 10
2.204861
 20
51.558472
 30
0.0
 10
3.836458
 20
48.780347
 30
0.0
 10
0.899583
 20
47.880764
 30
0.0
 10
3.677708
 20
45.023264
 30
0.0
 10
0.000000
 20
42.739028
 30
0.0
 10
3.430764
 20
40.287222
 30
0.0
 10
0.573264
 20
38.488056
 30
0.0
 10
3.510139
 20
36.688889
 30
0.0
 10
1.058333
 20
33.910764
 30
0.0
 10
4.004028
 20
32.358542
 30
0.0
 10
1.631597
 20
29.986111
 30
0.0
 10
5.476875
 20
29.412847
 30
0.0
 10
3.183819
 20
26.229028
 30
0.0
 10
6.861528
 20
25.250069
 30
0.0
 10
5.229931
 20
21.731111
 30
0.0
 10
8.987014
 20
21.325417
 30
0.0
 10
7.681736
 20
17.647708
 30
0.0
 10
11.844514
 20
16.995069
 30
0.0
 10
10.380486
 20
14.058194
 30
0.0
 10
15.284097
 20
13.564306
 30
0.0
 10
15.284097
 20
8.907639
 30
0.0
 10
19.041181
 20
10.380472
 30
0.0
 10
18.952986
 20
6.376472
 30
0.0
 10
24.024167
 20
7.355417
 30
0.0
 10
23.697847
 20
3.598333
 30
0.0
 10
28.275139
 20
4.736028
 30
0.0
 10
30.559375
 20
1.305278
 30
0.0
 10
33.910764
 20
3.104444
 30
0.0
 10
36.521319
 20
0.167584
 30
0.0
 10
40.287222
 20
2.531195
 30
0.0
 10
43.550417
 20
-0.000000
 30
0.0
 10
46.654861
 20
3.272028
 30
0.0
 10
50.006250
 20
0.899583
 30
0.0
 10
52.131736
 20
4.656667
 30
0.0
 10
56.462083
 20
1.957917
 30
0.0
 10
57.934931
 20
5.723805
 30
0.0
 10
61.938958
 20
4.004028
 30
0.0
 10
62.018333
 20
8.828250
 30
0.0
 10
66.348681
 20
7.108472
 30
0.0
 10
67.080694
 20
11.112500
 30
0.0
 10
70.432083
 20
11.112500
 30
0.0
 10
70.432083
 20
15.116528
 30
0.0
 10
73.783472
 20
15.442847
 30
0.0
 10
73.536528
 20
19.773194
 30
0.0
 10
77.708125
 20
20.505208
 30
0.0
 10
76.561597
 20
24.509236
 30
0.0
 10
79.833611
 20
24.756181
 30
0.0
 10
78.034444
 20
28.107569
 30
0.0
 10
81.544583
 20
29.086528
 30
0.0
 10
79.419097
 20
32.190972
 30
0.0
 10
82.364792
 20
33.178750
 30
0.0
 10
79.833611
 20
36.115625
 30
0.0
 10
82.611736
 20
38.241111
 30
0.0
 10
79.833611
 20
40.939861
 30
0.0
 10
82.691111
 20
43.065347
 30
0.0
 10
80.486250
 20
45.182014
 30
0.0
 10
83.423125
 20
47.069375
 30
0.0
 10
79.745417
 20
49.027292
 30
0.0
 10
82.691111
 20
51.805417
 30
0.0
 10
78.528333
 20
53.604583
 30
0.0
 10
81.059514
 20
56.541458
 30
0.0
 10
76.729167
 20
57.687986
 30
0.0
 10
77.787500
 20
60.960000
 30
0.0
 10
74.524306
 20
62.185903
 30
0.0
 10
76.076528
 20
65.696042
 30
0.0
 10
71.252292
 20
65.449097
 30
0.0
 10
71.499236
 20
70.026389
 30
0.0
 10
67.248264
 20
69.453125
 30
0.0
 10
67.407014
 20
73.624722
 30
0.0
 10
63.649931
 20
72.557569
 30
0.0
 10
62.917917
 20
76.729167
 30
0.0
 10
58.834514
 20
75.415069
 30
0.0
 10
58.508194
 20
78.687083
 30
0.0
 10
53.683958
 20
77.461181
 30
0.0
 10
52.211111
 20
81.465208
 30
0.0
 10
47.960139
 20
79.013403
 30
0.0
 10
46.407917
 20
82.611736
 30
0.0
  0
LWPOLYLINE
  5
101
100
AcDbEntity
  8
Outer
 62
7
100
AcDbPolyline
 90
65
 70
0
 10
41.627778
 20
78.457778
 30
0.0
 10
45.451144
 20
78.264715
 30
0.0
 10
49.164062
 20
77.698055
 30
0.0
 10
52.747743
 20
76.776597
 30
0.0
 10
56.183383
 20
75.519136
 30
0.0
 10
59.452191
 20
73.944472
 30
0.0
 10
62.535367
 20
72.071394
 30
0.0
 10
65.414116
 20
69.918704
 30
0.0
 10
68.069643
 20
67.505199
 30
0.0
 10
70.483149
 20
64.849671
 30
0.0
 10
72.635838
 20
61.970923
 30
0.0
 10
74.508916
 20
58.887747
 30
0.0
 10
76.083581
 20
55.618939
 30
0.0
 10
77.341041
 20
52.183298
 30
0.0
 10
78.262500
 20
48.599618
 30
0.0
 10
78.829160
 20
44.886699
 30
0.0
 10
79.022222
 20
41.063333
 30
0.0
 10
78.829160
 20
37.239967
 30
0.0
 10
78.262500
 20
33.527049
 30
0.0
 10
77.341041
 20
29.943369
 30
0.0
 10
76.083581
 20
26.507728
 30
0.0
 10
74.508916
 20
23.238920
 30
0.0
 10
72.635838
 20
20.155744
 30
0.0
 10
70.483149
 20
17.276995
 30
0.0
 10
68.069643
 20
14.621482
 30
0.0
 10
65.414116
 20
12.207974
 30
0.0
 10
62.535367
 20
10.055267
 30
0.0
 10
59.452191
 20
8.182187
 30
0.0
 10
56.183383
 20
6.607528
 30
0.0
 10
52.747743
 20
5.350058
 30
0.0
 10
49.164062
 20
4.428603
 30
0.0
 10
45.451144
 20
3.861957
 30
0.0
 10
41.627778
 20
3.668889
 30
0.0
 10
37.804412
 20
3.861957
 30
0.0
 10
34.091493
 20
4.428603
 30
0.0
 10
30.507813
 20
5.350058
 30
0.0
 10
27.072172
 20
6.607528
 30
0.0
 10
23.803365
 20
8.182187
 30
0.0
 10
20.720188
 20
10.055267
 30
0.0
 10
17.841439
 20
12.207974
 30
0.0
 10
15.185912
 20
14.621482
 30
0.0
 10
12.772406
 20
17.276995
 30
0.0
 10
10.619717
 20
20.155744
 30
0.0
 10
8.746641
 20
23.238920
 30
0.0
 10
7.171974
 20
26.507728
 30
0.0
 10
5.914514
 20
29.943369
 30
0.0
 10
4.993056
 20
33.527049
 30
0.0
 10
4.426397
 20
37.239967
 30
0.0
 10
4.233333
 20
41.063333
 30
0.0
 10
4.426397
 20
44.886699
 30
0.0
 10
4.993056
 20
48.599618
 30
0.0
 10
5.914514
 20
52.183298
 30
0.0
 10
7.171974
 20
55.618939
 30
0.0
 10
8.746641
 20
58.887747
 30
0.0
 10
10.619717
 20
61.970923
 30
0.0
 10
12.772406
 20
64.849671
 30
0.0
 10
15.185912
 20
67.505199
 30
0.0
 10
17.841439
 20
69.918704
 30
0.0
 10
20.720188
 20
72.071394
 30
0.0
 10
23.803365
 20
73.944472
 30
0.0
 10
27.072172
 20
75.519136
 30
0.0
 10
30.507813
 20
76.776597
 30
0.0
 10
34.091493
 20
77.698055
 30
0.0
 10
37.804412
 20
78.264715
 30
0.0
 10
41.627778
 20
78.457778
 30
0.0
  0
LWPOLYLINE
  5
102
100
AcDbEntity
  8
Inner
 62
7
100
AcDbPolyline
 90
65
 70
0
 10
78.497818
 20
41.304774
 30
0.0
 10
78.306941
 20
37.560472
 30
0.0
 10
77.746874
 20
33.920813
 30
0.0
 10
76.836478
 20
30.404693
 30
0.0
 10
75.594605
 20
27.031004
 30
0.0
 10
74.040111
 20
23.818639
 30
0.0
 10
72.191848
 20
20.786491
 30
0.0
 10
70.068676
 20
17.953452
 30
0.0
 10
67.689444
 20
15.338416
 30
0.0
 10
65.073008
 20
12.960276
 30
0.0
 10
62.238227
 20
10.837924
 30
0.0
 10
59.203950
 20
8.990253
 30
0.0
 10
55.989037
 20
7.436157
 30
0.0
 10
52.612339
 20
6.194527
 30
0.0
 10
49.092714
 20
5.284258
 30
0.0
 10
45.449017
 20
4.724241
 30
0.0
 10
41.700097
 20
4.533371
 30
0.0
 10
37.955795
 20
4.724241
 30
0.0
 10
34.316136
 20
5.284258
 30
0.0
 10
30.800016
 20
6.194527
 30
0.0
 10
27.426327
 20
7.436157
 30
0.0
 10
24.213962
 20
8.990253
 30
0.0
 10
21.181814
 20
10.837924
 30
0.0
 10
18.348775
 20
12.960276
 30
0.0
 10
15.733739
 20
15.338416
 30
0.0
 10
13.355598
 20
17.953452
 30
0.0
 10
11.233246
 20
20.786491
 30
0.0
 10
9.385576
 20
23.818639
 30
0.0
 10
7.831479
 20
27.031004
 30
0.0
 10
6.589850
 20
30.404693
 30
0.0
 10
5.679580
 20
33.920813
 30
0.0
 10
5.119564
 20
37.560472
 30
0.0
 10
4.928694
 20
41.304774
 30
0.0
 10
5.119564
 20
45.049066
 30
0.0
 10
5.679580
 20
48.688710
 30
0.0
 10
6.589850
 20
52.204821
 30
0.0
 10
7.831479
 20
55.578498
 30
0.0
 10
9.385576
 20
58.790854
 30
0.0
 10
11.233246
 20
61.822993
 30
0.0
 10
13.355598
 20
64.656025
 30
0.0
 10
15.733739
 20
67.271053
 30
0.0
 10
18.348775
 20
69.649188
 30
0.0
 10
21.181814
 20
71.771535
 30
0.0
 10
24.213962
 20
73.619201
 30
0.0
 10
27.426327
 20
75.173293
 30
0.0
 10
30.800016
 20
76.414919
 30
0.0
 10
34.316136
 20
77.325188
 30
0.0
 10
37.955795
 20
77.885202
 30
0.0
 10
41.700097
 20
78.076072
 30
0.0
 10
45.449017
 20
77.885202
 30
0.0
 10
49.092714
 20
77.325188
 30
0.0
 10
52.612339
 20
76.414919
 30
0.0
 10
55.989037
 20
75.173293
 30
0.0
 10
59.203950
 20
73.619201
 30
0.0
 10
62.238227
 20
71.771535
 30
0.0
 10
65.073008
 20
69.649188
 30
0.0
 10
67.689444
 20
67.271053
 30
0.0
 10
70.068676
 20
64.656025
 30
0.0
 10
72.191848
 20
61.822993
 30
0.0
 10
74.040111
 20
58.790854
 30
0.0
 10
75.594605
 20
55.578498
 30
0.0
 10
76.836478
 20
52.204821
 30
0.0
 10
77.746874
 20
48.688710
 30
0.0
 10
78.306941
 20
45.049066
 30
0.0
 10
78.497818
 20
41.304774
 30
0.0
  0
LWPOLYLINE
  5
103
100
AcDbEntity
  8
Inner
 62
7
100
AcDbPolyline
 90
223
 70
0
 10
76.734211
 20
41.304774
 30
0.0
 10
76.664273
 20
39.085234
 30
0.0
 10
76.457267
 20
36.900891
 30
0.0
 10
76.117390
 20
34.756107
 30
0.0
 10
75.648848
 20
32.655238
 30
0.0
 10
75.055843
 20
30.602640
 30
0.0
 10
74.342579
 20
28.602672
 30
0.0
 10
73.513259
 20
26.659691
 30
0.0
 10
72.572086
 20
24.778053
 30
0.0
 10
71.523260
 20
22.962116
 30
0.0
 10
70.370989
 20
21.216237
 30
0.0
 10
69.119471
 20
19.544774
 30
0.0
 10
67.772911
 20
17.952084
 30
0.0
 10
66.335515
 20
16.442523
 30
0.0
 10
64.811480
 20
15.020451
 30
0.0
 10
63.205014
 20
13.690222
 30
0.0
 10
61.520317
 20
12.456195
 30
0.0
 10
60.472383
 20
14.204952
 30
0.0
 10
59.552762
 20
15.687208
 30
0.0
 10
58.781184
 20
17.238559
 30
0.0
 10
58.177395
 20
19.194604
 30
0.0
 10
61.467612
 20
20.510676
 30
0.0
 10
62.415208
 20
22.353199
 30
0.0
 10
62.360524
 20
22.927324
 30
0.0
 10
62.451424
 20
23.511325
 30
0.0
 10
62.655838
 20
24.055863
 30
0.0
 10
62.941694
 20
24.511600
 30
0.0
 10
63.259593
 20
24.958650
 30
0.0
 10
63.451634
 20
25.403223
 30
0.0
 10
63.500564
 20
25.862607
 30
0.0
 10
63.389122
 20
26.354087
 30
0.0
 10
63.300278
 20
26.777688
 30
0.0
 10
63.349643
 20
27.216096
 30
0.0
 10
63.537190
 20
27.605151
 30
0.0
 10
63.862902
 20
27.880698
 30
0.0
 10
64.505332
 20
28.479950
 30
0.0
 10
64.698640
 20
29.239569
 30
0.0
 10
64.803105
 20
30.083076
 30
0.0
 10
65.179011
 20
30.933990
 30
0.0
 10
65.710386
 20
31.651286
 30
0.0
 10
66.113431
 20
32.408045
 30
0.0
 10
66.200616
 20
33.184529
 30
0.0
 10
65.784413
 20
33.960999
 30
0.0
 10
66.244220
 20
35.921964
 30
0.0
 10
66.639849
 20
37.606552
 30
0.0
 10
67.035486
 20
39.291140
 30
0.0
 10
67.495314
 20
41.252105
 30
0.0
 10
67.353815
 20
41.307223
 30
0.0
 10
67.232068
 20
41.357391
 30
0.0
 10
67.110342
 20
41.407560
 30
0.0
 10
66.968899
 20
41.462678
 30
0.0
 10
66.504965
 20
39.533371
 30
0.0
 10
66.100254
 20
37.853324
 30
0.0
 10
65.695544
 20
36.128861
 30
0.0
 10
65.231610
 20
34.066304
 30
0.0
 10
64.494608
 20
33.741801
 30
0.0
 10
63.915533
 20
33.306253
 30
0.0
 10
63.395691
 20
32.737447
 30
0.0
 10
62.836390
 20
32.013172
 30
0.0
 10
61.686867
 20
30.724240
 30
0.0
 10
60.352273
 20
29.736367
 30
0.0
 10
58.805463
 20
29.044622
 30
0.0
 10
57.019296
 20
28.644074
 30
0.0
 10
57.095775
 20
30.133274
 30
0.0
 10
57.275910
 20
32.542917
 30
0.0
 10
57.604117
 20
36.220940
 30
0.0
 10
58.124796
 20
41.515277
 30
0.0
 10
58.052399
 20
41.528471
 30
0.0
 10
57.979998
 20
41.541629
 30
0.0
 10
57.907601
 20
41.554823
 30
0.0
 10
57.835200
 20
41.568017
 30
0.0
 10
57.485643
 20
38.935459
 30
0.0
 10
57.190358
 20
36.675512
 30
0.0
 10
56.895072
 20
34.420497
 30
0.0
 10
56.545515
 20
31.802740
 30
0.0
 10
55.256557
 20
30.600542
 30
0.0
 10
54.150207
 20
29.568621
 30
0.0
 10
53.043857
 20
28.541653
 30
0.0
 10
51.754899
 20
27.354318
 30
0.0
 10
49.691533
 20
30.218869
 30
0.0
 10
47.763892
 20
32.700935
 30
0.0
 10
45.791836
 20
34.872069
 30
0.0
 10
43.595219
 20
36.803824
 30
0.0
 10
44.190359
 20
38.549252
 30
0.0
 10
44.684294
 20
40.028192
 30
0.0
 10
45.153534
 20
41.467645
 30
0.0
 10
45.674598
 20
43.094628
 30
0.0
 10
45.026068
 20
42.645958
 30
0.0
 10
44.572442
 20
41.656868
 30
0.0
 10
44.123719
 20
40.544383
 30
0.0
 10
43.489915
 20
39.725529
 30
0.0
 10
43.217253
 20
39.464749
 30
0.0
 10
43.026009
 20
39.120089
 30
0.0
 10
42.908784
 20
38.696466
 30
0.0
 10
42.858196
 20
38.198813
 30
0.0
 10
42.823271
 20
37.593443
 30
0.0
 10
42.795719
 20
37.067028
 30
0.0
 10
42.773071
 20
36.540606
 30
0.0
 10
42.752857
 20
35.935214
 30
0.0
 10
42.481458
 20
35.160787
 30
0.0
 10
41.943517
 20
34.852733
 30
0.0
 10
41.375954
 20
35.013522
 30
0.0
 10
41.015673
 20
35.645619
 30
0.0
 10
40.838833
 20
36.438586
 30
0.0
 10
40.686673
 20
37.113090
 30
0.0
 10
40.534512
 20
37.777706
 30
0.0
 10
40.357672
 20
38.541007
 30
0.0
 10
38.472756
 20
38.830141
 30
0.0
 10
37.261532
 20
39.748513
 30
0.0
 10
36.756075
 20
41.076513
 30
0.0
 10
36.988468
 20
42.594530
 30
0.0
 10
38.153202
 20
42.315705
 30
0.0
 10
39.535082
 20
42.199736
 30
0.0
 10
40.630708
 20
42.379889
 30
0.0
 10
40.936686
 20
42.989429
 30
0.0
 10
39.735767
 20
42.954434
 30
0.0
 10
38.594069
 20
42.986078
 30
0.0
 10
37.827454
 20
43.170750
 30
0.0
 10
37.751773
 20
43.594821
 30
0.0
 10
38.009237
 20
43.847731
 30
0.0
 10
38.251888
 20
44.078426
 30
0.0
 10
38.514278
 20
44.323938
 30
0.0
 10
38.830956
 20
44.621298
 30
0.0
 10
39.544939
 20
44.464210
 30
0.0
 10
40.258915
 20
44.391001
 30
0.0
 10
41.022245
 20
44.347391
 30
0.0
 10
41.884283
 20
44.279104
 30
0.0
 10
42.346961
 20
43.711566
 30
0.0
 10
43.058895
 20
43.765869
 30
0.0
 10
43.834999
 20
44.293942
 30
0.0
 10
44.490181
 20
45.147713
 30
0.0
 10
43.230006
 20
45.137836
 30
0.0
 10
42.068560
 20
45.108237
 30
0.0
 10
40.907120
 20
45.058894
 30
0.0
 10
39.646966
 20
44.989796
 30
0.0
 10
39.590200
 20
45.392054
 30
0.0
 10
39.587731
 20
45.779492
 30
0.0
 10
39.654353
 20
46.166913
 30
0.0
 10
39.804873
 20
46.569111
 30
0.0
 10
39.541669
 20
46.513972
 30
0.0
 10
39.317930
 20
46.463793
 30
0.0
 10
39.094184
 20
46.413621
 30
0.0
 10
38.830959
 20
46.358503
 30
0.0
 10
38.398722
 20
46.259020
 30
0.0
 10
38.156494
 20
46.430932
 30
0.0
 10
38.086997
 20
46.810101
 30
0.0
 10
38.172958
 20
47.332381
 30
0.0
 10
38.353884
 20
48.202674
 30
0.0
 10
38.436123
 20
49.063088
 30
0.0
 10
38.498635
 20
49.953101
 30
0.0
 10
38.620386
 20
50.912194
 30
0.0
 10
38.902954
 20
51.579702
 30
0.0
 10
39.380460
 20
51.810430
 30
0.0
 10
39.912248
 20
51.670991
 30
0.0
 10
40.357675
 20
51.228001
 30
0.0
 10
41.308542
 20
50.397251
 30
0.0
 10
42.614734
 20
50.129119
 30
0.0
 10
44.147945
 20
50.384131
 30
0.0
 10
45.779870
 20
51.122802
 30
0.0
 10
46.235976
 20
51.286470
 30
0.0
 10
46.645199
 20
51.228054
 30
0.0
 10
46.990258
 20
51.011705
 30
0.0
 10
47.253881
 20
50.701586
 30
0.0
 10
47.630659
 20
50.069870
 30
0.0
 10
47.918564
 20
49.398675
 30
0.0
 10
47.979422
 20
48.687986
 30
0.0
 10
47.675063
 20
47.937783
 30
0.0
 10
47.335754
 20
47.267015
 30
0.0
 10
47.191390
 20
46.559227
 30
0.0
 10
47.249390
 20
45.816894
 30
0.0
 10
47.517159
 20
45.042501
 30
0.0
 10
49.327576
 20
43.161694
 30
0.0
 10
51.044242
 20
43.677004
 30
0.0
 10
51.892288
 20
45.934489
 30
0.0
 10
51.096866
 20
49.280209
 30
0.0
 10
55.531667
 20
50.466770
 30
0.0
 10
59.332269
 20
51.685391
 30
0.0
 10
62.930518
 20
53.333368
 30
0.0
 10
66.758259
 20
55.808009
 30
0.0
 10
67.444288
 20
56.423705
 30
0.0
 10
67.804559
 20
57.081335
 30
0.0
 10
67.365305
 20
57.536599
 30
0.0
 10
65.652759
 20
57.545206
 30
0.0
 10
61.857079
 20
57.066088
 30
0.0
 10
58.463635
 20
56.515395
 30
0.0
 10
55.025777
 20
55.742611
 30
0.0
 10
51.096866
 20
54.597219
 30
0.0
 10
44.232689
 20
52.830794
 30
0.0
 10
38.074254
 20
52.132865
 30
0.0
 10
31.826982
 20
52.239386
 30
0.0
 10
24.696282
 20
52.886317
 30
0.0
 10
26.460202
 20
53.487994
 30
0.0
 10
27.969985
 20
54.008260
 30
0.0
 10
29.474841
 20
54.533483
 30
0.0
 10
31.223977
 20
55.150022
 30
0.0
 10
38.260091
 20
55.160252
 30
0.0
 10
44.338773
 20
55.765241
 30
0.0
 10
50.131200
 20
56.878583
 30
0.0
 10
56.308558
 20
58.413904
 30
0.0
 10
54.417927
 20
58.358345
 30
0.0
 10
52.791325
 20
58.305270
 30
0.0
 10
51.159795
 20
58.247280
 30
0.0
 10
49.254378
 20
58.176978
 30
0.0
 10
48.186696
 20
63.151773
 30
0.0
 10
47.188116
 20
67.455369
 30
0.0
 10
46.071095
 20
71.620772
 30
0.0
 10
44.648088
 20
76.180992
 30
0.0
 10
47.962379
 20
75.747097
 30
0.0
 10
51.173221
 20
75.008444
 30
0.0
 10
54.265385
 20
73.980460
 30
0.0
 10
57.223646
 20
72.678565
 30
0.0
 10
60.032766
 20
71.118183
 30
0.0
 10
62.677523
 20
69.314734
 30
0.0
 10
65.142678
 20
67.283648
 30
0.0
 10
67.413008
 20
65.040341
 30
0.0
 10
69.473276
 20
62.600240
 30
0.0
 10
71.308256
 20
59.978766
 30
0.0
 10
72.902717
 20
57.191342
 30
0.0
 10
74.241431
 20
54.253391
 30
0.0
 10
75.309162
 20
51.180337
 30
0.0
 10
76.090685
 20
47.987603
 30
0.0
 10
76.570766
 20
44.690609
 30
0.0
 10
76.734211
 20
41.304774
 30
0.0
  0
LWPOLYLINE
  5
104
100
AcDbEntity
  8
Inner
 62
7
100
AcDbPolyline
 90
75
 70
0
 10
11.377507
 20
23.906198
 30
0.0
 10
10.830094
 20
24.878033
 30
0.0
 10
10.313529
 20
25.868337
 30
0.0
 10
9.828426
 20
26.876455
 30
0.0
 10
9.375403
 20
27.901730
 30
0.0
 10
8.955077
 20
28.943508
 30
0.0
 10
8.568065
 20
30.001134
 30
0.0
 10
8.214984
 20
31.073950
 30
0.0
 10
7.896450
 20
32.161304
 30
0.0
 10
7.613080
 20
33.262538
 30
0.0
 10
7.365492
 20
34.376996
 30
0.0
 10
7.154302
 20
35.504025
 30
0.0
 10
6.980127
 20
36.642968
 30
0.0
 10
6.843583
 20
37.793172
 30
0.0
 10
6.745289
 20
38.953976
 30
0.0
 10
6.685859
 20
40.124729
 30
0.0
 10
6.665913
 20
41.304774
 30
0.0
 10
6.791597
 20
44.270708
 30
0.0
 10
7.161811
 20
47.170171
 30
0.0
 10
7.766298
 20
49.992830
 30
0.0
 10
8.594803
 20
52.728354
 30
0.0
 10
9.637069
 20
55.366405
 30
0.0
 10
10.882839
 20
57.896651
 30
0.0
 10
12.321858
 20
60.308758
 30
0.0
 10
13.943869
 20
62.592394
 30
0.0
 10
15.738615
 20
64.737227
 30
0.0
 10
17.695841
 20
66.732919
 30
0.0
 10
19.805290
 20
68.569141
 30
0.0
 10
22.056706
 20
70.235558
 30
0.0
 10
24.439832
 20
71.721835
 30
0.0
 10
26.944412
 20
73.017641
 30
0.0
 10
29.560190
 20
74.112639
 30
0.0
 10
32.276910
 20
74.996499
 30
0.0
 10
31.611475
 20
70.224057
 30
0.0
 10
31.138505
 20
65.915536
 30
0.0
 10
30.892560
 20
61.508291
 30
0.0
 10
30.908202
 20
56.439682
 30
0.0
 10
26.345929
 20
55.599891
 30
0.0
 10
22.521470
 20
54.873574
 30
0.0
 10
18.830249
 20
54.048537
 30
0.0
 10
14.667689
 20
52.912574
 30
0.0
 10
13.851714
 20
50.464685
 30
0.0
 10
29.381521
 20
48.964391
 30
0.0
 10
29.436638
 20
48.489355
 30
0.0
 10
29.486807
 20
48.085887
 30
0.0
 10
29.536977
 20
47.687368
 30
0.0
 10
29.592094
 20
47.227172
 30
0.0
 10
27.968790
 20
44.710981
 30
0.0
 10
28.667543
 20
42.397116
 30
0.0
 10
30.506345
 20
41.859955
 30
0.0
 10
32.303191
 20
44.673873
 30
0.0
 10
32.942353
 20
43.714811
 30
0.0
 10
33.349521
 20
42.706364
 30
0.0
 10
33.509900
 20
41.609081
 30
0.0
 10
33.408691
 20
40.383495
 30
0.0
 10
33.178415
 20
39.750111
 30
0.0
 10
32.730965
 20
39.205574
 30
0.0
 10
32.076208
 20
38.947298
 30
0.0
 10
31.224009
 20
39.172691
 30
0.0
 10
30.598883
 20
39.468820
 30
0.0
 10
29.894786
 20
39.626741
 30
0.0
 10
29.151200
 20
39.557639
 30
0.0
 10
28.407607
 20
39.172691
 30
0.0
 10
27.660348
 20
38.574722
 30
0.0
 10
27.048791
 20
38.040899
 30
0.0
 10
26.412541
 20
37.447851
 30
0.0
 10
25.591206
 20
36.672202
 30
0.0
 10
24.417851
 20
35.897749
 30
0.0
 10
23.153172
 20
35.352782
 30
0.0
 10
21.804587
 20
34.684449
 30
0.0
 10
20.379514
 20
33.539889
 30
0.0
 10
17.895852
 20
30.950049
 30
0.0
 10
15.789716
 20
28.693370
 30
0.0
 10
13.727978
 20
26.451528
 30
0.0
 10
11.377507
 20
23.906198
 30
0.0
  0
LWPOLYLINE
  5
105
100
AcDbEntity
  8
Inner
 62
7
100
AcDbPolyline
 90
17
 70
0
 10
29.802702
 20
46.358492
 30
0.0
 10
29.107636
 20
45.513325
 30
0.0
 10
28.762973
 20
44.670624
 30
0.0
 10
28.714426
 20
43.882204
 30
0.0
 10
28.907705
 20
43.199897
 30
0.0
 10
29.205908
 20
42.785767
 30
0.0
 10
29.615134
 20
42.551770
 30
0.0
 10
30.058895
 20
42.529968
 30
0.0
 10
30.460703
 20
42.752486
 30
0.0
 10
30.877764
 20
43.258331
 30
0.0
 10
31.171409
 20
43.798737
 30
0.0
 10
31.386077
 20
44.388514
 30
0.0
 10
31.566203
 20
45.042473
 30
0.0
 10
31.127783
 20
45.366545
 30
0.0
 10
30.704177
 20
45.720236
 30
0.0
 10
30.270709
 20
46.064050
 30
0.0
 10
29.802702
 20
46.358492
 30
0.0
  0
LWPOLYLINE
  5
106
100
AcDbEntity
  8
Inner
 62
7
100
AcDbPolyline
 90
21
 70
0
 10
35.909321
 20
49.332903
 30
0.0
 10
35.468408
 20
49.679617
 30
0.0
 10
35.106487
 20
50.013976
 30
0.0
 10
34.724827
 20
50.284172
 30
0.0
 10
34.224701
 20
50.438403
 30
0.0
 10
33.146364
 20
50.367664
 30
0.0
 10
32.428282
 20
49.892222
 30
0.0
 10
32.174112
 20
49.091042
 30
0.0
 10
32.487517
 20
48.043077
 30
0.0
 10
32.772918
 20
47.530635
 30
0.0
 10
33.073133
 20
47.121833
 30
0.0
 10
33.442463
 20
46.792007
 30
0.0
 10
33.935211
 20
46.516502
 30
0.0
 10
34.348953
 20
46.370452
 30
0.0
 10
34.698530
 20
46.374967
 30
0.0
 10
35.008624
 20
46.601602
 30
0.0
 10
35.303919
 20
47.121904
 30
0.0
 10
35.417009
 20
47.781979
 30
0.0
 10
35.379582
 20
48.414926
 30
0.0
 10
35.455673
 20
48.954111
 30
0.0
 10
35.909321
 20
49.332903
 30
0.0
  0
LWPOLYLINE
  5
107
100
AcDbEntity
  8
Inner
 62
7
100
AcDbPolyline
 90
17
 70
0
 10
48.333096
 20
46.727004
 30
0.0
 10
48.869025
 20
46.882879
 30
0.0
 10
49.343229
 20
47.283056
 30
0.0
 10
49.772997
 20
47.826351
 30
0.0
 10
50.175619
 20
48.411589
 30
0.0
 10
50.615300
 20
47.825939
 30
0.0
 10
50.830409
 20
47.200795
 30
0.0
 10
50.882642
 20
46.516421
 30
0.0
 10
50.833690
 20
45.753091
 30
0.0
 10
50.492748
 20
44.889445
 30
0.0
 10
49.843337
 20
44.331752
 30
0.0
 10
49.149501
 20
44.168878
 30
0.0
 10
48.675290
 20
44.489687
 30
0.0
 10
48.458974
 20
45.065036
 30
0.0
 10
48.346289
 20
45.618202
 30
0.0
 10
48.312564
 20
46.166440
 30
0.0
 10
48.333096
 20
46.727004
 30
0.0
  0
LWPOLYLINE
  5
108
100
AcDbEntity
  8
Inner
 62
7
100
AcDbPolyline
 90
17
 70
0
 10
37.146406
 20
46.253188
 30
0.0
 10
36.917739
 20
45.983821
 30
0.0
 10
36.639712
 20
45.776141
 30
0.0
 10
36.332079
 20
45.642481
 30
0.0
 10
36.014589
 20
45.595187
 30
0.0
 10
35.840194
 20
45.686497
 30
0.0
 10
35.882972
 20
45.911064
 30
0.0
 10
36.044212
 20
46.194846
 30
0.0
 10
36.225198
 20
46.463797
 30
0.0
 10
36.473603
 20
46.816289
 30
0.0
 10
36.692392
 20
47.052787
 30
0.0
 10
36.921059
 20
47.185633
 30
0.0
 10
37.199111
 20
47.227172
 30
0.0
 10
37.401846
 20
47.119413
 30
0.0
 10
37.419520
 20
46.858647
 30
0.0
 10
37.313810
 20
46.538649
 30
0.0
 10
37.146406
 20
46.253188
 30
0.0
  0
LWPOLYLINE
  5
109
100
AcDbEntity
  8
Inner
 62
7
100
AcDbPolyline
 90
17
 70
0
 10
62.230988
 20
41.962776
 30
0.0
 10
62.189448
 20
41.743200
 30
0.0
 10
62.076344
 20
41.568014
 30
0.0
 10
61.908937
 20
41.452031
 30
0.0
 10
61.704502
 20
41.410079
 30
0.0
 10
61.484912
 20
41.452031
 30
0.0
 10
61.309726
 20
41.568014
 30
0.0
 10
61.193754
 20
41.743200
 30
0.0
 10
61.151805
 20
41.962776
 30
0.0
 10
61.193754
 20
42.167217
 30
0.0
 10
61.309726
 20
42.334635
 30
0.0
 10
61.484912
 20
42.447753
 30
0.0
 10
61.704502
 20
42.489296
 30
0.0
 10
61.908937
 20
42.447753
 30
0.0
 10
62.076344
 20
42.334635
 30
0.0
 10
62.189448
 20
42.167217
 30
0.0
 10
62.230988
 20
41.962776
 30
0.0
  0
LWPOLYLINE
  5
10a
100
AcDbEntity
  8
Inner
 62
7
100
AcDbPolyline
 90
17
 70
0
 10
65.284315
 20
42.015481
 30
0.0
 10
65.242359
 20
41.795845
 30
0.0
 10
65.126369
 20
41.620627
 30
0.0
 10
64.951148
 20
41.504634
 30
0.0
 10
64.731512
 20
41.462678
 30
0.0
 10
64.527130
 20
41.504634
 30
0.0
 10
64.359748
 20
41.620627
 30
0.0
 10
64.246640
 20
41.795845
 30
0.0
 10
64.205097
 20
42.015481
 30
0.0
 10
64.246640
 20
42.223983
 30
0.0
 10
64.359748
 20
42.400400
 30
0.0
 10
64.527130
 20
42.522532
 30
0.0
 10
64.731512
 20
42.568177
 30
0.0
 10
64.951148
 20
42.522532
 30
0.0
 10
65.126369
 20
42.400400
 30
0.0
 10
65.242359
 20
42.223983
 30
0.0
 10
65.284315
 20
42.015481
 30
0.0
  0
LWPOLYLINE
  5
10b
100
AcDbEntity
  8
Inner
 62
7
100
AcDbPolyline
 90
17
 70
0
 10
64.310401
 20
39.830798
 30
0.0
 10
64.278334
 20
39.684367
 30
0.0
 10
64.191959
 20
39.567566
 30
0.0
 10
64.066117
 20
39.490251
 30
0.0
 10
63.915625
 20
39.462276
 30
0.0
 10
63.769194
 20
39.490251
 30
0.0
 10
63.652393
 20
39.567566
 30
0.0
 10
63.575078
 20
39.684367
 30
0.0
 10
63.547103
 20
39.830798
 30
0.0
 10
63.575078
 20
39.981290
 30
0.0
 10
63.652393
 20
40.107133
 30
0.0
 10
63.769194
 20
40.193507
 30
0.0
 10
63.915625
 20
40.225610
 30
0.0
 10
64.066117
 20
40.193507
 30
0.0
 10
64.191959
 20
40.107133
 30
0.0
 10
64.278334
 20
39.981290
 30
0.0
 10
64.310401
 20
39.830798
 30
0.0
  0
LWPOLYLINE
  5
10c
100
AcDbEntity
  8
Inner
 62
7
100
AcDbPolyline
 90
17
 70
0
 10
62.362609
 20
39.935997
 30
0.0
 10
62.330506
 20
39.800699
 30
0.0
 10
62.244132
 20
39.682660
 30
0.0
 10
62.118289
 20
39.599157
 30
0.0
 10
61.967798
 20
39.567478
 30
0.0
 10
61.821353
 20
39.599157
 30
0.0
 10
61.704513
 20
39.682660
 30
0.0
 10
61.627159
 20
39.800699
 30
0.0
 10
61.599184
 20
39.935997
 30
0.0
 10
61.627159
 20
40.086552
 30
0.0
 10
61.704513
 20
40.212423
 30
0.0
 10
61.821353
 20
40.298811
 30
0.0
 10
61.967798
 20
40.330914
 30
0.0
 10
62.118289
 20
40.298811
 30
0.0
 10
62.244132
 20
40.212423
 30
0.0
 10
62.330506
 20
40.086552
 30
0.0
 10
62.362609
 20
39.935997
 30
0.0
  0
LWPOLYLINE
  5
10d
100
AcDbEntity
  8
Inner
 62
7
100
AcDbPolyline
 90
17
 70
0
 10
60.177892
 20
40.330896
 30
0.0
 10
60.150728
 20
40.199680
 30
0.0
 10
60.079153
 20
40.090690
 30
0.0
 10
59.977973
 20
40.016254
 30
0.0
 10
59.862000
 20
39.988702
 30
0.0
 10
59.730813
 20
40.016254
 30
0.0
 10
59.621822
 20
40.090690
 30
0.0
 10
59.547368
 20
40.199680
 30
0.0
 10
59.519816
 20
40.330896
 30
0.0
 10
59.547368
 20
40.457945
 30
0.0
 10
59.621822
 20
40.557870
 30
0.0
 10
59.730813
 20
40.623261
 30
0.0
 10
59.862000
 20
40.646685
 30
0.0
 10
59.977973
 20
40.623261
 30
0.0
 10
60.079153
 20
40.557870
 30
0.0
 10
60.150728
 20
40.457945
 30
0.0
 10
60.177892
 20
40.330896
 30
0.0
  0
LWPOLYLINE
  5
10e
100
AcDbEntity
  8
Inner
 62
7
100
AcDbPolyline
 90
17
 70
0
 10
59.783098
 20
37.882971
 30
0.0
 10
59.755123
 20
37.732434
 30
0.0
 10
59.677776
 20
37.606556
 30
0.0
 10
59.560947
 20
37.520164
 30
0.0
 10
59.414519
 20
37.488061
 30
0.0
 10
59.268134
 20
37.520164
 30
0.0
 10
59.151326
 20
37.606556
 30
0.0
 10
59.073987
 20
37.732434
 30
0.0
 10
59.046011
 20
37.882971
 30
0.0
 10
59.073987
 20
38.029356
 30
0.0
 10
59.151326
 20
38.146164
 30
0.0
 10
59.268134
 20
38.223504
 30
0.0
 10
59.414519
 20
38.251479
 30
0.0
 10
59.560947
 20
38.223504
 30
0.0
 10
59.677776
 20
38.146164
 30
0.0
 10
59.755123
 20
38.029356
 30
0.0
 10
59.783098
 20
37.882971
 30
0.0
  0
LWPOLYLINE
  5
10f
100
AcDbEntity
  8
Inner
 62
7
100
AcDbPolyline
 90
17
 70
0
 10
62.283622
 20
37.593376
 30
0.0
 10
62.246602
 20
37.408323
 30
0.0
 10
62.145418
 20
37.257796
 30
0.0
 10
61.994881
 20
37.156616
 30
0.0
 10
61.809806
 20
37.119595
 30
0.0
 10
61.609538
 20
37.156616
 30
0.0
 10
61.451201
 20
37.257796
 30
0.0
 10
61.347138
 20
37.408323
 30
0.0
 10
61.309709
 20
37.593376
 30
0.0
 10
61.347138
 20
37.793690
 30
0.0
 10
61.451201
 20
37.952024
 30
0.0
 10
61.609538
 20
38.056058
 30
0.0
 10
61.809806
 20
38.093474
 30
0.0
 10
61.994881
 20
38.056058
 30
0.0
 10
62.145418
 20
37.952024
 30
0.0
 10
62.246602
 20
37.793690
 30
0.0
 10
62.283622
 20
37.593376
 30
0.0
  0
LWPOLYLINE
  5
110
100
AcDbEntity
  8
Inner
 62
7
100
AcDbPolyline
 90
17
 70
0
 10
63.652294
 20
36.461594
 30
0.0
 10
63.620650
 20
36.326265
 30
0.0
 10
63.537179
 20
36.208229
 30
0.0
 10
63.419154
 20
36.124748
 30
0.0
 10
63.283832
 20
36.093068
 30
0.0
 10
63.133333
 20
36.124748
 30
0.0
 10
63.007480
 20
36.208229
 30
0.0
 10
62.921092
 20
36.326265
 30
0.0
 10
62.888989
 20
36.461594
 30
0.0
 10
62.921092
 20
36.612131
 30
0.0
 10
63.007480
 20
36.737967
 30
0.0
 10
63.133333
 20
36.824317
 30
0.0
 10
63.283832
 20
36.856384
 30
0.0
 10
63.419154
 20
36.824317
 30
0.0
 10
63.537179
 20
36.737967
 30
0.0
 10
63.620650
 20
36.612131
 30
0.0
 10
63.652294
 20
36.461594
 30
0.0
  0
LWPOLYLINE
  5
111
100
AcDbEntity
  8
Inner
 62
7
100
AcDbPolyline
 90
17
 70
0
 10
60.783294
 20
36.198387
 30
0.0
 10
60.737648
 20
35.978737
 30
0.0
 10
60.615505
 20
35.803519
 30
0.0
 10
60.439053
 20
35.687533
 30
0.0
 10
60.230491
 20
35.645584
 30
0.0
 10
60.026116
 20
35.687533
 30
0.0
 10
59.858744
 20
35.803519
 30
0.0
 10
59.745647
 20
35.978737
 30
0.0
 10
59.704111
 20
36.198387
 30
0.0
 10
59.745647
 20
36.402768
 30
0.0
 10
59.858744
 20
36.570151
 30
0.0
 10
60.026116
 20
36.683259
 30
0.0
 10
60.230491
 20
36.724802
 30
0.0
 10
60.439053
 20
36.683259
 30
0.0
 10
60.615505
 20
36.570151
 30
0.0
 10
60.737648
 20
36.402768
 30
0.0
 10
60.783294
 20
36.198387
 30
0.0
  0
LWPOLYLINE
  5
112
100
AcDbEntity
  8
Inner
 62
7
100
AcDbPolyline
 90
17
 70
0
 10
62.283622
 20
35.119204
 30
0.0
 10
62.251131
 20
34.949330
 30
0.0
 10
62.161896
 20
34.806608
 30
0.0
 10
62.028243
 20
34.708309
 30
0.0
 10
61.862508
 20
34.671706
 30
0.0
 10
61.692649
 20
34.708309
 30
0.0
 10
61.549926
 20
34.806608
 30
0.0
 10
61.451617
 20
34.949330
 30
0.0
 10
61.415009
 20
35.119204
 30
0.0
 10
61.451617
 20
35.284936
 30
0.0
 10
61.549926
 20
35.418575
 30
0.0
 10
61.692649
 20
35.507799
 30
0.0
 10
61.862508
 20
35.540290
 30
0.0
 10
62.028243
 20
35.507799
 30
0.0
 10
62.161896
 20
35.418575
 30
0.0
 10
62.251131
 20
35.284936
 30
0.0
 10
62.283622
 20
35.119204
 30
0.0
  0
LWPOLYLINE
  5
113
100
AcDbEntity
  8
Inner
 62
7
100
AcDbPolyline
 90
17
 70
0
 10
60.335795
 20
34.303194
 30
0.0
 10
60.298782
 20
34.102925
 30
0.0
 10
60.197608
 20
33.944586
 30
0.0
 10
60.047082
 20
33.840527
 30
0.0
 10
59.862014
 20
33.803096
 30
0.0
 10
59.672834
 20
33.840527
 30
0.0
 10
59.513262
 20
33.944586
 30
0.0
 10
59.403044
 20
34.102925
 30
0.0
 10
59.361917
 20
34.303194
 30
0.0
 10
59.403044
 20
34.488263
 30
0.0
 10
59.513262
 20
34.638787
 30
0.0
 10
59.672834
 20
34.739960
 30
0.0
 10
59.862014
 20
34.776974
 30
0.0
 10
60.047082
 20
34.739960
 30
0.0
 10
60.197608
 20
34.638787
 30
0.0
 10
60.298782
 20
34.488263
 30
0.0
 10
60.335795
 20
34.303194
 30
0.0
  0
LWPOLYLINE
  5
114
100
AcDbEntity
  8
Inner
 62
7
100
AcDbPolyline
 90
17
 70
0
 10
62.020415
 20
33.171377
 30
0.0
 10
61.987924
 20
32.990429
 30
0.0
 10
61.898650
 20
32.848938
 30
0.0
 10
61.764961
 20
32.756791
 30
0.0
 10
61.599209
 20
32.723877
 30
0.0
 10
61.418262
 20
32.756791
 30
0.0
 10
61.276809
 20
32.848938
 30
0.0
 10
61.184709
 20
32.990429
 30
0.0
 10
61.151830
 20
33.171377
 30
0.0
 10
61.184709
 20
33.337129
 30
0.0
 10
61.276809
 20
33.470779
 30
0.0
 10
61.418262
 20
33.560007
 30
0.0
 10
61.599209
 20
33.592487
 30
0.0
 10
61.764961
 20
33.560007
 30
0.0
 10
61.898650
 20
33.470779
 30
0.0
 10
61.987924
 20
33.337129
 30
0.0
 10
62.020415
 20
33.171377
 30
0.0
  0
LWPOLYLINE
  5
115
100
AcDbEntity
  8
Inner
 62
7
100
AcDbPolyline
 90
17
 70
0
 10
60.388500
 20
31.802705
 30
0.0
 10
60.365040
 20
31.675581
 30
0.0
 10
60.299628
 20
31.575627
 30
0.0
 10
60.199679
 20
31.510233
 30
0.0
 10
60.072619
 20
31.486791
 30
0.0
 10
59.945496
 20
31.510233
 30
0.0
 10
59.845540
 20
31.575627
 30
0.0
 10
59.780149
 20
31.675581
 30
0.0
 10
59.756724
 20
31.802705
 30
0.0
 10
59.780149
 20
31.929747
 30
0.0
 10
59.845540
 20
32.029660
 30
0.0
 10
59.945496
 20
32.095038
 30
0.0
 10
60.072619
 20
32.118477
 30
0.0
 10
60.199679
 20
32.095038
 30
0.0
 10
60.299628
 20
32.029660
 30
0.0
 10
60.365040
 20
31.929747
 30
0.0
 10
60.388500
 20
31.802705
 30
0.0
  0
LWPOLYLINE
  5
116
100
AcDbEntity
  8
Inner
 62
7
100
AcDbPolyline
 90
81
 70
0
 10
48.596303
 20
22.247895
 30
0.0
 10
48.534214
 20
20.458851
 30
0.0
 10
48.573288
 20
18.812929
 30
0.0
 10
48.696270
 20
17.147263
 30
0.0
 10
48.885898
 20
15.298984
 30
0.0
 10
49.093603
 20
14.609657
 30
0.0
 10
49.501182
 20
14.305298
 30
0.0
 10
50.022277
 20
14.425383
 30
0.0
 10
50.570518
 20
15.009389
 30
0.0
 10
50.952132
 20
15.633736
 30
0.0
 10
51.274560
 20
16.174160
 30
0.0
 10
51.606891
 20
16.704695
 30
0.0
 10
52.018212
 20
17.299376
 30
0.0
 10
52.384650
 20
17.829947
 30
0.0
 10
52.797975
 20
18.365430
 30
0.0
 10
53.354411
 20
18.802217
 30
0.0
 10
54.150189
 20
19.036700
 30
0.0
 10
56.081958
 20
19.328260
 30
0.0
 10
57.838520
 20
19.770355
 30
0.0
 10
59.461820
 20
20.306244
 30
0.0
 10
60.993796
 20
20.879188
 30
0.0
 10
61.489802
 20
21.187206
 30
0.0
 10
61.743985
 20
21.626032
 30
0.0
 10
61.800751
 20
22.178383
 30
0.0
 10
61.704502
 20
22.826980
 30
0.0
 10
61.485702
 20
23.445931
 30
0.0
 10
61.197804
 20
23.948933
 30
0.0
 10
60.860552
 20
24.437136
 30
0.0
 10
60.493698
 20
25.011697
 30
0.0
 10
60.351412
 20
25.549629
 30
0.0
 10
60.460816
 20
26.038206
 30
0.0
 10
60.738011
 20
26.447824
 30
0.0
 10
61.099100
 20
26.748881
 30
0.0
 10
62.602752
 20
27.947345
 30
0.0
 10
63.731295
 20
29.308677
 30
0.0
 10
64.682162
 20
30.798311
 30
0.0
 10
65.652791
 20
32.381684
 30
0.0
 10
65.914796
 20
33.172575
 30
0.0
 10
65.537659
 20
33.477341
 30
0.0
 10
64.908815
 20
33.451430
 30
0.0
 10
64.415705
 20
33.250292
 30
0.0
 10
63.845669
 20
32.741986
 30
0.0
 10
63.389133
 20
32.223797
 30
0.0
 10
62.972082
 20
31.666106
 30
0.0
 10
62.520513
 20
31.039293
 30
0.0
 10
62.147475
 20
30.625957
 30
0.0
 10
61.707822
 20
30.259504
 30
0.0
 10
61.213887
 20
29.888117
 30
0.0
 10
60.677989
 20
29.459977
 30
0.0
 10
59.424863
 20
29.019933
 30
0.0
 10
58.351847
 20
28.644038
 30
0.0
 10
57.283759
 20
28.268142
 30
0.0
 10
56.045418
 20
27.828098
 30
0.0
 10
55.894044
 20
27.866326
 30
0.0
 10
55.782157
 20
28.035364
 30
0.0
 10
55.749243
 20
28.238943
 30
0.0
 10
55.834802
 20
28.380795
 30
0.0
 10
56.060566
 20
28.441243
 30
0.0
 10
56.278949
 20
28.469624
 30
0.0
 10
56.452936
 20
28.532560
 30
0.0
 10
56.545508
 20
28.696672
 30
0.0
 10
56.600626
 20
29.211177
 30
0.0
 10
56.650795
 20
29.654142
 30
0.0
 10
56.700963
 20
30.092179
 30
0.0
 10
56.756081
 20
30.591900
 30
0.0
 10
56.689456
 20
30.808184
 30
0.0
 10
56.499450
 20
30.960337
 30
0.0
 10
56.260093
 20
31.013793
 30
0.0
 10
56.045410
 20
30.933989
 30
0.0
 10
55.165265
 20
30.100763
 30
0.0
 10
54.413446
 20
29.381043
 30
0.0
 10
53.661635
 20
28.661324
 30
0.0
 10
52.781510
 20
27.828098
 30
0.0
 10
52.441803
 20
27.480158
 30
0.0
 10
52.176112
 20
27.156881
 30
0.0
 10
51.930169
 20
26.813859
 30
0.0
 10
51.649701
 20
26.406687
 30
0.0
 10
50.835779
 20
25.290522
 30
0.0
 10
50.132897
 20
24.327330
 30
0.0
 10
49.425066
 20
23.364119
 30
0.0
 10
48.596303
 20
22.247895
 30
0.0
  0
ENDSEC
  0
SECTION
  2
OBJECTS
  0
DICTIONARY
  5
C
330
0
100
AcDbDictionary
  3
ACAD_GROUP
350
D
  3
ACAD_MLINESTYLE
350
17
  0
DICTIONARY
  5
D
330
C
100
AcDbDictionary
  0
DICTIONARY
  5
1A
330
C
100
AcDbDictionary
  0
DICTIONARY
  5
17
330
C
100
AcDbDictionary
  3
STANDARD
350
18
  0
DICTIONARY
  5
19
330
C
100
AcDbDictionary
  0
ENDSEC
  0
EOF
