999
DXF created by Inkscape
  0
SECTION
  2
HEADER
  9
$ACADVER
  1
AC1014
  9
$HANDSEED
  5
FFFF
  9
$MEASUREMENT
 70
     1
  0
ENDSEC
  0
SECTION
  2
TABLES
  0
TABLE
  2
VPORT
  5
8
330
0
100
AcDbSymbolTable
 70
     4
  0
VPORT
  5
2E
330
8
100
AcDbSymbolTableRecord
100
AcDbViewportTableRecord
  2
*ACTIVE
 70
     0
 10
0.0
 20
0.0
 11
1.0
 21
1.0
 12
210.0
 22
148.5
 13
0.0
 23
0.0
 14
10.0
 24
10.0
 15
10.0
 25
10.0
 16
0.0
 26
0.0
 36
1.0
 17
0.0
 27
0.0
 37
0.0
 40
341.0
 41
1.24
 42
50.0
 43
0.0
 44
0.0
 50
0.0
 51
0.0
 71
     0
 72
   100
 73
     1
 74
     3
 75
     0
 76
     0
 77
     0
 78
     0
  0
ENDTAB
  0
TABLE
  2
LTYPE
  5
5
330
0
100
AcDbSymbolTable
 70
     1
  0
LTYPE
  5
14
330
5
100
AcDbSymbolTableRecord
100
AcDbLinetypeTableRecord
  2
BYBLOCK
 70
     0
  3

 72
    65
 73
     0
 40
0.0
  0
LTYPE
  5
15
330
5
100
AcDbSymbolTableRecord
100
AcDbLinetypeTableRecord
  2
BYLAYER
 70
     0
  3

 72
    65
 73
     0
 40
0.0
  0
LTYPE
  5
16
330
5
100
AcDbSymbolTableRecord
100
AcDbLinetypeTableRecord
  2
CONTINUOUS
 70
     0
  3
Solid line
 72
    65
 73
     0
 40
0.0
  0
ENDTAB
  0
TABLE
  2
LAYER
  5
2
100
AcDbSymbolTable
 70
2
  0
LAYER
  5
50
100
AcDbSymbolTableRecord
100
AcDbLayerTableRecord
  2
0
 70
0
  6
CONTINUOUS
  0
LAYER
  5
51
100
AcDbSymbolTableRecord
100
AcDbLayerTableRecord
  2
Dove
 70
0
  6
CONTINUOUS
  0
ENDTAB
  0
TABLE
  2
STYLE
  5
3
330
0
100
AcDbSymbolTable
 70
     1
  0
STYLE
  5
11
330
3
100
AcDbSymbolTableRecord
100
AcDbTextStyleTableRecord
  2
STANDARD
 70
     0
 40
0.0
 41
1.0
 50
0.0
 71
     0
 42
2.5
  3
txt
  4

  0
ENDTAB
  0
TABLE
  2
VIEW
  5
6
330
0
100
AcDbSymbolTable
 70
     0
  0
ENDTAB
  0
TABLE
  2
UCS
  5
7
330
0
100
AcDbSymbolTable
 70
     0
  0
ENDTAB
  0
TABLE
  2
APPID
  5
9
330
0
100
AcDbSymbolTable
 70
     2
  0
APPID
  5
12
330
9
100
AcDbSymbolTableRecord
100
AcDbRegAppTableRecord
  2
ACAD
 70
     0
  0
ENDTAB
  0
TABLE
  2
DIMSTYLE
  5
A
330
0
100
AcDbSymbolTable
 70
     1
  0
DIMSTYLE
105
27
330
A
100
AcDbSymbolTableRecord
100
AcDbDimStyleTableRecord
  2
ISO-25
 70
     0
  3

  4

  5

  6

  7

 40
1.0
 41
2.5
 42
0.625
 43
3.75
 44
1.25
 45
0.0
 46
0.0
 47
0.0
 48
0.0
140
2.5
141
2.5
142
0.0
143
0.03937007874016
144
1.0
145
0.0
146
1.0
147
0.625
 71
     0
 72
     0
 73
     0
 74
     0
 75
     0
 76
     0
 77
     1
 78
     8
170
     0
171
     3
172
     1
173
     0
174
     0
175
     0
176
     0
177
     0
178
     0
270
     2
271
     2
272
     2
273
     2
274
     3
340
11
275
     0
280
     0
281
     0
282
     0
283
     0
284
     8
285
     0
286
     0
287
     3
288
     0
  0
ENDTAB
  0
TABLE
  2
BLOCK_RECORD
  5
1
330
0
100
AcDbSymbolTable
 70
     1
  0
BLOCK_RECORD
  5
1F
330
1
100
AcDbSymbolTableRecord
100
AcDbBlockTableRecord
  2
*MODEL_SPACE
  0
BLOCK_RECORD
  5
1B
330
1
100
AcDbSymbolTableRecord
100
AcDbBlockTableRecord
  2
*PAPER_SPACE
  0
ENDTAB
  0
ENDSEC
  0
SECTION
  2
BLOCKS
  0
BLOCK
  5
20
330
1F
100
AcDbEntity
  8
0
100
AcDbBlockBegin
  2
*MODEL_SPACE
 70
     0
 10
0.0
 20
0.0
 30
0.0
  3
*MODEL_SPACE
  1

  0
ENDBLK
  5
21
330
1F
100
AcDbEntity
  8
0
100
AcDbBlockEnd
  0
BLOCK
  5
1C
330
1B
100
AcDbEntity
 67
     1
  8
0
100
AcDbBlockBegin
  2
*PAPER_SPACE
  1

  0
ENDBLK
  5
1D
330
1B
100
AcDbEntity
 67
     1
  8
0
100
AcDbBlockEnd
  0
ENDSEC
  0
SECTION
  2
ENTITIES
  0
LWPOLYLINE
  5
100
100
AcDbEntity
  8
Dove
 62
1
100
AcDbPolyline
 90
101
 70
0
 10
87.488889
 20
69.708889
 30
0.0
 10
78.276978
 20
71.724133
 30
0.0
 10
56.761944
 20
80.115833
 30
0.0
 10
32.124825
 20
98.402953
 30
0.0
 10
13.546667
 20
130.104444
 30
0.0
 10
19.808472
 20
127.886356
 30
0.0
 10
36.759444
 20
123.789722
 30
0.0
 10
61.647917
 20
121.651008
 30
0.0
 10
91.722222
 20
125.306667
 30
0.0
 10
92.255797
 20
126.925036
 30
0.0
 10
91.757500
 20
132.326944
 30
0.0
 10
87.078783
 20
142.332606
 30
0.0
 10
75.071111
 20
157.762222
 30
0.0
 10
85.566250
 20
156.329064
 30
0.0
 10
108.867222
 20
150.530278
 30
0.0
 10
132.697361
 20
138.116911
 30
0.0
 10
144.780000
 20
116.840000
 30
0.0
 10
149.899686
 20
122.634375
 30
0.0
 10
163.724167
 20
133.350000
 30
0.0
 10
183.951561
 20
138.985625
 30
0.0
 10
208.280000
 20
129.540000
 30
0.0
 10
208.919408
 20
130.227917
 30
0.0
 10
210.008611
 20
132.503333
 30
0.0
 10
210.304061
 20
136.683750
 30
0.0
 10
208.562222
 20
143.086667
 30
0.0
 10
205.144686
 20
142.407569
 30
0.0
 10
197.096944
 20
142.310556
 30
0.0
 10
187.726283
 20
145.706042
 30
0.0
 10
180.340000
 20
155.504444
 30
0.0
 10
182.778575
 20
155.989514
 30
0.0
 10
188.630278
 20
156.633333
 30
0.0
 10
195.699061
 20
156.218819
 30
0.0
 10
201.788889
 20
153.528889
 30
0.0
 10
201.537533
 20
154.278542
 30
0.0
 10
200.624722
 20
156.351111
 30
0.0
 10
198.812325
 20
159.482014
 30
0.0
 10
195.862222
 20
163.406667
 30
0.0
 10
193.882256
 20
161.691286
 30
0.0
 10
188.065833
 20
158.996944
 30
0.0
 10
178.598158
 20
159.001347
 30
0.0
 10
165.664444
 20
165.382222
 30
0.0
 10
166.731597
 20
167.075556
 30
0.0
 10
170.180000
 20
170.462222
 30
0.0
 10
176.380069
 20
173.002222
 30
0.0
 10
185.702222
 20
172.155556
 30
0.0
 10
180.714825
 20
172.914028
 30
0.0
 10
169.298056
 20
175.471667
 30
0.0
 10
156.770033
 20
180.251806
 30
0.0
 10
148.448889
 20
187.677778
 30
0.0
 10
150.988889
 20
189.917917
 30
0.0
 10
158.608889
 20
192.687222
 30
0.0
 10
171.308889
 20
190.059028
 30
0.0
 10
189.088889
 20
176.106667
 30
0.0
 10
189.053611
 20
178.210104
 30
0.0
 10
189.230000
 20
183.197500
 30
0.0
 10
190.041389
 20
189.084479
 30
0.0
 10
191.911111
 20
193.886667
 30
0.0
 10
195.099339
 20
192.815104
 30
0.0
 10
201.118611
 20
188.912500
 30
0.0
 10
204.650797
 20
181.146979
 30
0.0
 10
200.377778
 20
168.486667
 30
0.0
 10
201.070103
 20
167.622361
 30
0.0
 10
202.741389
 20
165.382222
 30
0.0
 10
204.783089
 20
162.295417
 30
0.0
 10
206.586667
 20
158.891111
 30
0.0
 10
206.824792
 20
161.188578
 30
0.0
 10
207.856667
 20
166.475833
 30
0.0
 10
210.158542
 20
172.345172
 30
0.0
 10
214.206667
 20
176.388889
 30
0.0
 10
216.768714
 20
174.699964
 30
0.0
 10
220.944722
 20
169.439167
 30
0.0
 10
221.469478
 20
160.315450
 30
0.0
 10
213.077778
 20
147.037778
 30
0.0
 10
214.590311
 20
141.565311
 30
0.0
 10
216.923056
 20
128.869722
 30
0.0
 10
216.768714
 20
114.533717
 30
0.0
 10
210.820000
 20
104.140000
 30
0.0
 10
211.252153
 20
106.247847
 30
0.0
 10
211.948889
 20
111.054444
 30
0.0
 10
212.010625
 20
116.284375
 30
0.0
 10
210.537778
 20
119.662222
 30
0.0
 10
206.749825
 20
119.230069
 30
0.0
 10
197.802500
 20
115.993333
 30
0.0
 10
187.320589
 20
107.041597
 30
0.0
 10
178.928889
 20
89.464444
 30
0.0
 10
177.204686
 20
79.763056
 30
0.0
 10
167.251944
 20
59.055000
 30
0.0
 10
141.900450
 20
39.934444
 30
0.0
 10
93.980000
 20
34.995556
 30
0.0
 10
90.672708
 20
32.027814
 30
0.0
 10
83.396667
 20
24.800278
 30
0.0
 10
76.120625
 20
15.826494
 30
0.0
 10
72.813333
 20
7.620000
 30
0.0
 10
63.500000
 20
11.218333
 30
0.0
 10
54.186667
 20
14.816667
 30
0.0
 10
44.873333
 20
18.415000
 30
0.0
 10
35.560000
 20
22.013333
 30
0.0
 10
44.110450
 20
27.005139
 30
0.0
 10
62.688611
 20
39.299444
 30
0.0
 10
80.684686
 20
54.874583
 30
0.0
 10
87.488889
 20
69.708889
 30
0.0
  0
ENDSEC
  0
SECTION
  2
OBJECTS
  0
DICTIONARY
  5
C
330
0
100
AcDbDictionary
  3
ACAD_GROUP
350
D
  3
ACAD_MLINESTYLE
350
17
  0
DICTIONARY
  5
D
330
C
100
AcDbDictionary
  0
DICTIONARY
  5
1A
330
C
100
AcDbDictionary
  0
DICTIONARY
  5
17
330
C
100
AcDbDictionary
  3
STANDARD
350
18
  0
DICTIONARY
  5
19
330
C
100
AcDbDictionary
  0
ENDSEC
  0
EOF
