999
DXF created by Inkscape
  0
SECTION
  2
HEADER
  9
$ACADVER
  1
AC1014
  9
$HANDSEED
  5
FFFF
  9
$MEASUREMENT
 70
     1
  0
ENDSEC
  0
SECTION
  2
TABLES
  0
TABLE
  2
VPORT
  5
8
330
0
100
AcDbSymbolTable
 70
     4
  0
VPORT
  5
2E
330
8
100
AcDbSymbolTableRecord
100
AcDbViewportTableRecord
  2
*ACTIVE
 70
     0
 10
0.0
 20
0.0
 11
1.0
 21
1.0
 12
210.0
 22
148.5
 13
0.0
 23
0.0
 14
10.0
 24
10.0
 15
10.0
 25
10.0
 16
0.0
 26
0.0
 36
1.0
 17
0.0
 27
0.0
 37
0.0
 40
341.0
 41
1.24
 42
50.0
 43
0.0
 44
0.0
 50
0.0
 51
0.0
 71
     0
 72
   100
 73
     1
 74
     3
 75
     0
 76
     0
 77
     0
 78
     0
  0
ENDTAB
  0
TABLE
  2
LTYPE
  5
5
330
0
100
AcDbSymbolTable
 70
     1
  0
LTYPE
  5
14
330
5
100
AcDbSymbolTableRecord
100
AcDbLinetypeTableRecord
  2
BYBLOCK
 70
     0
  3

 72
    65
 73
     0
 40
0.0
  0
LTYPE
  5
15
330
5
100
AcDbSymbolTableRecord
100
AcDbLinetypeTableRecord
  2
BYLAYER
 70
     0
  3

 72
    65
 73
     0
 40
0.0
  0
LTYPE
  5
16
330
5
100
AcDbSymbolTableRecord
100
AcDbLinetypeTableRecord
  2
CONTINUOUS
 70
     0
  3
Solid line
 72
    65
 73
     0
 40
0.0
  0
ENDTAB
  0
TABLE
  2
LAYER
  5
2
100
AcDbSymbolTable
 70
2
  0
LAYER
  5
50
100
AcDbSymbolTableRecord
100
AcDbLayerTableRecord
  2
0
 70
0
  6
CONTINUOUS
  0
LAYER
  5
51
100
AcDbSymbolTableRecord
100
AcDbLayerTableRecord
  2
Text
 70
0
  6
CONTINUOUS
  0
ENDTAB
  0
TABLE
  2
STYLE
  5
3
330
0
100
AcDbSymbolTable
 70
     1
  0
STYLE
  5
11
330
3
100
AcDbSymbolTableRecord
100
AcDbTextStyleTableRecord
  2
STANDARD
 70
     0
 40
0.0
 41
1.0
 50
0.0
 71
     0
 42
2.5
  3
txt
  4

  0
ENDTAB
  0
TABLE
  2
VIEW
  5
6
330
0
100
AcDbSymbolTable
 70
     0
  0
ENDTAB
  0
TABLE
  2
UCS
  5
7
330
0
100
AcDbSymbolTable
 70
     0
  0
ENDTAB
  0
TABLE
  2
APPID
  5
9
330
0
100
AcDbSymbolTable
 70
     2
  0
APPID
  5
12
330
9
100
AcDbSymbolTableRecord
100
AcDbRegAppTableRecord
  2
ACAD
 70
     0
  0
ENDTAB
  0
TABLE
  2
DIMSTYLE
  5
A
330
0
100
AcDbSymbolTable
 70
     1
  0
DIMSTYLE
105
27
330
A
100
AcDbSymbolTableRecord
100
AcDbDimStyleTableRecord
  2
ISO-25
 70
     0
  3

  4

  5

  6

  7

 40
1.0
 41
2.5
 42
0.625
 43
3.75
 44
1.25
 45
0.0
 46
0.0
 47
0.0
 48
0.0
140
2.5
141
2.5
142
0.0
143
0.03937007874016
144
1.0
145
0.0
146
1.0
147
0.625
 71
     0
 72
     0
 73
     0
 74
     0
 75
     0
 76
     0
 77
     1
 78
     8
170
     0
171
     3
172
     1
173
     0
174
     0
175
     0
176
     0
177
     0
178
     0
270
     2
271
     2
272
     2
273
     2
274
     3
340
11
275
     0
280
     0
281
     0
282
     0
283
     0
284
     8
285
     0
286
     0
287
     3
288
     0
  0
ENDTAB
  0
TABLE
  2
BLOCK_RECORD
  5
1
330
0
100
AcDbSymbolTable
 70
     1
  0
BLOCK_RECORD
  5
1F
330
1
100
AcDbSymbolTableRecord
100
AcDbBlockTableRecord
  2
*MODEL_SPACE
  0
BLOCK_RECORD
  5
1B
330
1
100
AcDbSymbolTableRecord
100
AcDbBlockTableRecord
  2
*PAPER_SPACE
  0
ENDTAB
  0
ENDSEC
  0
SECTION
  2
BLOCKS
  0
BLOCK
  5
20
330
1F
100
AcDbEntity
  8
0
100
AcDbBlockBegin
  2
*MODEL_SPACE
 70
     0
 10
0.0
 20
0.0
 30
0.0
  3
*MODEL_SPACE
  1

  0
ENDBLK
  5
21
330
1F
100
AcDbEntity
  8
0
100
AcDbBlockEnd
  0
BLOCK
  5
1C
330
1B
100
AcDbEntity
 67
     1
  8
0
100
AcDbBlockBegin
  2
*PAPER_SPACE
  1

  0
ENDBLK
  5
1D
330
1B
100
AcDbEntity
 67
     1
  8
0
100
AcDbBlockEnd
  0
ENDSEC
  0
SECTION
  2
ENTITIES
  0
LWPOLYLINE
  5
100
100
AcDbEntity
  8
Text
 62
7
100
AcDbPolyline
 90
59
 70
0
 10
18.493404
 20
21.563549
 30
0.0
 10
18.365241
 20
21.567669
 30
0.0
 10
18.179212
 20
21.580087
 30
0.0
 10
17.984905
 20
21.596625
 30
0.0
 10
17.831946
 20
21.602128
 30
0.0
 10
17.616972
 20
21.602128
 30
0.0
 10
17.401997
 20
21.602128
 30
0.0
 10
17.397849
 20
21.551137
 30
0.0
 10
17.396437
 20
21.210765
 30
0.0
 10
17.257251
 20
17.800121
 30
0.0
 10
16.839712
 20
15.461591
 30
0.0
 10
16.265065
 20
14.465273
 30
0.0
 10
15.356942
 20
14.133154
 30
0.0
 10
14.337194
 20
14.309543
 30
0.0
 10
13.328469
 20
14.838718
 30
0.0
 10
12.476841
 20
15.695858
 30
0.0
 10
12.192965
 20
16.690801
 30
0.0
 10
12.387270
 20
17.335721
 30
0.0
 10
12.970180
 20
17.550696
 30
0.0
 10
13.553090
 20
17.338476
 30
0.0
 10
13.747394
 20
16.701825
 30
0.0
 10
13.886575
 20
16.364205
 30
0.0
 10
14.304120
 20
16.001781
 30
0.0
 10
14.848445
 20
15.724797
 30
0.0
 10
15.356942
 20
15.632468
 30
0.0
 10
15.527816
 20
15.815746
 30
0.0
 10
15.643575
 20
16.365585
 30
0.0
 10
15.684918
 20
16.882346
 30
0.0
 10
15.764840
 20
18.079862
 30
0.0
 10
15.826850
 20
19.490971
 30
0.0
 10
15.847509
 20
21.210765
 30
0.0
 10
15.843388
 20
21.338920
 30
0.0
 10
15.830971
 20
21.569058
 30
0.0
 10
15.767581
 20
21.566235
 30
0.0
 10
15.704191
 20
21.563413
 30
0.0
 10
15.420312
 20
21.559265
 30
0.0
 10
15.053756
 20
21.568917
 30
0.0
 10
14.645854
 20
21.585455
 30
0.0
 10
14.403321
 20
21.590958
 30
0.0
 10
14.102910
 20
21.640564
 30
0.0
 10
13.852107
 20
21.789397
 30
0.0
 10
13.670207
 20
22.036059
 30
0.0
 10
13.609571
 20
22.346123
 30
0.0
 10
13.856239
 20
22.908357
 30
0.0
 10
14.596248
 20
23.095775
 30
0.0
 10
14.829135
 20
23.091627
 30
0.0
 10
15.152974
 20
23.079237
 30
0.0
 10
15.475433
 20
23.070968
 30
0.0
 10
15.704191
 20
23.068146
 30
0.0
 10
16.136891
 20
23.077770
 30
0.0
 10
16.740474
 20
23.106717
 30
0.0
 10
17.348186
 20
23.135648
 30
0.0
 10
17.782272
 20
23.145300
 30
0.0
 10
18.890209
 20
22.939966
 30
0.0
 10
19.259530
 20
22.323991
 30
0.0
 10
19.209916
 20
22.052510
 30
0.0
 10
19.061091
 20
21.811360
 30
0.0
 10
18.806149
 20
21.625319
 30
0.0
 10
18.493339
 20
21.563312
 30
0.0
  0
LWPOLYLINE
  5
101
100
AcDbEntity
  8
Text
 62
7
100
AcDbPolyline
 90
33
 70
0
 10
22.754299
 20
14.541078
 30
0.0
 10
21.556782
 20
14.698163
 30
0.0
 10
20.599047
 20
15.169451
 30
0.0
 10
19.904515
 20
16.005921
 30
0.0
 10
19.673006
 20
17.126267
 30
0.0
 10
19.856283
 20
18.413350
 30
0.0
 10
20.406123
 20
19.485467
 30
0.0
 10
21.363858
 20
20.287484
 30
0.0
 10
22.605469
 20
20.554827
 30
0.0
 10
23.483276
 20
20.477651
 30
0.0
 10
24.198484
 20
20.246147
 30
0.0
 10
24.822731
 20
19.725243
 30
0.0
 10
25.030817
 20
18.978351
 30
0.0
 10
24.861314
 20
18.406461
 30
0.0
 10
24.352823
 20
17.903479
 30
0.0
 10
23.888421
 20
17.638893
 30
0.0
 10
23.112589
 20
17.275094
 30
0.0
 10
22.183793
 20
16.864439
 30
0.0
 10
21.254994
 20
16.453785
 30
0.0
 10
21.547136
 20
16.202980
 30
0.0
 10
21.894402
 20
16.023837
 30
0.0
 10
22.296789
 20
15.916347
 30
0.0
 10
22.754299
 20
15.880522
 30
0.0
 10
23.436425
 20
15.956312
 30
0.0
 10
24.005557
 20
16.183688
 30
0.0
 10
24.417587
 20
16.386258
 30
0.0
 10
24.738674
 20
16.453785
 30
0.0
 10
25.168617
 20
16.314602
 30
0.0
 10
25.311938
 20
15.897057
 30
0.0
 10
25.081803
 20
15.326550
 30
0.0
 10
24.391408
 20
14.871797
 30
0.0
 10
23.596278
 20
14.623741
 30
0.0
 10
22.754299
 20
14.541078
 30
0.0
  0
LWPOLYLINE
  5
102
100
AcDbEntity
  8
Text
 62
7
100
AcDbPolyline
 90
11
 70
0
 10
22.605469
 20
19.220884
 30
0.0
 10
22.130046
 20
19.135444
 30
0.0
 10
21.729040
 20
18.879133
 30
0.0
 10
21.401064
 20
18.451936
 30
0.0
 10
21.144749
 20
17.853870
 30
0.0
 10
21.766242
 20
18.122585
 30
0.0
 10
22.384983
 20
18.388549
 30
0.0
 10
23.053331
 20
18.712385
 30
0.0
 10
23.570097
 20
19.011424
 30
0.0
 10
23.144280
 20
19.168515
 30
0.0
 10
22.605469
 20
19.220884
 30
0.0
  0
LWPOLYLINE
  5
103
100
AcDbEntity
  8
Text
 62
7
100
AcDbPolyline
 90
41
 70
0
 10
31.391843
 20
18.079868
 30
0.0
 10
31.207179
 20
16.748682
 30
0.0
 10
31.116233
 20
15.345840
 30
0.0
 10
30.939842
 20
13.809332
 30
0.0
 10
30.520922
 20
12.760651
 30
0.0
 10
29.520464
 20
11.954483
 30
0.0
 10
27.963283
 20
11.685779
 30
0.0
 10
26.355111
 20
11.897982
 30
0.0
 10
25.819055
 20
12.534647
 30
0.0
 10
25.867287
 20
12.808883
 30
0.0
 10
26.011982
 20
13.025234
 30
0.0
 10
26.235223
 20
13.165781
 30
0.0
 10
26.519099
 20
13.212630
 30
0.0
 10
26.820890
 20
13.189205
 30
0.0
 10
27.230166
 20
13.118932
 30
0.0
 10
27.667004
 20
13.048659
 30
0.0
 10
28.051478
 20
13.025234
 30
0.0
 10
28.765300
 20
13.150626
 30
0.0
 10
29.264150
 20
13.526828
 30
0.0
 10
29.561804
 20
14.162110
 30
0.0
 10
29.705122
 20
15.086774
 30
0.0
 10
29.406085
 20
14.835969
 30
0.0
 10
29.071226
 20
14.656817
 30
0.0
 10
28.701910
 20
14.549347
 30
0.0
 10
28.299526
 20
14.513505
 30
0.0
 10
27.304579
 20
14.691277
 30
0.0
 10
26.513587
 20
15.224578
 30
0.0
 10
26.000958
 20
16.040375
 30
0.0
 10
25.830081
 20
17.054611
 30
0.0
 10
26.058834
 20
18.410599
 30
0.0
 10
26.745097
 20
19.479958
 30
0.0
 10
27.859928
 20
20.199292
 30
0.0
 10
29.308247
 20
20.439074
 30
0.0
 10
29.790559
 20
20.407375
 30
0.0
 10
30.201218
 20
20.312294
 30
0.0
 10
30.540212
 20
20.152438
 30
0.0
 10
30.807553
 20
19.926442
 30
0.0
 10
31.332582
 20
19.678392
 30
0.0
 10
31.507597
 20
19.099622
 30
0.0
 10
31.478655
 20
18.660024
 30
0.0
 10
31.391843
 20
18.079871
 30
0.0
  0
LWPOLYLINE
  5
104
100
AcDbEntity
  8
Text
 62
7
100
AcDbPolyline
 90
19
 70
0
 10
29.253126
 20
19.182301
 30
0.0
 10
28.424923
 20
19.029337
 30
0.0
 10
27.803430
 20
18.570455
 30
0.0
 10
27.456164
 20
17.931041
 30
0.0
 10
27.340410
 20
17.126270
 30
0.0
 10
27.402420
 20
16.551626
 30
0.0
 10
27.588456
 20
16.139593
 30
0.0
 10
27.898513
 20
15.891548
 30
0.0
 10
28.332597
 20
15.808865
 30
0.0
 10
28.785970
 20
15.939777
 30
0.0
 10
29.242103
 20
16.332520
 30
0.0
 10
29.579720
 20
16.825856
 30
0.0
 10
29.732684
 20
17.313683
 30
0.0
 10
29.845680
 20
17.990296
 30
0.0
 10
29.975220
 20
18.961815
 30
0.0
 10
29.789182
 20
19.058276
 30
0.0
 10
29.605904
 20
19.127181
 30
0.0
 10
29.426758
 20
19.168518
 30
0.0
 10
29.253126
 20
19.182290
 30
0.0
  0
LWPOLYLINE
  5
105
100
AcDbEntity
  8
Text
 62
7
100
AcDbPolyline
 90
55
 70
0
 10
1.582121
 20
3.125387
 30
0.0
 10
1.579299
 20
1.965086
 30
0.0
 10
1.576476
 20
0.804786
 30
0.0
 10
1.542023
 20
0.571896
 30
0.0
 10
1.438670
 20
0.358311
 30
0.0
 10
1.201649
 20
0.147462
 30
0.0
 10
0.876433
 20
0.077189
 30
0.0
 10
0.487824
 20
0.165384
 30
0.0
 10
0.192924
 20
0.429967
 30
0.0
 10
0.048232
 20
0.715209
 30
0.0
 10
0.000000
 20
1.019755
 30
0.0
 10
0.019276
 20
2.550754
 30
0.0
 10
0.077160
 20
4.696348
 30
0.0
 10
0.135041
 20
6.841971
 30
0.0
 10
0.154316
 20
8.372970
 30
0.0
 10
0.209437
 20
8.659595
 30
0.0
 10
0.374802
 20
8.902137
 30
0.0
 10
0.622848
 20
9.067491
 30
0.0
 10
0.926019
 20
9.122609
 30
0.0
 10
1.227808
 20
9.067491
 30
0.0
 10
1.471721
 20
8.902137
 30
0.0
 10
1.637084
 20
8.659595
 30
0.0
 10
1.692207
 20
8.372970
 30
0.0
 10
1.679818
 20
7.790040
 30
0.0
 10
1.642612
 20
7.033515
 30
0.0
 10
1.594378
 20
6.208072
 30
0.0
 10
1.570953
 20
5.694060
 30
0.0
 10
2.479080
 20
6.642158
 30
0.0
 10
4.431761
 20
8.758824
 30
0.0
 10
4.704611
 20
8.965524
 30
0.0
 10
5.016051
 20
9.034414
 30
0.0
 10
5.309568
 20
8.979296
 30
0.0
 10
5.561753
 20
8.813942
 30
0.0
 10
5.739514
 20
8.570018
 30
0.0
 10
5.798775
 20
8.279272
 30
0.0
 10
5.470799
 20
7.664649
 30
0.0
 10
4.486885
 20
6.504349
 30
0.0
 10
3.490558
 20
5.458405
 30
0.0
 10
2.441874
 20
4.426262
 30
0.0
 10
3.044074
 20
3.858515
 30
0.0
 10
3.649037
 20
3.290769
 30
0.0
 10
4.318759
 20
2.698215
 30
0.0
 10
4.916830
 20
2.221401
 30
0.0
 10
5.208970
 20
2.042246
 30
0.0
 10
5.523168
 20
1.912734
 30
0.0
 10
5.965515
 20
1.638499
 30
0.0
 10
6.112967
 20
1.190640
 30
0.0
 10
6.075756
 20
0.957751
 30
0.0
 10
5.964140
 20
0.733130
 30
0.0
 10
5.720224
 20
0.509892
 30
0.0
 10
5.396388
 20
0.435470
 30
0.0
 10
4.491014
 20
0.693167
 30
0.0
 10
3.351380
 20
1.466230
 30
0.0
 10
2.721616
 20
2.035360
 30
0.0
 10
1.581980
 20
3.125387
 30
0.0
  0
LWPOLYLINE
  5
106
100
AcDbEntity
  8
Text
 62
7
100
AcDbPolyline
 90
17
 70
0
 10
9.139281
 20
0.358311
 30
0.0
 10
8.191190
 20
0.533317
 30
0.0
 10
7.386416
 20
1.058335
 30
0.0
 10
6.773189
 20
1.952697
 30
0.0
 10
6.543057
 20
3.103345
 30
0.0
 10
6.690512
 20
4.255376
 30
0.0
 10
7.210027
 20
5.275130
 30
0.0
 10
8.211860
 20
6.118494
 30
0.0
 10
9.541668
 20
6.399616
 30
0.0
 10
10.531097
 20
6.179116
 30
0.0
 10
11.294533
 20
5.517672
 30
0.0
 10
11.732745
 20
4.628841
 30
0.0
 10
11.878821
 20
3.549821
 30
0.0
 10
11.707941
 20
2.364713
 30
0.0
 10
11.195315
 20
1.367029
 30
0.0
 10
10.298210
 20
0.610476
 30
0.0
 10
9.139281
 20
0.358311
 30
0.0
  0
LWPOLYLINE
  5
107
100
AcDbEntity
  8
Text
 62
7
100
AcDbPolyline
 90
15
 70
0
 10
9.470012
 20
4.944422
 30
0.0
 10
8.863671
 20
4.792812
 30
0.0
 10
8.400652
 20
4.327061
 30
0.0
 10
8.152604
 20
3.759286
 30
0.0
 10
8.069924
 20
3.103345
 30
0.0
 10
8.163628
 20
2.519060
 30
0.0
 10
8.444749
 20
2.089123
 30
0.0
 10
8.767208
 20
1.878275
 30
0.0
 10
9.139281
 20
1.808002
 30
0.0
 10
9.587140
 20
1.889310
 30
0.0
 10
9.971617
 20
2.133206
 30
0.0
 10
10.280294
 20
2.581065
 30
0.0
 10
10.401565
 20
3.163995
 30
0.0
 10
10.204501
 20
4.496535
 30
0.0
 10
9.470012
 20
4.944422
 30
0.0
  0
LWPOLYLINE
  5
108
100
AcDbEntity
  8
Text
 62
7
100
AcDbPolyline
 90
83
 70
0
 10
14.226997
 20
5.561783
 30
0.0
 10
15.037283
 20
6.285231
 30
0.0
 10
15.803474
 20
6.526390
 30
0.0
 10
16.539343
 20
6.365157
 30
0.0
 10
17.049219
 20
5.881484
 30
0.0
 10
17.403372
 20
6.141919
 30
0.0
 10
17.793360
 20
6.327960
 30
0.0
 10
18.217792
 20
6.439579
 30
0.0
 10
18.675305
 20
6.476776
 30
0.0
 10
19.582048
 20
6.208072
 30
0.0
 10
20.141540
 20
5.401904
 30
0.0
 10
20.239375
 20
4.918232
 30
0.0
 10
20.378561
 20
3.908130
 30
0.0
 10
20.554942
 20
2.717491
 30
0.0
 10
20.775436
 20
0.931560
 30
0.0
 10
20.732716
 20
0.644936
 30
0.0
 10
20.560462
 20
0.413429
 30
0.0
 10
20.302765
 20
0.260464
 30
0.0
 10
20.003733
 20
0.209467
 30
0.0
 10
19.500746
 20
0.366552
 30
0.0
 10
19.259595
 20
0.837863
 30
0.0
 10
19.158991
 20
1.522731
 30
0.0
 10
19.055644
 20
2.441901
 30
0.0
 10
18.955044
 20
3.412040
 30
0.0
 10
18.873744
 20
4.051442
 30
0.0
 10
18.704238
 20
4.791429
 30
0.0
 10
18.493404
 20
5.038120
 30
0.0
 10
18.285316
 20
4.974732
 30
0.0
 10
17.914628
 20
4.784543
 30
0.0
 10
17.523260
 20
4.548916
 30
0.0
 10
17.253170
 20
4.349102
 30
0.0
 10
17.290373
 20
3.582897
 30
0.0
 10
17.401997
 20
2.541102
 30
0.0
 10
17.517751
 20
1.485534
 30
0.0
 10
17.556339
 20
0.733130
 30
0.0
 10
17.502592
 20
0.445122
 30
0.0
 10
17.341365
 20
0.209467
 30
0.0
 10
17.097448
 20
0.052382
 30
0.0
 10
16.795663
 20
0.000001
 30
0.0
 10
16.493868
 20
0.052382
 30
0.0
 10
16.249958
 20
0.209467
 30
0.0
 10
16.088724
 20
0.445122
 30
0.0
 10
16.034983
 20
0.733130
 30
0.0
 10
16.000530
 20
1.508959
 30
0.0
 10
15.897180
 20
2.579682
 30
0.0
 10
15.797959
 20
3.654553
 30
0.0
 10
15.764888
 20
4.431765
 30
0.0
 10
15.749733
 20
4.748729
 30
0.0
 10
15.704258
 20
4.994008
 30
0.0
 10
15.063467
 20
4.502067
 30
0.0
 10
14.419927
 20
3.764818
 30
0.0
 10
14.382719
 20
3.716558
 30
0.0
 10
14.326221
 20
3.649050
 30
0.0
 10
14.309683
 20
2.655487
 30
0.0
 10
14.304179
 20
1.901699
 30
0.0
 10
14.301357
 20
1.719807
 30
0.0
 10
14.293088
 20
1.482769
 30
0.0
 10
14.284819
 20
1.256765
 30
0.0
 10
14.281997
 20
1.096914
 30
0.0
 10
14.221361
 20
0.830976
 30
0.0
 10
14.039461
 20
0.628397
 30
0.0
 10
13.792790
 20
0.508509
 30
0.0
 10
13.493758
 20
0.468547
 30
0.0
 10
13.101015
 20
0.570514
 30
0.0
 10
12.859859
 20
0.876442
 30
0.0
 10
12.773045
 20
1.233341
 30
0.0
 10
12.744106
 20
1.752884
 30
0.0
 10
12.744106
 20
2.778140
 30
0.0
 10
12.744106
 20
3.803397
 30
0.0
 10
12.738602
 20
4.142374
 30
0.0
 10
12.722064
 20
4.608154
 30
0.0
 10
12.705526
 20
5.078082
 30
0.0
 10
12.700023
 20
5.418442
 30
0.0
 10
12.744120
 20
5.885605
 30
0.0
 10
12.876411
 20
6.305918
 30
0.0
 10
13.135480
 20
6.677972
 30
0.0
 10
13.482749
 20
6.802008
 30
0.0
 10
13.774891
 20
6.741359
 30
0.0
 10
14.033963
 20
6.559467
 30
0.0
 10
14.215864
 20
6.310039
 30
0.0
 10
14.276499
 20
6.035803
 30
0.0
 10
14.264109
 20
5.975182
 30
0.0
 10
14.226901
 20
5.561783
 30
0.0
  0
LWPOLYLINE
  5
109
100
AcDbEntity
  8
Text
 62
7
100
AcDbPolyline
 90
83
 70
0
 10
23.002344
 20
5.561783
 30
0.0
 10
23.812630
 20
6.285231
 30
0.0
 10
24.578821
 20
6.526390
 30
0.0
 10
25.314690
 20
6.365157
 30
0.0
 10
25.824567
 20
5.881484
 30
0.0
 10
26.178719
 20
6.141919
 30
0.0
 10
26.568708
 20
6.327960
 30
0.0
 10
26.993139
 20
6.439579
 30
0.0
 10
27.450652
 20
6.476776
 30
0.0
 10
28.357395
 20
6.208072
 30
0.0
 10
28.916887
 20
5.401904
 30
0.0
 10
29.014722
 20
4.918232
 30
0.0
 10
29.153908
 20
3.908130
 30
0.0
 10
29.330289
 20
2.717491
 30
0.0
 10
29.550783
 20
0.931560
 30
0.0
 10
29.508063
 20
0.644936
 30
0.0
 10
29.335809
 20
0.413429
 30
0.0
 10
29.078112
 20
0.260464
 30
0.0
 10
28.779081
 20
0.209467
 30
0.0
 10
28.276093
 20
0.366552
 30
0.0
 10
28.034942
 20
0.837863
 30
0.0
 10
27.934339
 20
1.522731
 30
0.0
 10
27.830992
 20
2.441901
 30
0.0
 10
27.730391
 20
3.412040
 30
0.0
 10
27.649091
 20
4.051442
 30
0.0
 10
27.479585
 20
4.791429
 30
0.0
 10
27.268751
 20
5.038120
 30
0.0
 10
27.060663
 20
4.974732
 30
0.0
 10
26.689976
 20
4.784543
 30
0.0
 10
26.298607
 20
4.548916
 30
0.0
 10
26.028517
 20
4.349102
 30
0.0
 10
26.065720
 20
3.582897
 30
0.0
 10
26.177344
 20
2.541102
 30
0.0
 10
26.293098
 20
1.485534
 30
0.0
 10
26.331686
 20
0.733130
 30
0.0
 10
26.277940
 20
0.445122
 30
0.0
 10
26.116712
 20
0.209467
 30
0.0
 10
25.872796
 20
0.052382
 30
0.0
 10
25.571010
 20
0.000001
 30
0.0
 10
25.269215
 20
0.052382
 30
0.0
 10
25.025305
 20
0.209467
 30
0.0
 10
24.864071
 20
0.445122
 30
0.0
 10
24.810331
 20
0.733130
 30
0.0
 10
24.775877
 20
1.508959
 30
0.0
 10
24.672527
 20
2.579682
 30
0.0
 10
24.573306
 20
3.654553
 30
0.0
 10
24.540235
 20
4.431765
 30
0.0
 10
24.525080
 20
4.748729
 30
0.0
 10
24.479606
 20
4.994008
 30
0.0
 10
23.838814
 20
4.502067
 30
0.0
 10
23.195274
 20
3.764818
 30
0.0
 10
23.158066
 20
3.716558
 30
0.0
 10
23.101568
 20
3.649050
 30
0.0
 10
23.085030
 20
2.655487
 30
0.0
 10
23.079527
 20
1.901699
 30
0.0
 10
23.076704
 20
1.719807
 30
0.0
 10
23.068435
 20
1.482769
 30
0.0
 10
23.060166
 20
1.256765
 30
0.0
 10
23.057344
 20
1.096914
 30
0.0
 10
22.996708
 20
0.830976
 30
0.0
 10
22.814808
 20
0.628397
 30
0.0
 10
22.568137
 20
0.508509
 30
0.0
 10
22.269106
 20
0.468547
 30
0.0
 10
21.876362
 20
0.570514
 30
0.0
 10
21.635206
 20
0.876442
 30
0.0
 10
21.548392
 20
1.233341
 30
0.0
 10
21.519453
 20
1.752884
 30
0.0
 10
21.519453
 20
2.778140
 30
0.0
 10
21.519453
 20
3.803397
 30
0.0
 10
21.513950
 20
4.142374
 30
0.0
 10
21.497411
 20
4.608154
 30
0.0
 10
21.480873
 20
5.078082
 30
0.0
 10
21.475370
 20
5.418442
 30
0.0
 10
21.519467
 20
5.885605
 30
0.0
 10
21.651759
 20
6.305918
 30
0.0
 10
21.910827
 20
6.677972
 30
0.0
 10
22.258096
 20
6.802008
 30
0.0
 10
22.550239
 20
6.741359
 30
0.0
 10
22.809310
 20
6.559467
 30
0.0
 10
22.991211
 20
6.310039
 30
0.0
 10
23.051846
 20
6.035803
 30
0.0
 10
23.039457
 20
5.975182
 30
0.0
 10
23.002248
 20
5.561783
 30
0.0
  0
LWPOLYLINE
  5
10a
100
AcDbEntity
  8
Text
 62
7
100
AcDbPolyline
 90
33
 70
0
 10
33.128170
 20
0.429967
 30
0.0
 10
31.930653
 20
0.587052
 30
0.0
 10
30.972918
 20
1.058335
 30
0.0
 10
30.278386
 20
1.894813
 30
0.0
 10
30.046876
 20
3.015151
 30
0.0
 10
30.230157
 20
4.302225
 30
0.0
 10
30.779994
 20
5.374359
 30
0.0
 10
31.737729
 20
6.176378
 30
0.0
 10
32.979343
 20
6.443727
 30
0.0
 10
33.857150
 20
6.366540
 30
0.0
 10
34.572355
 20
6.135033
 30
0.0
 10
35.196602
 20
5.614135
 30
0.0
 10
35.404690
 20
4.867234
 30
0.0
 10
35.235188
 20
4.295339
 30
0.0
 10
34.726694
 20
3.792362
 30
0.0
 10
34.262291
 20
3.527779
 30
0.0
 10
33.486460
 20
3.163995
 30
0.0
 10
32.557664
 20
2.753333
 30
0.0
 10
31.628865
 20
2.342672
 30
0.0
 10
31.921007
 20
2.091861
 30
0.0
 10
32.268276
 20
1.912734
 30
0.0
 10
32.670660
 20
1.805236
 30
0.0
 10
33.128170
 20
1.769422
 30
0.0
 10
33.810296
 20
1.845198
 30
0.0
 10
34.379428
 20
2.072585
 30
0.0
 10
34.791458
 20
2.275136
 30
0.0
 10
35.112545
 20
2.342672
 30
0.0
 10
35.542488
 20
2.203480
 30
0.0
 10
35.685809
 20
1.785932
 30
0.0
 10
35.455674
 20
1.215448
 30
0.0
 10
34.765279
 20
0.760675
 30
0.0
 10
33.970149
 20
0.512630
 30
0.0
 10
33.128170
 20
0.429967
 30
0.0
  0
LWPOLYLINE
  5
10b
100
AcDbEntity
  8
Text
 62
7
100
AcDbPolyline
 90
11
 70
0
 10
32.979343
 20
5.109776
 30
0.0
 10
32.503917
 20
5.024319
 30
0.0
 10
32.102910
 20
4.768033
 30
0.0
 10
31.774934
 20
4.340833
 30
0.0
 10
31.518623
 20
3.742748
 30
0.0
 10
32.140116
 20
4.011480
 30
0.0
 10
32.758857
 20
4.277446
 30
0.0
 10
33.427202
 20
4.601268
 30
0.0
 10
33.943970
 20
4.900310
 30
0.0
 10
33.518153
 20
5.057395
 30
0.0
 10
32.979343
 20
5.109776
 30
0.0
  0
LWPOLYLINE
  5
10c
100
AcDbEntity
  8
Text
 62
7
100
AcDbPolyline
 90
37
 70
0
 10
41.275133
 20
4.657769
 30
0.0
 10
41.058775
 20
4.025252
 30
0.0
 10
40.508942
 20
3.814404
 30
0.0
 10
39.988041
 20
3.993559
 30
0.0
 10
39.814413
 20
4.530994
 30
0.0
 10
39.800612
 20
4.809350
 30
0.0
 10
39.786839
 20
5.087734
 30
0.0
 10
38.722991
 20
4.670186
 30
0.0
 10
38.011927
 20
3.814404
 30
0.0
 10
38.014749
 20
2.428100
 30
0.0
 10
38.017571
 20
1.041796
 30
0.0
 10
37.963825
 20
0.755172
 30
0.0
 10
37.802597
 20
0.523665
 30
0.0
 10
37.558684
 20
0.366552
 30
0.0
 10
37.256895
 20
0.314199
 30
0.0
 10
36.953726
 20
0.369317
 30
0.0
 10
36.727728
 20
0.534700
 30
0.0
 10
36.595437
 20
0.760675
 30
0.0
 10
36.551339
 20
1.041796
 30
0.0
 10
36.551339
 20
2.847031
 30
0.0
 10
36.551339
 20
4.652265
 30
0.0
 10
36.554162
 20
4.864468
 30
0.0
 10
36.562431
 20
5.159390
 30
0.0
 10
36.570700
 20
5.458405
 30
0.0
 10
36.573522
 20
5.672019
 30
0.0
 10
36.618997
 20
5.954495
 30
0.0
 10
36.755423
 20
6.184647
 30
0.0
 10
36.981421
 20
6.341732
 30
0.0
 10
37.284589
 20
6.394113
 30
0.0
 10
37.772413
 20
6.237000
 30
0.0
 10
38.012195
 20
5.765717
 30
0.0
 10
39.041586
 20
6.311422
 30
0.0
 10
40.178471
 20
6.493314
 30
0.0
 10
41.005289
 20
6.126764
 30
0.0
 10
41.280901
 20
5.027085
 30
0.0
 10
41.279490
 20
4.794195
 30
0.0
 10
41.275426
 20
4.657769
 30
0.0
  0
LWPOLYLINE
  5
10d
100
AcDbEntity
  8
Text
 62
7
100
AcDbPolyline
 90
27
 70
0
 10
42.851609
 20
2.320630
 30
0.0
 10
42.569110
 20
2.368862
 30
0.0
 10
42.338978
 20
2.513557
 30
0.0
 10
42.190148
 20
2.731263
 30
0.0
 10
42.140539
 20
2.998612
 30
0.0
 10
42.136418
 20
3.265962
 30
0.0
 10
42.124001
 20
3.638015
 30
0.0
 10
42.115732
 20
4.014217
 30
0.0
 10
42.112909
 20
4.282949
 30
0.0
 10
42.115732
 20
5.233784
 30
0.0
 10
42.124001
 20
6.564970
 30
0.0
 10
42.136418
 20
7.896156
 30
0.0
 10
42.140539
 20
8.847019
 30
0.0
 10
42.191528
 20
9.114340
 30
0.0
 10
42.344490
 20
9.332074
 30
0.0
 10
42.573245
 20
9.480890
 30
0.0
 10
42.851609
 20
9.530533
 30
0.0
 10
43.129970
 20
9.480890
 30
0.0
 10
43.358726
 20
9.332074
 30
0.0
 10
43.511687
 20
9.114340
 30
0.0
 10
43.562676
 20
8.847019
 30
0.0
 10
43.562676
 20
5.922802
 30
0.0
 10
43.562676
 20
2.998612
 30
0.0
 10
43.511687
 20
2.731263
 30
0.0
 10
43.358726
 20
2.513557
 30
0.0
 10
43.132728
 20
2.368862
 30
0.0
 10
42.851609
 20
2.320630
 30
0.0
  0
LWPOLYLINE
  5
10e
100
AcDbEntity
  8
Text
 62
7
100
AcDbPolyline
 90
17
 70
0
 10
42.835071
 20
0.319703
 30
0.0
 10
42.515367
 20
0.407897
 30
0.0
 10
42.217710
 20
0.672480
 30
0.0
 10
42.023405
 20
0.986678
 30
0.0
 10
41.958638
 20
1.278835
 30
0.0
 10
42.015139
 20
1.542035
 30
0.0
 10
42.184636
 20
1.758387
 30
0.0
 10
42.425792
 20
1.903082
 30
0.0
 10
42.697267
 20
1.951314
 30
0.0
 10
43.015594
 20
1.863120
 30
0.0
 10
43.309117
 20
1.598536
 30
0.0
 10
43.503418
 20
1.285721
 30
0.0
 10
43.568188
 20
0.997713
 30
0.0
 10
43.511687
 20
0.737250
 30
0.0
 10
43.342190
 20
0.518161
 30
0.0
 10
43.105166
 20
0.369317
 30
0.0
 10
42.835071
 20
0.319703
 30
0.0
  0
ENDSEC
  0
SECTION
  2
OBJECTS
  0
DICTIONARY
  5
C
330
0
100
AcDbDictionary
  3
ACAD_GROUP
350
D
  3
ACAD_MLINESTYLE
350
17
  0
DICTIONARY
  5
D
330
C
100
AcDbDictionary
  0
DICTIONARY
  5
1A
330
C
100
AcDbDictionary
  0
DICTIONARY
  5
17
330
C
100
AcDbDictionary
  3
STANDARD
350
18
  0
DICTIONARY
  5
19
330
C
100
AcDbDictionary
  0
ENDSEC
  0
EOF
